M48
; DRILL file {KiCad 9.0.6-9.0.6~ubuntu24.04.1} date 2025-11-20T20:10:09+0100
; FORMAT={-:-/ absolute / metric / decimal}
; #@! TF.CreationDate,2025-11-20T20:10:09+01:00
; #@! TF.GenerationSoftware,Kicad,Pcbnew,9.0.6-9.0.6~ubuntu24.04.1
; #@! TF.FileFunction,Plated,1,4,PTH
FMAT,2
METRIC
; #@! TA.AperFunction,Plated,PTH,ViaDrill
T1C0.300
; #@! TA.AperFunction,Plated,PTH,ComponentDrill
T2C0.500
; #@! TA.AperFunction,Plated,PTH,ComponentDrill
T3C0.600
; #@! TA.AperFunction,Plated,PTH,ComponentDrill
T4C0.740
; #@! TA.AperFunction,Plated,PTH,ComponentDrill
T5C1.850
; #@! TA.AperFunction,Plated,PTH,ComponentDrill
T6C2.700
; #@! TA.AperFunction,Plated,PTH,ComponentDrill
T7C3.200
%
G90
G05
T1
X101.1Y-60.2
X101.1Y-61.7
X101.1Y-63.2
X101.1Y-64.7
X101.1Y-66.2
X101.1Y-67.7
X101.1Y-69.2
X101.1Y-70.7
X101.1Y-72.2
X101.1Y-73.7
X101.1Y-75.2
X101.1Y-76.7
X101.1Y-78.2
X101.1Y-79.7
X101.1Y-81.2
X101.1Y-82.7
X101.1Y-84.2
X101.1Y-85.7
X101.1Y-87.2
X101.1Y-88.7
X101.1Y-90.2
X101.1Y-90.2
X101.1Y-91.7
X101.1Y-93.2
X101.1Y-94.7
X101.1Y-96.2
X101.1Y-97.7
X101.1Y-99.2
X101.1Y-100.7
X101.1Y-102.2
X101.1Y-103.7
X101.1Y-105.2
X101.1Y-106.7
X101.1Y-108.2
X101.1Y-109.7
X101.1Y-111.2
X101.1Y-112.7
X101.1Y-114.2
X101.1Y-115.7
X101.1Y-117.2
X101.1Y-118.7
X101.1Y-120.2
X101.1Y-121.7
X101.1Y-123.2
X101.1Y-124.7
X101.1Y-126.2
X101.1Y-127.7
X101.1Y-129.2
X101.1Y-130.7
X101.1Y-132.2
X104.3Y-57.0
X104.3Y-135.0
X105.8Y-57.0
X105.8Y-135.0
X107.032Y-116.2
X107.032Y-117.2
X107.032Y-118.2
X107.032Y-119.2
X107.3Y-57.0
X107.3Y-135.0
X108.582Y-116.2
X108.582Y-117.2
X108.582Y-118.2
X108.582Y-119.2
X108.8Y-57.0
X108.8Y-135.0
X109.534Y-73.3
X109.534Y-74.9
X109.534Y-85.1
X109.534Y-86.7
X109.534Y-70.9
X109.534Y-71.7
X109.534Y-72.5
X109.534Y-74.1
X109.534Y-75.7
X109.534Y-76.5
X109.534Y-83.5
X109.534Y-84.3
X109.534Y-85.9
X109.534Y-87.5
X109.534Y-88.3
X109.534Y-89.1
X110.234Y-70.9
X110.234Y-71.7
X110.234Y-72.5
X110.234Y-73.3
X110.234Y-74.1
X110.234Y-74.9
X110.234Y-75.7
X110.234Y-76.5
X110.234Y-83.5
X110.234Y-84.3
X110.234Y-85.1
X110.234Y-85.9
X110.234Y-86.7
X110.234Y-87.5
X110.234Y-88.3
X110.234Y-89.1
X110.3Y-57.0
X110.3Y-135.0
X110.9Y-127.5
X110.9Y-131.7
X111.034Y-70.9
X111.034Y-71.7
X111.034Y-72.5
X111.034Y-73.3
X111.034Y-74.1
X111.034Y-74.9
X111.034Y-75.7
X111.034Y-76.5
X111.034Y-83.5
X111.034Y-84.3
X111.034Y-85.1
X111.034Y-85.9
X111.034Y-86.7
X111.034Y-87.5
X111.034Y-88.3
X111.034Y-89.1
X111.8Y-57.0
X111.8Y-135.0
X111.834Y-70.9
X111.834Y-74.1
X111.834Y-76.5
X111.834Y-85.9
X111.834Y-88.3
X111.834Y-71.7
X111.834Y-72.5
X111.834Y-73.3
X111.834Y-74.9
X111.834Y-75.7
X111.834Y-83.5
X111.834Y-84.3
X111.834Y-85.1
X111.834Y-86.7
X111.834Y-87.5
X111.834Y-89.1
X112.534Y-70.9
X112.534Y-72.5
X112.534Y-74.1
X112.534Y-76.5
X112.534Y-84.3
X112.534Y-85.9
X112.534Y-88.3
X112.534Y-71.7
X112.534Y-73.3
X112.534Y-74.9
X112.534Y-75.7
X112.534Y-83.5
X112.534Y-85.1
X112.534Y-86.7
X112.534Y-87.5
X112.534Y-89.1
X112.7Y-109.7
X113.3Y-57.0
X113.3Y-135.0
X113.775Y-117.7
X114.8Y-57.0
X114.8Y-135.0
X116.3Y-57.0
X116.3Y-135.0
X117.8Y-57.0
X117.8Y-135.0
X119.3Y-57.0
X119.3Y-135.0
X120.1Y-121.6
X120.8Y-57.0
X120.8Y-135.0
X122.3Y-57.0
X122.3Y-135.0
X123.55Y-57.65
X123.55Y-59.15
X123.55Y-60.65
X123.55Y-62.15
X123.55Y-63.65
X123.55Y-65.15
X123.55Y-66.65
X123.55Y-120.6
X123.8Y-135.0
X124.75Y-93.25
X124.9Y-75.8
X125.3Y-135.0
X125.9Y-76.9
X125.9Y-77.5
X125.9Y-78.1
X126.2Y-100.75
X126.25Y-105.35
X126.25Y-103.1
X126.3Y-92.75
X126.5Y-76.9
X126.5Y-77.5
X126.5Y-78.1
X126.8Y-135.0
X127.1Y-76.9
X127.1Y-77.5
X127.1Y-78.1
X127.7Y-76.9
X127.7Y-77.5
X127.7Y-78.1
X127.7Y-91.95
X128.3Y-76.9
X128.3Y-77.5
X128.3Y-78.1
X128.3Y-135.0
X128.9Y-76.9
X128.9Y-77.5
X128.9Y-78.1
X129.6Y-99.75
X129.8Y-135.0
X130.2Y-112.7
X130.55Y-104.45
X130.55Y-106.65
X130.6Y-102.1
X130.7Y-120.5
X131.3Y-135.0
X131.55Y-99.8
X131.8Y-79.3
X131.8Y-79.8
X131.8Y-80.3
X131.8Y-80.8
X131.8Y-82.5
X131.8Y-83.0
X131.8Y-83.5
X131.8Y-84.0
X131.8Y-85.7
X131.8Y-86.2
X131.8Y-86.7
X131.8Y-87.2
X132.1Y-120.3
X132.4Y-128.2
X132.4Y-129.4
X132.45Y-107.85
X132.8Y-116.0
X132.8Y-135.0
X133.75Y-127.45
X133.8Y-114.25
X134.0Y-70.4
X134.3Y-135.0
X134.75Y-99.9
X135.0Y-79.3
X135.0Y-79.8
X135.0Y-80.3
X135.0Y-80.8
X135.0Y-82.5
X135.0Y-83.0
X135.0Y-83.5
X135.0Y-84.0
X135.0Y-85.7
X135.0Y-86.2
X135.0Y-86.7
X135.0Y-87.2
X135.16Y-97.275
X135.2Y-117.1
X135.5Y-75.8
X135.8Y-135.0
X136.6Y-76.9
X136.6Y-77.5
X136.6Y-78.1
X136.66Y-97.275
X137.2Y-76.9
X137.2Y-77.5
X137.2Y-78.1
X137.3Y-135.0
X137.8Y-76.9
X137.8Y-77.5
X137.8Y-78.1
X138.2Y-133.5
X138.4Y-76.9
X138.4Y-77.5
X138.4Y-78.1
X138.5Y-116.95
X138.8Y-135.0
X139.0Y-76.9
X139.0Y-77.5
X139.0Y-78.1
X139.6Y-76.9
X139.6Y-77.5
X139.6Y-78.1
X139.8Y-102.5
X139.8Y-104.1
X139.8Y-103.3
X139.8Y-104.9
X139.8Y-105.7
X140.0Y-112.1
X140.25Y-116.8
X140.3Y-135.0
X140.5Y-111.6
X140.5Y-102.5
X140.5Y-103.3
X140.5Y-104.1
X140.5Y-104.9
X140.5Y-105.7
X140.646Y-111.018
X141.1Y-110.5
X141.1Y-127.3
X141.3Y-102.5
X141.3Y-103.3
X141.3Y-104.1
X141.3Y-104.9
X141.3Y-105.7
X141.4Y-114.4
X141.4Y-117.1
X141.8Y-122.3
X141.8Y-135.0
X141.854Y-96.354
X142.1Y-103.3
X142.1Y-105.7
X142.1Y-102.5
X142.1Y-104.1
X142.1Y-104.9
X142.6Y-79.3
X142.6Y-79.8
X142.6Y-80.3
X142.6Y-80.8
X142.6Y-82.5
X142.6Y-83.0
X142.6Y-83.5
X142.6Y-84.0
X142.6Y-85.7
X142.6Y-86.2
X142.6Y-86.7
X142.6Y-87.2
X142.7Y-113.05
X142.724Y-96.176
X142.8Y-103.3
X142.8Y-105.7
X142.8Y-102.5
X142.8Y-104.1
X142.8Y-104.9
X143.3Y-135.0
X143.5Y-107.6
X143.6Y-111.9
X144.0Y-111.3
X144.0Y-118.5
X144.06Y-131.96
X144.604Y-94.904
X144.65Y-70.4
X144.8Y-135.0
X145.0Y-113.7
X145.7Y-79.3
X145.7Y-79.8
X145.7Y-80.3
X145.7Y-80.8
X145.7Y-82.5
X145.7Y-83.0
X145.7Y-83.5
X145.7Y-84.0
X145.7Y-85.7
X145.7Y-86.2
X145.7Y-86.7
X145.7Y-87.2
X146.15Y-75.75
X146.3Y-135.0
X146.3Y-135.0
X146.8Y-98.9
X147.2Y-76.9
X147.2Y-77.5
X147.2Y-78.1
X147.2Y-106.35
X147.2Y-108.7
X147.3Y-122.7
X147.8Y-76.9
X147.8Y-77.5
X147.8Y-78.1
X147.8Y-135.0
X148.0Y-104.3
X148.05Y-105.85
X148.1Y-103.35
X148.4Y-76.9
X148.4Y-77.5
X148.4Y-78.1
X149.0Y-76.9
X149.0Y-77.5
X149.0Y-78.1
X149.0Y-105.0
X149.3Y-135.0
X149.333Y-108.675
X149.6Y-76.9
X149.6Y-77.5
X149.6Y-78.1
X150.1Y-104.9
X150.2Y-76.9
X150.2Y-77.5
X150.2Y-78.1
X150.352Y-109.698
X150.4Y-106.2
X150.429Y-107.579
X150.7Y-102.6
X150.8Y-135.0
X151.42Y-110.766
X151.448Y-108.602
X151.8Y-107.5
X151.8Y-127.1
X152.3Y-135.0
X152.516Y-109.67
X152.65Y-108.2
X153.2Y-123.0
X153.4Y-108.95
X153.8Y-135.0
X153.9Y-102.0
X154.4Y-115.8
X154.4Y-123.8
X154.5Y-119.6
X154.6Y-113.0
X154.75Y-79.3
X154.75Y-79.8
X154.75Y-80.3
X154.75Y-80.8
X154.75Y-82.5
X154.75Y-83.0
X154.75Y-83.5
X154.75Y-84.0
X154.75Y-85.7
X154.75Y-86.2
X154.75Y-86.7
X154.75Y-87.2
X155.1Y-99.2
X155.1Y-105.6
X155.2Y-70.393
X155.3Y-135.0
X155.6Y-133.5
X155.8Y-122.9
X155.9Y-114.2
X156.45Y-59.75
X156.45Y-61.25
X156.45Y-64.25
X156.45Y-66.1
X156.8Y-57.0
X156.8Y-70.5
X156.8Y-103.9
X156.8Y-135.0
X157.0Y-71.5
X157.8Y-112.9
X158.05Y-79.3
X158.05Y-79.8
X158.05Y-80.3
X158.05Y-80.8
X158.05Y-82.5
X158.05Y-83.0
X158.05Y-83.5
X158.05Y-84.0
X158.05Y-85.7
X158.05Y-86.2
X158.05Y-86.7
X158.05Y-87.2
X158.3Y-57.0
X158.3Y-135.0
X158.35Y-108.95
X158.4Y-70.0
X159.75Y-93.85
X159.8Y-57.0
X159.8Y-135.0
X161.3Y-57.0
X161.3Y-135.0
X161.6Y-96.05
X162.2Y-91.9
X162.6Y-106.19
X162.7Y-93.95
X162.8Y-57.0
X162.8Y-135.0
X163.575Y-91.3
X164.3Y-57.0
X164.3Y-135.0
X164.7Y-90.9
X165.2Y-102.4
X165.8Y-135.0
X165.95Y-95.75
X166.0Y-81.6
X166.7Y-107.9
X167.3Y-135.0
X167.3Y-57.0
X167.6Y-91.2
X167.75Y-71.55
X167.8Y-65.8
X167.9Y-74.9
X167.9Y-78.3
X168.8Y-57.0
X168.8Y-135.0
X169.5Y-65.8
X169.9Y-90.7
X170.1Y-100.6
X170.225Y-105.0
X170.3Y-57.0
X170.3Y-135.0
X171.0Y-65.8
X171.7Y-101.2
X171.8Y-57.0
X171.8Y-135.0
X172.4Y-86.7
X172.4Y-89.125
X172.6Y-65.8
X173.3Y-57.0
X173.3Y-135.0
X174.15Y-102.4
X174.3Y-63.7
X174.5Y-108.0
X174.8Y-135.0
X175.725Y-68.0
X175.725Y-82.0
X178.9Y-60.7
X178.9Y-62.2
X178.9Y-63.7
X178.9Y-65.2
X178.9Y-66.7
X178.9Y-68.2
X178.9Y-69.7
X178.9Y-71.2
X178.9Y-72.7
X178.9Y-74.2
X178.9Y-75.7
X178.9Y-77.2
X178.9Y-78.7
X178.9Y-80.2
X178.9Y-81.7
X178.9Y-83.2
X178.9Y-84.7
X178.9Y-87.7
X178.9Y-89.2
X178.9Y-92.2
X178.9Y-93.7
X178.9Y-95.2
X178.9Y-96.7
X178.9Y-98.2
X178.9Y-99.7
X178.9Y-102.7
X178.9Y-104.2
X178.9Y-105.7
X178.9Y-107.2
X178.9Y-108.7
X178.9Y-110.2
X178.9Y-111.7
X178.9Y-113.2
X178.9Y-114.7
X178.9Y-116.2
X178.9Y-117.7
X178.9Y-119.2
X178.9Y-120.7
X178.9Y-122.2
X178.9Y-123.7
X178.9Y-125.2
X178.9Y-126.7
X178.9Y-128.2
X178.9Y-129.7
X178.9Y-131.2
T2
X115.1Y-67.0
X115.1Y-125.0
X115.803Y-65.303
X115.803Y-68.697
X115.803Y-123.303
X115.803Y-126.697
X117.5Y-64.6
X117.5Y-69.4
X117.5Y-122.6
X117.5Y-127.4
X119.197Y-65.303
X119.197Y-68.697
X119.197Y-123.303
X119.197Y-126.697
X119.9Y-67.0
X119.9Y-125.0
X160.1Y-67.0
X160.1Y-125.0
X160.803Y-65.303
X160.803Y-68.697
X160.803Y-123.303
X160.803Y-126.697
X162.5Y-64.6
X162.5Y-69.4
X162.5Y-122.6
X162.5Y-127.4
X164.197Y-65.303
X164.197Y-68.697
X164.197Y-123.303
X164.197Y-126.697
X164.9Y-67.0
X164.9Y-125.0
T4
X102.608Y-111.775
X102.608Y-123.625
T5
X126.505Y-59.165
X126.505Y-65.035
X132.375Y-59.165
X132.375Y-65.035
X137.065Y-59.165
X137.065Y-65.035
X142.935Y-59.165
X142.935Y-65.035
X147.655Y-59.165
X147.655Y-65.035
X153.525Y-59.165
X153.525Y-65.035
T6
X116.15Y-95.6
X116.15Y-102.8
T7
X117.5Y-67.0
X117.5Y-125.0
X162.5Y-67.0
X162.5Y-125.0
T3
G00X109.6Y-92.45
M15
G01X110.7Y-92.45
M16
G05
G00X109.6Y-105.95
M15
G01X110.7Y-105.95
M16
G05
M30
