%TF.GenerationSoftware,KiCad,Pcbnew,9.0.6-9.0.6~ubuntu24.04.1*%
%TF.CreationDate,2025-11-20T19:25:34+01:00*%
%TF.ProjectId,FOC_CONTROLLER_V2,464f435f-434f-44e5-9452-4f4c4c45525f,rev?*%
%TF.SameCoordinates,Original*%
%TF.FileFunction,Legend,Top*%
%TF.FilePolarity,Positive*%
%FSLAX46Y46*%
G04 Gerber Fmt 4.6, Leading zero omitted, Abs format (unit mm)*
G04 Created by KiCad (PCBNEW 9.0.6-9.0.6~ubuntu24.04.1) date 2025-11-20 19:25:34*
%MOMM*%
%LPD*%
G01*
G04 APERTURE LIST*
%ADD10C,0.300000*%
%ADD11C,0.150000*%
%ADD12C,0.200000*%
%ADD13C,0.100000*%
%ADD14C,0.120000*%
%ADD15C,0.250000*%
G04 APERTURE END LIST*
D10*
X128771428Y-69609638D02*
X128771428Y-71228685D01*
X128771428Y-71228685D02*
X128876190Y-71419161D01*
X128876190Y-71419161D02*
X128980952Y-71514400D01*
X128980952Y-71514400D02*
X129190476Y-71609638D01*
X129190476Y-71609638D02*
X129609523Y-71609638D01*
X129609523Y-71609638D02*
X129819047Y-71514400D01*
X129819047Y-71514400D02*
X129923809Y-71419161D01*
X129923809Y-71419161D02*
X130028571Y-71228685D01*
X130028571Y-71228685D02*
X130028571Y-69609638D01*
D11*
X122402438Y-99080952D02*
X122354819Y-99176190D01*
X122354819Y-99176190D02*
X122354819Y-99319047D01*
X122354819Y-99319047D02*
X122402438Y-99461904D01*
X122402438Y-99461904D02*
X122497676Y-99557142D01*
X122497676Y-99557142D02*
X122592914Y-99604761D01*
X122592914Y-99604761D02*
X122783390Y-99652380D01*
X122783390Y-99652380D02*
X122926247Y-99652380D01*
X122926247Y-99652380D02*
X123116723Y-99604761D01*
X123116723Y-99604761D02*
X123211961Y-99557142D01*
X123211961Y-99557142D02*
X123307200Y-99461904D01*
X123307200Y-99461904D02*
X123354819Y-99319047D01*
X123354819Y-99319047D02*
X123354819Y-99223809D01*
X123354819Y-99223809D02*
X123307200Y-99080952D01*
X123307200Y-99080952D02*
X123259580Y-99033333D01*
X123259580Y-99033333D02*
X122926247Y-99033333D01*
X122926247Y-99033333D02*
X122926247Y-99223809D01*
X123069104Y-98652380D02*
X123069104Y-98176190D01*
X123354819Y-98747618D02*
X122354819Y-98414285D01*
X122354819Y-98414285D02*
X123354819Y-98080952D01*
X122354819Y-97890475D02*
X122354819Y-97319047D01*
X123354819Y-97604761D02*
X122354819Y-97604761D01*
X122831009Y-96985713D02*
X122831009Y-96652380D01*
X123354819Y-96509523D02*
X123354819Y-96985713D01*
X123354819Y-96985713D02*
X122354819Y-96985713D01*
X122354819Y-96985713D02*
X122354819Y-96509523D01*
X123354819Y-94842856D02*
X123354819Y-95319046D01*
X123354819Y-95319046D02*
X122354819Y-95319046D01*
X122354819Y-94319046D02*
X122354819Y-94128570D01*
X122354819Y-94128570D02*
X122402438Y-94033332D01*
X122402438Y-94033332D02*
X122497676Y-93938094D01*
X122497676Y-93938094D02*
X122688152Y-93890475D01*
X122688152Y-93890475D02*
X123021485Y-93890475D01*
X123021485Y-93890475D02*
X123211961Y-93938094D01*
X123211961Y-93938094D02*
X123307200Y-94033332D01*
X123307200Y-94033332D02*
X123354819Y-94128570D01*
X123354819Y-94128570D02*
X123354819Y-94319046D01*
X123354819Y-94319046D02*
X123307200Y-94414284D01*
X123307200Y-94414284D02*
X123211961Y-94509522D01*
X123211961Y-94509522D02*
X123021485Y-94557141D01*
X123021485Y-94557141D02*
X122688152Y-94557141D01*
X122688152Y-94557141D02*
X122497676Y-94509522D01*
X122497676Y-94509522D02*
X122402438Y-94414284D01*
X122402438Y-94414284D02*
X122354819Y-94319046D01*
X122354819Y-93557141D02*
X123354819Y-93319046D01*
X123354819Y-93319046D02*
X122640533Y-93128570D01*
X122640533Y-93128570D02*
X123354819Y-92938094D01*
X123354819Y-92938094D02*
X122354819Y-92699999D01*
D10*
X149657142Y-69609638D02*
X150180952Y-71609638D01*
X150180952Y-71609638D02*
X150599999Y-70181066D01*
X150599999Y-70181066D02*
X151019047Y-71609638D01*
X151019047Y-71609638D02*
X151542857Y-69609638D01*
D11*
X115285714Y-111188152D02*
X115285714Y-111854819D01*
X115047619Y-110807200D02*
X114809524Y-111521485D01*
X114809524Y-111521485D02*
X115428571Y-111521485D01*
X115952381Y-111283390D02*
X115857143Y-111235771D01*
X115857143Y-111235771D02*
X115809524Y-111188152D01*
X115809524Y-111188152D02*
X115761905Y-111092914D01*
X115761905Y-111092914D02*
X115761905Y-111045295D01*
X115761905Y-111045295D02*
X115809524Y-110950057D01*
X115809524Y-110950057D02*
X115857143Y-110902438D01*
X115857143Y-110902438D02*
X115952381Y-110854819D01*
X115952381Y-110854819D02*
X116142857Y-110854819D01*
X116142857Y-110854819D02*
X116238095Y-110902438D01*
X116238095Y-110902438D02*
X116285714Y-110950057D01*
X116285714Y-110950057D02*
X116333333Y-111045295D01*
X116333333Y-111045295D02*
X116333333Y-111092914D01*
X116333333Y-111092914D02*
X116285714Y-111188152D01*
X116285714Y-111188152D02*
X116238095Y-111235771D01*
X116238095Y-111235771D02*
X116142857Y-111283390D01*
X116142857Y-111283390D02*
X115952381Y-111283390D01*
X115952381Y-111283390D02*
X115857143Y-111331009D01*
X115857143Y-111331009D02*
X115809524Y-111378628D01*
X115809524Y-111378628D02*
X115761905Y-111473866D01*
X115761905Y-111473866D02*
X115761905Y-111664342D01*
X115761905Y-111664342D02*
X115809524Y-111759580D01*
X115809524Y-111759580D02*
X115857143Y-111807200D01*
X115857143Y-111807200D02*
X115952381Y-111854819D01*
X115952381Y-111854819D02*
X116142857Y-111854819D01*
X116142857Y-111854819D02*
X116238095Y-111807200D01*
X116238095Y-111807200D02*
X116285714Y-111759580D01*
X116285714Y-111759580D02*
X116333333Y-111664342D01*
X116333333Y-111664342D02*
X116333333Y-111473866D01*
X116333333Y-111473866D02*
X116285714Y-111378628D01*
X116285714Y-111378628D02*
X116238095Y-111331009D01*
X116238095Y-111331009D02*
X116142857Y-111283390D01*
X116619048Y-110854819D02*
X116952381Y-111854819D01*
X116952381Y-111854819D02*
X117285714Y-110854819D01*
D12*
X104553006Y-60373521D02*
X104219673Y-60373521D01*
X104219673Y-60897331D02*
X104219673Y-59897331D01*
X104219673Y-59897331D02*
X104695863Y-59897331D01*
X105267292Y-59897331D02*
X105457768Y-59897331D01*
X105457768Y-59897331D02*
X105553006Y-59944950D01*
X105553006Y-59944950D02*
X105648244Y-60040188D01*
X105648244Y-60040188D02*
X105695863Y-60230664D01*
X105695863Y-60230664D02*
X105695863Y-60563997D01*
X105695863Y-60563997D02*
X105648244Y-60754473D01*
X105648244Y-60754473D02*
X105553006Y-60849712D01*
X105553006Y-60849712D02*
X105457768Y-60897331D01*
X105457768Y-60897331D02*
X105267292Y-60897331D01*
X105267292Y-60897331D02*
X105172054Y-60849712D01*
X105172054Y-60849712D02*
X105076816Y-60754473D01*
X105076816Y-60754473D02*
X105029197Y-60563997D01*
X105029197Y-60563997D02*
X105029197Y-60230664D01*
X105029197Y-60230664D02*
X105076816Y-60040188D01*
X105076816Y-60040188D02*
X105172054Y-59944950D01*
X105172054Y-59944950D02*
X105267292Y-59897331D01*
X106695863Y-60802092D02*
X106648244Y-60849712D01*
X106648244Y-60849712D02*
X106505387Y-60897331D01*
X106505387Y-60897331D02*
X106410149Y-60897331D01*
X106410149Y-60897331D02*
X106267292Y-60849712D01*
X106267292Y-60849712D02*
X106172054Y-60754473D01*
X106172054Y-60754473D02*
X106124435Y-60659235D01*
X106124435Y-60659235D02*
X106076816Y-60468759D01*
X106076816Y-60468759D02*
X106076816Y-60325902D01*
X106076816Y-60325902D02*
X106124435Y-60135426D01*
X106124435Y-60135426D02*
X106172054Y-60040188D01*
X106172054Y-60040188D02*
X106267292Y-59944950D01*
X106267292Y-59944950D02*
X106410149Y-59897331D01*
X106410149Y-59897331D02*
X106505387Y-59897331D01*
X106505387Y-59897331D02*
X106648244Y-59944950D01*
X106648244Y-59944950D02*
X106695863Y-59992569D01*
X107886340Y-60897331D02*
X107886340Y-59897331D01*
X107886340Y-59897331D02*
X108219673Y-60611616D01*
X108219673Y-60611616D02*
X108553006Y-59897331D01*
X108553006Y-59897331D02*
X108553006Y-60897331D01*
X109172054Y-60897331D02*
X109076816Y-60849712D01*
X109076816Y-60849712D02*
X109029197Y-60802092D01*
X109029197Y-60802092D02*
X108981578Y-60706854D01*
X108981578Y-60706854D02*
X108981578Y-60421140D01*
X108981578Y-60421140D02*
X109029197Y-60325902D01*
X109029197Y-60325902D02*
X109076816Y-60278283D01*
X109076816Y-60278283D02*
X109172054Y-60230664D01*
X109172054Y-60230664D02*
X109314911Y-60230664D01*
X109314911Y-60230664D02*
X109410149Y-60278283D01*
X109410149Y-60278283D02*
X109457768Y-60325902D01*
X109457768Y-60325902D02*
X109505387Y-60421140D01*
X109505387Y-60421140D02*
X109505387Y-60706854D01*
X109505387Y-60706854D02*
X109457768Y-60802092D01*
X109457768Y-60802092D02*
X109410149Y-60849712D01*
X109410149Y-60849712D02*
X109314911Y-60897331D01*
X109314911Y-60897331D02*
X109172054Y-60897331D01*
X109791102Y-60230664D02*
X110172054Y-60230664D01*
X109933959Y-59897331D02*
X109933959Y-60754473D01*
X109933959Y-60754473D02*
X109981578Y-60849712D01*
X109981578Y-60849712D02*
X110076816Y-60897331D01*
X110076816Y-60897331D02*
X110172054Y-60897331D01*
X110648245Y-60897331D02*
X110553007Y-60849712D01*
X110553007Y-60849712D02*
X110505388Y-60802092D01*
X110505388Y-60802092D02*
X110457769Y-60706854D01*
X110457769Y-60706854D02*
X110457769Y-60421140D01*
X110457769Y-60421140D02*
X110505388Y-60325902D01*
X110505388Y-60325902D02*
X110553007Y-60278283D01*
X110553007Y-60278283D02*
X110648245Y-60230664D01*
X110648245Y-60230664D02*
X110791102Y-60230664D01*
X110791102Y-60230664D02*
X110886340Y-60278283D01*
X110886340Y-60278283D02*
X110933959Y-60325902D01*
X110933959Y-60325902D02*
X110981578Y-60421140D01*
X110981578Y-60421140D02*
X110981578Y-60706854D01*
X110981578Y-60706854D02*
X110933959Y-60802092D01*
X110933959Y-60802092D02*
X110886340Y-60849712D01*
X110886340Y-60849712D02*
X110791102Y-60897331D01*
X110791102Y-60897331D02*
X110648245Y-60897331D01*
X111410150Y-60897331D02*
X111410150Y-60230664D01*
X111410150Y-60421140D02*
X111457769Y-60325902D01*
X111457769Y-60325902D02*
X111505388Y-60278283D01*
X111505388Y-60278283D02*
X111600626Y-60230664D01*
X111600626Y-60230664D02*
X111695864Y-60230664D01*
X112791103Y-60897331D02*
X112791103Y-59897331D01*
X112791103Y-59897331D02*
X113029198Y-59897331D01*
X113029198Y-59897331D02*
X113172055Y-59944950D01*
X113172055Y-59944950D02*
X113267293Y-60040188D01*
X113267293Y-60040188D02*
X113314912Y-60135426D01*
X113314912Y-60135426D02*
X113362531Y-60325902D01*
X113362531Y-60325902D02*
X113362531Y-60468759D01*
X113362531Y-60468759D02*
X113314912Y-60659235D01*
X113314912Y-60659235D02*
X113267293Y-60754473D01*
X113267293Y-60754473D02*
X113172055Y-60849712D01*
X113172055Y-60849712D02*
X113029198Y-60897331D01*
X113029198Y-60897331D02*
X112791103Y-60897331D01*
X113791103Y-60897331D02*
X113791103Y-60230664D01*
X113791103Y-60421140D02*
X113838722Y-60325902D01*
X113838722Y-60325902D02*
X113886341Y-60278283D01*
X113886341Y-60278283D02*
X113981579Y-60230664D01*
X113981579Y-60230664D02*
X114076817Y-60230664D01*
X114410151Y-60897331D02*
X114410151Y-60230664D01*
X114410151Y-59897331D02*
X114362532Y-59944950D01*
X114362532Y-59944950D02*
X114410151Y-59992569D01*
X114410151Y-59992569D02*
X114457770Y-59944950D01*
X114457770Y-59944950D02*
X114410151Y-59897331D01*
X114410151Y-59897331D02*
X114410151Y-59992569D01*
X114791103Y-60230664D02*
X115029198Y-60897331D01*
X115029198Y-60897331D02*
X115267293Y-60230664D01*
X116029198Y-60849712D02*
X115933960Y-60897331D01*
X115933960Y-60897331D02*
X115743484Y-60897331D01*
X115743484Y-60897331D02*
X115648246Y-60849712D01*
X115648246Y-60849712D02*
X115600627Y-60754473D01*
X115600627Y-60754473D02*
X115600627Y-60373521D01*
X115600627Y-60373521D02*
X115648246Y-60278283D01*
X115648246Y-60278283D02*
X115743484Y-60230664D01*
X115743484Y-60230664D02*
X115933960Y-60230664D01*
X115933960Y-60230664D02*
X116029198Y-60278283D01*
X116029198Y-60278283D02*
X116076817Y-60373521D01*
X116076817Y-60373521D02*
X116076817Y-60468759D01*
X116076817Y-60468759D02*
X115600627Y-60563997D01*
X116505389Y-60897331D02*
X116505389Y-60230664D01*
X116505389Y-60421140D02*
X116553008Y-60325902D01*
X116553008Y-60325902D02*
X116600627Y-60278283D01*
X116600627Y-60278283D02*
X116695865Y-60230664D01*
X116695865Y-60230664D02*
X116791103Y-60230664D01*
X117791104Y-60230664D02*
X118029199Y-60897331D01*
X118029199Y-60897331D02*
X118267294Y-60230664D01*
X118600628Y-59992569D02*
X118648247Y-59944950D01*
X118648247Y-59944950D02*
X118743485Y-59897331D01*
X118743485Y-59897331D02*
X118981580Y-59897331D01*
X118981580Y-59897331D02*
X119076818Y-59944950D01*
X119076818Y-59944950D02*
X119124437Y-59992569D01*
X119124437Y-59992569D02*
X119172056Y-60087807D01*
X119172056Y-60087807D02*
X119172056Y-60183045D01*
X119172056Y-60183045D02*
X119124437Y-60325902D01*
X119124437Y-60325902D02*
X118553009Y-60897331D01*
X118553009Y-60897331D02*
X119172056Y-60897331D01*
X119600628Y-60802092D02*
X119648247Y-60849712D01*
X119648247Y-60849712D02*
X119600628Y-60897331D01*
X119600628Y-60897331D02*
X119553009Y-60849712D01*
X119553009Y-60849712D02*
X119600628Y-60802092D01*
X119600628Y-60802092D02*
X119600628Y-60897331D01*
X120267294Y-59897331D02*
X120362532Y-59897331D01*
X120362532Y-59897331D02*
X120457770Y-59944950D01*
X120457770Y-59944950D02*
X120505389Y-59992569D01*
X120505389Y-59992569D02*
X120553008Y-60087807D01*
X120553008Y-60087807D02*
X120600627Y-60278283D01*
X120600627Y-60278283D02*
X120600627Y-60516378D01*
X120600627Y-60516378D02*
X120553008Y-60706854D01*
X120553008Y-60706854D02*
X120505389Y-60802092D01*
X120505389Y-60802092D02*
X120457770Y-60849712D01*
X120457770Y-60849712D02*
X120362532Y-60897331D01*
X120362532Y-60897331D02*
X120267294Y-60897331D01*
X120267294Y-60897331D02*
X120172056Y-60849712D01*
X120172056Y-60849712D02*
X120124437Y-60802092D01*
X120124437Y-60802092D02*
X120076818Y-60706854D01*
X120076818Y-60706854D02*
X120029199Y-60516378D01*
X120029199Y-60516378D02*
X120029199Y-60278283D01*
X120029199Y-60278283D02*
X120076818Y-60087807D01*
X120076818Y-60087807D02*
X120124437Y-59992569D01*
X120124437Y-59992569D02*
X120172056Y-59944950D01*
X120172056Y-59944950D02*
X120267294Y-59897331D01*
X104219673Y-62507275D02*
X104219673Y-61507275D01*
X104219673Y-61507275D02*
X104457768Y-61507275D01*
X104457768Y-61507275D02*
X104600625Y-61554894D01*
X104600625Y-61554894D02*
X104695863Y-61650132D01*
X104695863Y-61650132D02*
X104743482Y-61745370D01*
X104743482Y-61745370D02*
X104791101Y-61935846D01*
X104791101Y-61935846D02*
X104791101Y-62078703D01*
X104791101Y-62078703D02*
X104743482Y-62269179D01*
X104743482Y-62269179D02*
X104695863Y-62364417D01*
X104695863Y-62364417D02*
X104600625Y-62459656D01*
X104600625Y-62459656D02*
X104457768Y-62507275D01*
X104457768Y-62507275D02*
X104219673Y-62507275D01*
X105600625Y-62459656D02*
X105505387Y-62507275D01*
X105505387Y-62507275D02*
X105314911Y-62507275D01*
X105314911Y-62507275D02*
X105219673Y-62459656D01*
X105219673Y-62459656D02*
X105172054Y-62364417D01*
X105172054Y-62364417D02*
X105172054Y-61983465D01*
X105172054Y-61983465D02*
X105219673Y-61888227D01*
X105219673Y-61888227D02*
X105314911Y-61840608D01*
X105314911Y-61840608D02*
X105505387Y-61840608D01*
X105505387Y-61840608D02*
X105600625Y-61888227D01*
X105600625Y-61888227D02*
X105648244Y-61983465D01*
X105648244Y-61983465D02*
X105648244Y-62078703D01*
X105648244Y-62078703D02*
X105172054Y-62173941D01*
X106029197Y-62459656D02*
X106124435Y-62507275D01*
X106124435Y-62507275D02*
X106314911Y-62507275D01*
X106314911Y-62507275D02*
X106410149Y-62459656D01*
X106410149Y-62459656D02*
X106457768Y-62364417D01*
X106457768Y-62364417D02*
X106457768Y-62316798D01*
X106457768Y-62316798D02*
X106410149Y-62221560D01*
X106410149Y-62221560D02*
X106314911Y-62173941D01*
X106314911Y-62173941D02*
X106172054Y-62173941D01*
X106172054Y-62173941D02*
X106076816Y-62126322D01*
X106076816Y-62126322D02*
X106029197Y-62031084D01*
X106029197Y-62031084D02*
X106029197Y-61983465D01*
X106029197Y-61983465D02*
X106076816Y-61888227D01*
X106076816Y-61888227D02*
X106172054Y-61840608D01*
X106172054Y-61840608D02*
X106314911Y-61840608D01*
X106314911Y-61840608D02*
X106410149Y-61888227D01*
X106886340Y-62507275D02*
X106886340Y-61840608D01*
X106886340Y-61507275D02*
X106838721Y-61554894D01*
X106838721Y-61554894D02*
X106886340Y-61602513D01*
X106886340Y-61602513D02*
X106933959Y-61554894D01*
X106933959Y-61554894D02*
X106886340Y-61507275D01*
X106886340Y-61507275D02*
X106886340Y-61602513D01*
X107791101Y-61840608D02*
X107791101Y-62650132D01*
X107791101Y-62650132D02*
X107743482Y-62745370D01*
X107743482Y-62745370D02*
X107695863Y-62792989D01*
X107695863Y-62792989D02*
X107600625Y-62840608D01*
X107600625Y-62840608D02*
X107457768Y-62840608D01*
X107457768Y-62840608D02*
X107362530Y-62792989D01*
X107791101Y-62459656D02*
X107695863Y-62507275D01*
X107695863Y-62507275D02*
X107505387Y-62507275D01*
X107505387Y-62507275D02*
X107410149Y-62459656D01*
X107410149Y-62459656D02*
X107362530Y-62412036D01*
X107362530Y-62412036D02*
X107314911Y-62316798D01*
X107314911Y-62316798D02*
X107314911Y-62031084D01*
X107314911Y-62031084D02*
X107362530Y-61935846D01*
X107362530Y-61935846D02*
X107410149Y-61888227D01*
X107410149Y-61888227D02*
X107505387Y-61840608D01*
X107505387Y-61840608D02*
X107695863Y-61840608D01*
X107695863Y-61840608D02*
X107791101Y-61888227D01*
X108267292Y-61840608D02*
X108267292Y-62507275D01*
X108267292Y-61935846D02*
X108314911Y-61888227D01*
X108314911Y-61888227D02*
X108410149Y-61840608D01*
X108410149Y-61840608D02*
X108553006Y-61840608D01*
X108553006Y-61840608D02*
X108648244Y-61888227D01*
X108648244Y-61888227D02*
X108695863Y-61983465D01*
X108695863Y-61983465D02*
X108695863Y-62507275D01*
X109553006Y-62459656D02*
X109457768Y-62507275D01*
X109457768Y-62507275D02*
X109267292Y-62507275D01*
X109267292Y-62507275D02*
X109172054Y-62459656D01*
X109172054Y-62459656D02*
X109124435Y-62364417D01*
X109124435Y-62364417D02*
X109124435Y-61983465D01*
X109124435Y-61983465D02*
X109172054Y-61888227D01*
X109172054Y-61888227D02*
X109267292Y-61840608D01*
X109267292Y-61840608D02*
X109457768Y-61840608D01*
X109457768Y-61840608D02*
X109553006Y-61888227D01*
X109553006Y-61888227D02*
X109600625Y-61983465D01*
X109600625Y-61983465D02*
X109600625Y-62078703D01*
X109600625Y-62078703D02*
X109124435Y-62173941D01*
X110457768Y-62507275D02*
X110457768Y-61507275D01*
X110457768Y-62459656D02*
X110362530Y-62507275D01*
X110362530Y-62507275D02*
X110172054Y-62507275D01*
X110172054Y-62507275D02*
X110076816Y-62459656D01*
X110076816Y-62459656D02*
X110029197Y-62412036D01*
X110029197Y-62412036D02*
X109981578Y-62316798D01*
X109981578Y-62316798D02*
X109981578Y-62031084D01*
X109981578Y-62031084D02*
X110029197Y-61935846D01*
X110029197Y-61935846D02*
X110076816Y-61888227D01*
X110076816Y-61888227D02*
X110172054Y-61840608D01*
X110172054Y-61840608D02*
X110362530Y-61840608D01*
X110362530Y-61840608D02*
X110457768Y-61888227D01*
X111695864Y-62507275D02*
X111695864Y-61507275D01*
X111695864Y-61888227D02*
X111791102Y-61840608D01*
X111791102Y-61840608D02*
X111981578Y-61840608D01*
X111981578Y-61840608D02*
X112076816Y-61888227D01*
X112076816Y-61888227D02*
X112124435Y-61935846D01*
X112124435Y-61935846D02*
X112172054Y-62031084D01*
X112172054Y-62031084D02*
X112172054Y-62316798D01*
X112172054Y-62316798D02*
X112124435Y-62412036D01*
X112124435Y-62412036D02*
X112076816Y-62459656D01*
X112076816Y-62459656D02*
X111981578Y-62507275D01*
X111981578Y-62507275D02*
X111791102Y-62507275D01*
X111791102Y-62507275D02*
X111695864Y-62459656D01*
X112505388Y-61840608D02*
X112743483Y-62507275D01*
X112981578Y-61840608D02*
X112743483Y-62507275D01*
X112743483Y-62507275D02*
X112648245Y-62745370D01*
X112648245Y-62745370D02*
X112600626Y-62792989D01*
X112600626Y-62792989D02*
X112505388Y-62840608D01*
X104553006Y-63593409D02*
X104695863Y-63641028D01*
X104695863Y-63641028D02*
X104743482Y-63688647D01*
X104743482Y-63688647D02*
X104791101Y-63783885D01*
X104791101Y-63783885D02*
X104791101Y-63926742D01*
X104791101Y-63926742D02*
X104743482Y-64021980D01*
X104743482Y-64021980D02*
X104695863Y-64069600D01*
X104695863Y-64069600D02*
X104600625Y-64117219D01*
X104600625Y-64117219D02*
X104219673Y-64117219D01*
X104219673Y-64117219D02*
X104219673Y-63117219D01*
X104219673Y-63117219D02*
X104553006Y-63117219D01*
X104553006Y-63117219D02*
X104648244Y-63164838D01*
X104648244Y-63164838D02*
X104695863Y-63212457D01*
X104695863Y-63212457D02*
X104743482Y-63307695D01*
X104743482Y-63307695D02*
X104743482Y-63402933D01*
X104743482Y-63402933D02*
X104695863Y-63498171D01*
X104695863Y-63498171D02*
X104648244Y-63545790D01*
X104648244Y-63545790D02*
X104553006Y-63593409D01*
X104553006Y-63593409D02*
X104219673Y-63593409D01*
X105219673Y-64117219D02*
X105219673Y-63450552D01*
X105219673Y-63117219D02*
X105172054Y-63164838D01*
X105172054Y-63164838D02*
X105219673Y-63212457D01*
X105219673Y-63212457D02*
X105267292Y-63164838D01*
X105267292Y-63164838D02*
X105219673Y-63117219D01*
X105219673Y-63117219D02*
X105219673Y-63212457D01*
X105838720Y-64117219D02*
X105743482Y-64069600D01*
X105743482Y-64069600D02*
X105695863Y-63974361D01*
X105695863Y-63974361D02*
X105695863Y-63117219D01*
X106648244Y-64117219D02*
X106648244Y-63593409D01*
X106648244Y-63593409D02*
X106600625Y-63498171D01*
X106600625Y-63498171D02*
X106505387Y-63450552D01*
X106505387Y-63450552D02*
X106314911Y-63450552D01*
X106314911Y-63450552D02*
X106219673Y-63498171D01*
X106648244Y-64069600D02*
X106553006Y-64117219D01*
X106553006Y-64117219D02*
X106314911Y-64117219D01*
X106314911Y-64117219D02*
X106219673Y-64069600D01*
X106219673Y-64069600D02*
X106172054Y-63974361D01*
X106172054Y-63974361D02*
X106172054Y-63879123D01*
X106172054Y-63879123D02*
X106219673Y-63783885D01*
X106219673Y-63783885D02*
X106314911Y-63736266D01*
X106314911Y-63736266D02*
X106553006Y-63736266D01*
X106553006Y-63736266D02*
X106648244Y-63688647D01*
X107267292Y-64117219D02*
X107172054Y-64069600D01*
X107172054Y-64069600D02*
X107124435Y-63974361D01*
X107124435Y-63974361D02*
X107124435Y-63117219D01*
X108600626Y-63641028D02*
X108600626Y-64117219D01*
X108267293Y-63117219D02*
X108600626Y-63641028D01*
X108600626Y-63641028D02*
X108933959Y-63117219D01*
X109457769Y-63117219D02*
X109648245Y-63117219D01*
X109648245Y-63117219D02*
X109743483Y-63164838D01*
X109743483Y-63164838D02*
X109838721Y-63260076D01*
X109838721Y-63260076D02*
X109886340Y-63450552D01*
X109886340Y-63450552D02*
X109886340Y-63783885D01*
X109886340Y-63783885D02*
X109838721Y-63974361D01*
X109838721Y-63974361D02*
X109743483Y-64069600D01*
X109743483Y-64069600D02*
X109648245Y-64117219D01*
X109648245Y-64117219D02*
X109457769Y-64117219D01*
X109457769Y-64117219D02*
X109362531Y-64069600D01*
X109362531Y-64069600D02*
X109267293Y-63974361D01*
X109267293Y-63974361D02*
X109219674Y-63783885D01*
X109219674Y-63783885D02*
X109219674Y-63450552D01*
X109219674Y-63450552D02*
X109267293Y-63260076D01*
X109267293Y-63260076D02*
X109362531Y-63164838D01*
X109362531Y-63164838D02*
X109457769Y-63117219D01*
X110314912Y-63117219D02*
X110314912Y-63926742D01*
X110314912Y-63926742D02*
X110362531Y-64021980D01*
X110362531Y-64021980D02*
X110410150Y-64069600D01*
X110410150Y-64069600D02*
X110505388Y-64117219D01*
X110505388Y-64117219D02*
X110695864Y-64117219D01*
X110695864Y-64117219D02*
X110791102Y-64069600D01*
X110791102Y-64069600D02*
X110838721Y-64021980D01*
X110838721Y-64021980D02*
X110886340Y-63926742D01*
X110886340Y-63926742D02*
X110886340Y-63117219D01*
X111314912Y-64069600D02*
X111457769Y-64117219D01*
X111457769Y-64117219D02*
X111695864Y-64117219D01*
X111695864Y-64117219D02*
X111791102Y-64069600D01*
X111791102Y-64069600D02*
X111838721Y-64021980D01*
X111838721Y-64021980D02*
X111886340Y-63926742D01*
X111886340Y-63926742D02*
X111886340Y-63831504D01*
X111886340Y-63831504D02*
X111838721Y-63736266D01*
X111838721Y-63736266D02*
X111791102Y-63688647D01*
X111791102Y-63688647D02*
X111695864Y-63641028D01*
X111695864Y-63641028D02*
X111505388Y-63593409D01*
X111505388Y-63593409D02*
X111410150Y-63545790D01*
X111410150Y-63545790D02*
X111362531Y-63498171D01*
X111362531Y-63498171D02*
X111314912Y-63402933D01*
X111314912Y-63402933D02*
X111314912Y-63307695D01*
X111314912Y-63307695D02*
X111362531Y-63212457D01*
X111362531Y-63212457D02*
X111410150Y-63164838D01*
X111410150Y-63164838D02*
X111505388Y-63117219D01*
X111505388Y-63117219D02*
X111743483Y-63117219D01*
X111743483Y-63117219D02*
X111886340Y-63164838D01*
X112648245Y-63593409D02*
X112314912Y-63593409D01*
X112314912Y-64117219D02*
X112314912Y-63117219D01*
X112314912Y-63117219D02*
X112791102Y-63117219D01*
X113172055Y-64117219D02*
X113172055Y-63117219D01*
D11*
X139949523Y-131454819D02*
X139473333Y-131454819D01*
X139473333Y-131454819D02*
X139425714Y-131931009D01*
X139425714Y-131931009D02*
X139473333Y-131883390D01*
X139473333Y-131883390D02*
X139568571Y-131835771D01*
X139568571Y-131835771D02*
X139806666Y-131835771D01*
X139806666Y-131835771D02*
X139901904Y-131883390D01*
X139901904Y-131883390D02*
X139949523Y-131931009D01*
X139949523Y-131931009D02*
X139997142Y-132026247D01*
X139997142Y-132026247D02*
X139997142Y-132264342D01*
X139997142Y-132264342D02*
X139949523Y-132359580D01*
X139949523Y-132359580D02*
X139901904Y-132407200D01*
X139901904Y-132407200D02*
X139806666Y-132454819D01*
X139806666Y-132454819D02*
X139568571Y-132454819D01*
X139568571Y-132454819D02*
X139473333Y-132407200D01*
X139473333Y-132407200D02*
X139425714Y-132359580D01*
X140282857Y-131454819D02*
X140616190Y-132454819D01*
X140616190Y-132454819D02*
X140949523Y-131454819D01*
X155929580Y-74242857D02*
X155977200Y-74290476D01*
X155977200Y-74290476D02*
X156024819Y-74433333D01*
X156024819Y-74433333D02*
X156024819Y-74528571D01*
X156024819Y-74528571D02*
X155977200Y-74671428D01*
X155977200Y-74671428D02*
X155881961Y-74766666D01*
X155881961Y-74766666D02*
X155786723Y-74814285D01*
X155786723Y-74814285D02*
X155596247Y-74861904D01*
X155596247Y-74861904D02*
X155453390Y-74861904D01*
X155453390Y-74861904D02*
X155262914Y-74814285D01*
X155262914Y-74814285D02*
X155167676Y-74766666D01*
X155167676Y-74766666D02*
X155072438Y-74671428D01*
X155072438Y-74671428D02*
X155024819Y-74528571D01*
X155024819Y-74528571D02*
X155024819Y-74433333D01*
X155024819Y-74433333D02*
X155072438Y-74290476D01*
X155072438Y-74290476D02*
X155120057Y-74242857D01*
X155120057Y-73861904D02*
X155072438Y-73814285D01*
X155072438Y-73814285D02*
X155024819Y-73719047D01*
X155024819Y-73719047D02*
X155024819Y-73480952D01*
X155024819Y-73480952D02*
X155072438Y-73385714D01*
X155072438Y-73385714D02*
X155120057Y-73338095D01*
X155120057Y-73338095D02*
X155215295Y-73290476D01*
X155215295Y-73290476D02*
X155310533Y-73290476D01*
X155310533Y-73290476D02*
X155453390Y-73338095D01*
X155453390Y-73338095D02*
X156024819Y-73909523D01*
X156024819Y-73909523D02*
X156024819Y-73290476D01*
X155358152Y-72433333D02*
X156024819Y-72433333D01*
X154977200Y-72671428D02*
X155691485Y-72909523D01*
X155691485Y-72909523D02*
X155691485Y-72290476D01*
X157861904Y-59231009D02*
X158195237Y-59231009D01*
X158338094Y-59754819D02*
X157861904Y-59754819D01*
X157861904Y-59754819D02*
X157861904Y-58754819D01*
X157861904Y-58754819D02*
X158338094Y-58754819D01*
X158766666Y-59088152D02*
X158766666Y-59754819D01*
X158766666Y-59183390D02*
X158814285Y-59135771D01*
X158814285Y-59135771D02*
X158909523Y-59088152D01*
X158909523Y-59088152D02*
X159052380Y-59088152D01*
X159052380Y-59088152D02*
X159147618Y-59135771D01*
X159147618Y-59135771D02*
X159195237Y-59231009D01*
X159195237Y-59231009D02*
X159195237Y-59754819D01*
X160099999Y-59707200D02*
X160004761Y-59754819D01*
X160004761Y-59754819D02*
X159814285Y-59754819D01*
X159814285Y-59754819D02*
X159719047Y-59707200D01*
X159719047Y-59707200D02*
X159671428Y-59659580D01*
X159671428Y-59659580D02*
X159623809Y-59564342D01*
X159623809Y-59564342D02*
X159623809Y-59278628D01*
X159623809Y-59278628D02*
X159671428Y-59183390D01*
X159671428Y-59183390D02*
X159719047Y-59135771D01*
X159719047Y-59135771D02*
X159814285Y-59088152D01*
X159814285Y-59088152D02*
X160004761Y-59088152D01*
X160004761Y-59088152D02*
X160099999Y-59135771D01*
X160671428Y-59754819D02*
X160576190Y-59707200D01*
X160576190Y-59707200D02*
X160528571Y-59659580D01*
X160528571Y-59659580D02*
X160480952Y-59564342D01*
X160480952Y-59564342D02*
X160480952Y-59278628D01*
X160480952Y-59278628D02*
X160528571Y-59183390D01*
X160528571Y-59183390D02*
X160576190Y-59135771D01*
X160576190Y-59135771D02*
X160671428Y-59088152D01*
X160671428Y-59088152D02*
X160814285Y-59088152D01*
X160814285Y-59088152D02*
X160909523Y-59135771D01*
X160909523Y-59135771D02*
X160957142Y-59183390D01*
X160957142Y-59183390D02*
X161004761Y-59278628D01*
X161004761Y-59278628D02*
X161004761Y-59564342D01*
X161004761Y-59564342D02*
X160957142Y-59659580D01*
X160957142Y-59659580D02*
X160909523Y-59707200D01*
X160909523Y-59707200D02*
X160814285Y-59754819D01*
X160814285Y-59754819D02*
X160671428Y-59754819D01*
X161861904Y-59754819D02*
X161861904Y-58754819D01*
X161861904Y-59707200D02*
X161766666Y-59754819D01*
X161766666Y-59754819D02*
X161576190Y-59754819D01*
X161576190Y-59754819D02*
X161480952Y-59707200D01*
X161480952Y-59707200D02*
X161433333Y-59659580D01*
X161433333Y-59659580D02*
X161385714Y-59564342D01*
X161385714Y-59564342D02*
X161385714Y-59278628D01*
X161385714Y-59278628D02*
X161433333Y-59183390D01*
X161433333Y-59183390D02*
X161480952Y-59135771D01*
X161480952Y-59135771D02*
X161576190Y-59088152D01*
X161576190Y-59088152D02*
X161766666Y-59088152D01*
X161766666Y-59088152D02*
X161861904Y-59135771D01*
X162719047Y-59707200D02*
X162623809Y-59754819D01*
X162623809Y-59754819D02*
X162433333Y-59754819D01*
X162433333Y-59754819D02*
X162338095Y-59707200D01*
X162338095Y-59707200D02*
X162290476Y-59611961D01*
X162290476Y-59611961D02*
X162290476Y-59231009D01*
X162290476Y-59231009D02*
X162338095Y-59135771D01*
X162338095Y-59135771D02*
X162433333Y-59088152D01*
X162433333Y-59088152D02*
X162623809Y-59088152D01*
X162623809Y-59088152D02*
X162719047Y-59135771D01*
X162719047Y-59135771D02*
X162766666Y-59231009D01*
X162766666Y-59231009D02*
X162766666Y-59326247D01*
X162766666Y-59326247D02*
X162290476Y-59421485D01*
X163195238Y-59754819D02*
X163195238Y-59088152D01*
X163195238Y-59278628D02*
X163242857Y-59183390D01*
X163242857Y-59183390D02*
X163290476Y-59135771D01*
X163290476Y-59135771D02*
X163385714Y-59088152D01*
X163385714Y-59088152D02*
X163480952Y-59088152D01*
X127461905Y-120954819D02*
X128080952Y-120954819D01*
X128080952Y-120954819D02*
X127747619Y-121335771D01*
X127747619Y-121335771D02*
X127890476Y-121335771D01*
X127890476Y-121335771D02*
X127985714Y-121383390D01*
X127985714Y-121383390D02*
X128033333Y-121431009D01*
X128033333Y-121431009D02*
X128080952Y-121526247D01*
X128080952Y-121526247D02*
X128080952Y-121764342D01*
X128080952Y-121764342D02*
X128033333Y-121859580D01*
X128033333Y-121859580D02*
X127985714Y-121907200D01*
X127985714Y-121907200D02*
X127890476Y-121954819D01*
X127890476Y-121954819D02*
X127604762Y-121954819D01*
X127604762Y-121954819D02*
X127509524Y-121907200D01*
X127509524Y-121907200D02*
X127461905Y-121859580D01*
X128366667Y-120954819D02*
X128700000Y-121954819D01*
X128700000Y-121954819D02*
X129033333Y-120954819D01*
X129271429Y-120954819D02*
X129890476Y-120954819D01*
X129890476Y-120954819D02*
X129557143Y-121335771D01*
X129557143Y-121335771D02*
X129700000Y-121335771D01*
X129700000Y-121335771D02*
X129795238Y-121383390D01*
X129795238Y-121383390D02*
X129842857Y-121431009D01*
X129842857Y-121431009D02*
X129890476Y-121526247D01*
X129890476Y-121526247D02*
X129890476Y-121764342D01*
X129890476Y-121764342D02*
X129842857Y-121859580D01*
X129842857Y-121859580D02*
X129795238Y-121907200D01*
X129795238Y-121907200D02*
X129700000Y-121954819D01*
X129700000Y-121954819D02*
X129414286Y-121954819D01*
X129414286Y-121954819D02*
X129319048Y-121907200D01*
X129319048Y-121907200D02*
X129271429Y-121859580D01*
X151769524Y-131524819D02*
X152388571Y-131524819D01*
X152388571Y-131524819D02*
X152055238Y-131905771D01*
X152055238Y-131905771D02*
X152198095Y-131905771D01*
X152198095Y-131905771D02*
X152293333Y-131953390D01*
X152293333Y-131953390D02*
X152340952Y-132001009D01*
X152340952Y-132001009D02*
X152388571Y-132096247D01*
X152388571Y-132096247D02*
X152388571Y-132334342D01*
X152388571Y-132334342D02*
X152340952Y-132429580D01*
X152340952Y-132429580D02*
X152293333Y-132477200D01*
X152293333Y-132477200D02*
X152198095Y-132524819D01*
X152198095Y-132524819D02*
X151912381Y-132524819D01*
X151912381Y-132524819D02*
X151817143Y-132477200D01*
X151817143Y-132477200D02*
X151769524Y-132429580D01*
X152721905Y-131858152D02*
X152960000Y-132524819D01*
X152960000Y-132524819D02*
X153198095Y-131858152D01*
X153483810Y-131524819D02*
X154102857Y-131524819D01*
X154102857Y-131524819D02*
X153769524Y-131905771D01*
X153769524Y-131905771D02*
X153912381Y-131905771D01*
X153912381Y-131905771D02*
X154007619Y-131953390D01*
X154007619Y-131953390D02*
X154055238Y-132001009D01*
X154055238Y-132001009D02*
X154102857Y-132096247D01*
X154102857Y-132096247D02*
X154102857Y-132334342D01*
X154102857Y-132334342D02*
X154055238Y-132429580D01*
X154055238Y-132429580D02*
X154007619Y-132477200D01*
X154007619Y-132477200D02*
X153912381Y-132524819D01*
X153912381Y-132524819D02*
X153626667Y-132524819D01*
X153626667Y-132524819D02*
X153531429Y-132477200D01*
X153531429Y-132477200D02*
X153483810Y-132429580D01*
X104999999Y-130714819D02*
X104523809Y-130714819D01*
X104523809Y-130714819D02*
X104523809Y-129714819D01*
X105333333Y-130191009D02*
X105666666Y-130191009D01*
X105809523Y-130714819D02*
X105333333Y-130714819D01*
X105333333Y-130714819D02*
X105333333Y-129714819D01*
X105333333Y-129714819D02*
X105809523Y-129714819D01*
X106238095Y-130714819D02*
X106238095Y-129714819D01*
X106238095Y-129714819D02*
X106476190Y-129714819D01*
X106476190Y-129714819D02*
X106619047Y-129762438D01*
X106619047Y-129762438D02*
X106714285Y-129857676D01*
X106714285Y-129857676D02*
X106761904Y-129952914D01*
X106761904Y-129952914D02*
X106809523Y-130143390D01*
X106809523Y-130143390D02*
X106809523Y-130286247D01*
X106809523Y-130286247D02*
X106761904Y-130476723D01*
X106761904Y-130476723D02*
X106714285Y-130571961D01*
X106714285Y-130571961D02*
X106619047Y-130667200D01*
X106619047Y-130667200D02*
X106476190Y-130714819D01*
X106476190Y-130714819D02*
X106238095Y-130714819D01*
X107952381Y-129810057D02*
X108000000Y-129762438D01*
X108000000Y-129762438D02*
X108095238Y-129714819D01*
X108095238Y-129714819D02*
X108333333Y-129714819D01*
X108333333Y-129714819D02*
X108428571Y-129762438D01*
X108428571Y-129762438D02*
X108476190Y-129810057D01*
X108476190Y-129810057D02*
X108523809Y-129905295D01*
X108523809Y-129905295D02*
X108523809Y-130000533D01*
X108523809Y-130000533D02*
X108476190Y-130143390D01*
X108476190Y-130143390D02*
X107904762Y-130714819D01*
X107904762Y-130714819D02*
X108523809Y-130714819D01*
X123338095Y-117454819D02*
X123338095Y-118264342D01*
X123338095Y-118264342D02*
X123385714Y-118359580D01*
X123385714Y-118359580D02*
X123433333Y-118407200D01*
X123433333Y-118407200D02*
X123528571Y-118454819D01*
X123528571Y-118454819D02*
X123719047Y-118454819D01*
X123719047Y-118454819D02*
X123814285Y-118407200D01*
X123814285Y-118407200D02*
X123861904Y-118359580D01*
X123861904Y-118359580D02*
X123909523Y-118264342D01*
X123909523Y-118264342D02*
X123909523Y-117454819D01*
X124909523Y-118454819D02*
X124338095Y-118454819D01*
X124623809Y-118454819D02*
X124623809Y-117454819D01*
X124623809Y-117454819D02*
X124528571Y-117597676D01*
X124528571Y-117597676D02*
X124433333Y-117692914D01*
X124433333Y-117692914D02*
X124338095Y-117740533D01*
D10*
X139266666Y-69609638D02*
X140000000Y-71609638D01*
X140000000Y-71609638D02*
X140733333Y-69609638D01*
D12*
X104090476Y-100207361D02*
X104090476Y-98007361D01*
X104090476Y-98007361D02*
X104566666Y-98007361D01*
X104566666Y-98007361D02*
X104852381Y-98112123D01*
X104852381Y-98112123D02*
X105042857Y-98321647D01*
X105042857Y-98321647D02*
X105138095Y-98531171D01*
X105138095Y-98531171D02*
X105233333Y-98950219D01*
X105233333Y-98950219D02*
X105233333Y-99264504D01*
X105233333Y-99264504D02*
X105138095Y-99683552D01*
X105138095Y-99683552D02*
X105042857Y-99893076D01*
X105042857Y-99893076D02*
X104852381Y-100102600D01*
X104852381Y-100102600D02*
X104566666Y-100207361D01*
X104566666Y-100207361D02*
X104090476Y-100207361D01*
X107233333Y-99997838D02*
X107138095Y-100102600D01*
X107138095Y-100102600D02*
X106852381Y-100207361D01*
X106852381Y-100207361D02*
X106661905Y-100207361D01*
X106661905Y-100207361D02*
X106376190Y-100102600D01*
X106376190Y-100102600D02*
X106185714Y-99893076D01*
X106185714Y-99893076D02*
X106090476Y-99683552D01*
X106090476Y-99683552D02*
X105995238Y-99264504D01*
X105995238Y-99264504D02*
X105995238Y-98950219D01*
X105995238Y-98950219D02*
X106090476Y-98531171D01*
X106090476Y-98531171D02*
X106185714Y-98321647D01*
X106185714Y-98321647D02*
X106376190Y-98112123D01*
X106376190Y-98112123D02*
X106661905Y-98007361D01*
X106661905Y-98007361D02*
X106852381Y-98007361D01*
X106852381Y-98007361D02*
X107138095Y-98112123D01*
X107138095Y-98112123D02*
X107233333Y-98216885D01*
X109614286Y-100207361D02*
X109614286Y-98007361D01*
X110566667Y-100207361D02*
X110566667Y-98007361D01*
X110566667Y-98007361D02*
X111709524Y-100207361D01*
X111709524Y-100207361D02*
X111709524Y-98007361D01*
D11*
X118764700Y-93871428D02*
X118764700Y-92728571D01*
X119336128Y-93299999D02*
X118193271Y-93299999D01*
X118764700Y-106171428D02*
X118764700Y-105028571D01*
X111159580Y-80166666D02*
X111207200Y-80214285D01*
X111207200Y-80214285D02*
X111254819Y-80357142D01*
X111254819Y-80357142D02*
X111254819Y-80452380D01*
X111254819Y-80452380D02*
X111207200Y-80595237D01*
X111207200Y-80595237D02*
X111111961Y-80690475D01*
X111111961Y-80690475D02*
X111016723Y-80738094D01*
X111016723Y-80738094D02*
X110826247Y-80785713D01*
X110826247Y-80785713D02*
X110683390Y-80785713D01*
X110683390Y-80785713D02*
X110492914Y-80738094D01*
X110492914Y-80738094D02*
X110397676Y-80690475D01*
X110397676Y-80690475D02*
X110302438Y-80595237D01*
X110302438Y-80595237D02*
X110254819Y-80452380D01*
X110254819Y-80452380D02*
X110254819Y-80357142D01*
X110254819Y-80357142D02*
X110302438Y-80214285D01*
X110302438Y-80214285D02*
X110350057Y-80166666D01*
X110350057Y-79785713D02*
X110302438Y-79738094D01*
X110302438Y-79738094D02*
X110254819Y-79642856D01*
X110254819Y-79642856D02*
X110254819Y-79404761D01*
X110254819Y-79404761D02*
X110302438Y-79309523D01*
X110302438Y-79309523D02*
X110350057Y-79261904D01*
X110350057Y-79261904D02*
X110445295Y-79214285D01*
X110445295Y-79214285D02*
X110540533Y-79214285D01*
X110540533Y-79214285D02*
X110683390Y-79261904D01*
X110683390Y-79261904D02*
X111254819Y-79833332D01*
X111254819Y-79833332D02*
X111254819Y-79214285D01*
X161647618Y-120854819D02*
X161076190Y-120854819D01*
X161361904Y-120854819D02*
X161361904Y-119854819D01*
X161361904Y-119854819D02*
X161266666Y-119997676D01*
X161266666Y-119997676D02*
X161171428Y-120092914D01*
X161171428Y-120092914D02*
X161076190Y-120140533D01*
X163552381Y-119950057D02*
X163600000Y-119902438D01*
X163600000Y-119902438D02*
X163695238Y-119854819D01*
X163695238Y-119854819D02*
X163933333Y-119854819D01*
X163933333Y-119854819D02*
X164028571Y-119902438D01*
X164028571Y-119902438D02*
X164076190Y-119950057D01*
X164076190Y-119950057D02*
X164123809Y-120045295D01*
X164123809Y-120045295D02*
X164123809Y-120140533D01*
X164123809Y-120140533D02*
X164076190Y-120283390D01*
X164076190Y-120283390D02*
X163504762Y-120854819D01*
X163504762Y-120854819D02*
X164123809Y-120854819D01*
D13*
X171260714Y-83157419D02*
X171260714Y-83966942D01*
X171260714Y-83966942D02*
X171308333Y-84062180D01*
X171308333Y-84062180D02*
X171355952Y-84109800D01*
X171355952Y-84109800D02*
X171451190Y-84157419D01*
X171451190Y-84157419D02*
X171641666Y-84157419D01*
X171641666Y-84157419D02*
X171736904Y-84109800D01*
X171736904Y-84109800D02*
X171784523Y-84062180D01*
X171784523Y-84062180D02*
X171832142Y-83966942D01*
X171832142Y-83966942D02*
X171832142Y-83157419D01*
X172260714Y-84109800D02*
X172403571Y-84157419D01*
X172403571Y-84157419D02*
X172641666Y-84157419D01*
X172641666Y-84157419D02*
X172736904Y-84109800D01*
X172736904Y-84109800D02*
X172784523Y-84062180D01*
X172784523Y-84062180D02*
X172832142Y-83966942D01*
X172832142Y-83966942D02*
X172832142Y-83871704D01*
X172832142Y-83871704D02*
X172784523Y-83776466D01*
X172784523Y-83776466D02*
X172736904Y-83728847D01*
X172736904Y-83728847D02*
X172641666Y-83681228D01*
X172641666Y-83681228D02*
X172451190Y-83633609D01*
X172451190Y-83633609D02*
X172355952Y-83585990D01*
X172355952Y-83585990D02*
X172308333Y-83538371D01*
X172308333Y-83538371D02*
X172260714Y-83443133D01*
X172260714Y-83443133D02*
X172260714Y-83347895D01*
X172260714Y-83347895D02*
X172308333Y-83252657D01*
X172308333Y-83252657D02*
X172355952Y-83205038D01*
X172355952Y-83205038D02*
X172451190Y-83157419D01*
X172451190Y-83157419D02*
X172689285Y-83157419D01*
X172689285Y-83157419D02*
X172832142Y-83205038D01*
X173260714Y-83633609D02*
X173594047Y-83633609D01*
X173736904Y-84157419D02*
X173260714Y-84157419D01*
X173260714Y-84157419D02*
X173260714Y-83157419D01*
X173260714Y-83157419D02*
X173736904Y-83157419D01*
X174736904Y-84157419D02*
X174403571Y-83681228D01*
X174165476Y-84157419D02*
X174165476Y-83157419D01*
X174165476Y-83157419D02*
X174546428Y-83157419D01*
X174546428Y-83157419D02*
X174641666Y-83205038D01*
X174641666Y-83205038D02*
X174689285Y-83252657D01*
X174689285Y-83252657D02*
X174736904Y-83347895D01*
X174736904Y-83347895D02*
X174736904Y-83490752D01*
X174736904Y-83490752D02*
X174689285Y-83585990D01*
X174689285Y-83585990D02*
X174641666Y-83633609D01*
X174641666Y-83633609D02*
X174546428Y-83681228D01*
X174546428Y-83681228D02*
X174165476Y-83681228D01*
D11*
X103804819Y-119445238D02*
X103328628Y-119778571D01*
X103804819Y-120016666D02*
X102804819Y-120016666D01*
X102804819Y-120016666D02*
X102804819Y-119635714D01*
X102804819Y-119635714D02*
X102852438Y-119540476D01*
X102852438Y-119540476D02*
X102900057Y-119492857D01*
X102900057Y-119492857D02*
X102995295Y-119445238D01*
X102995295Y-119445238D02*
X103138152Y-119445238D01*
X103138152Y-119445238D02*
X103233390Y-119492857D01*
X103233390Y-119492857D02*
X103281009Y-119540476D01*
X103281009Y-119540476D02*
X103328628Y-119635714D01*
X103328628Y-119635714D02*
X103328628Y-120016666D01*
X103757200Y-119064285D02*
X103804819Y-118921428D01*
X103804819Y-118921428D02*
X103804819Y-118683333D01*
X103804819Y-118683333D02*
X103757200Y-118588095D01*
X103757200Y-118588095D02*
X103709580Y-118540476D01*
X103709580Y-118540476D02*
X103614342Y-118492857D01*
X103614342Y-118492857D02*
X103519104Y-118492857D01*
X103519104Y-118492857D02*
X103423866Y-118540476D01*
X103423866Y-118540476D02*
X103376247Y-118588095D01*
X103376247Y-118588095D02*
X103328628Y-118683333D01*
X103328628Y-118683333D02*
X103281009Y-118873809D01*
X103281009Y-118873809D02*
X103233390Y-118969047D01*
X103233390Y-118969047D02*
X103185771Y-119016666D01*
X103185771Y-119016666D02*
X103090533Y-119064285D01*
X103090533Y-119064285D02*
X102995295Y-119064285D01*
X102995295Y-119064285D02*
X102900057Y-119016666D01*
X102900057Y-119016666D02*
X102852438Y-118969047D01*
X102852438Y-118969047D02*
X102804819Y-118873809D01*
X102804819Y-118873809D02*
X102804819Y-118635714D01*
X102804819Y-118635714D02*
X102852438Y-118492857D01*
X103138152Y-117635714D02*
X103804819Y-117635714D01*
X102757200Y-117873809D02*
X103471485Y-118111904D01*
X103471485Y-118111904D02*
X103471485Y-117492857D01*
X103233390Y-116969047D02*
X103185771Y-117064285D01*
X103185771Y-117064285D02*
X103138152Y-117111904D01*
X103138152Y-117111904D02*
X103042914Y-117159523D01*
X103042914Y-117159523D02*
X102995295Y-117159523D01*
X102995295Y-117159523D02*
X102900057Y-117111904D01*
X102900057Y-117111904D02*
X102852438Y-117064285D01*
X102852438Y-117064285D02*
X102804819Y-116969047D01*
X102804819Y-116969047D02*
X102804819Y-116778571D01*
X102804819Y-116778571D02*
X102852438Y-116683333D01*
X102852438Y-116683333D02*
X102900057Y-116635714D01*
X102900057Y-116635714D02*
X102995295Y-116588095D01*
X102995295Y-116588095D02*
X103042914Y-116588095D01*
X103042914Y-116588095D02*
X103138152Y-116635714D01*
X103138152Y-116635714D02*
X103185771Y-116683333D01*
X103185771Y-116683333D02*
X103233390Y-116778571D01*
X103233390Y-116778571D02*
X103233390Y-116969047D01*
X103233390Y-116969047D02*
X103281009Y-117064285D01*
X103281009Y-117064285D02*
X103328628Y-117111904D01*
X103328628Y-117111904D02*
X103423866Y-117159523D01*
X103423866Y-117159523D02*
X103614342Y-117159523D01*
X103614342Y-117159523D02*
X103709580Y-117111904D01*
X103709580Y-117111904D02*
X103757200Y-117064285D01*
X103757200Y-117064285D02*
X103804819Y-116969047D01*
X103804819Y-116969047D02*
X103804819Y-116778571D01*
X103804819Y-116778571D02*
X103757200Y-116683333D01*
X103757200Y-116683333D02*
X103709580Y-116635714D01*
X103709580Y-116635714D02*
X103614342Y-116588095D01*
X103614342Y-116588095D02*
X103423866Y-116588095D01*
X103423866Y-116588095D02*
X103328628Y-116635714D01*
X103328628Y-116635714D02*
X103281009Y-116683333D01*
X103281009Y-116683333D02*
X103233390Y-116778571D01*
X102804819Y-115683333D02*
X102804819Y-116159523D01*
X102804819Y-116159523D02*
X103281009Y-116207142D01*
X103281009Y-116207142D02*
X103233390Y-116159523D01*
X103233390Y-116159523D02*
X103185771Y-116064285D01*
X103185771Y-116064285D02*
X103185771Y-115826190D01*
X103185771Y-115826190D02*
X103233390Y-115730952D01*
X103233390Y-115730952D02*
X103281009Y-115683333D01*
X103281009Y-115683333D02*
X103376247Y-115635714D01*
X103376247Y-115635714D02*
X103614342Y-115635714D01*
X103614342Y-115635714D02*
X103709580Y-115683333D01*
X103709580Y-115683333D02*
X103757200Y-115730952D01*
X103757200Y-115730952D02*
X103804819Y-115826190D01*
X103804819Y-115826190D02*
X103804819Y-116064285D01*
X103804819Y-116064285D02*
X103757200Y-116159523D01*
X103757200Y-116159523D02*
X103709580Y-116207142D01*
X104999999Y-126524819D02*
X104523809Y-126524819D01*
X104523809Y-126524819D02*
X104523809Y-125524819D01*
X105333333Y-126001009D02*
X105666666Y-126001009D01*
X105809523Y-126524819D02*
X105333333Y-126524819D01*
X105333333Y-126524819D02*
X105333333Y-125524819D01*
X105333333Y-125524819D02*
X105809523Y-125524819D01*
X106238095Y-126524819D02*
X106238095Y-125524819D01*
X106238095Y-125524819D02*
X106476190Y-125524819D01*
X106476190Y-125524819D02*
X106619047Y-125572438D01*
X106619047Y-125572438D02*
X106714285Y-125667676D01*
X106714285Y-125667676D02*
X106761904Y-125762914D01*
X106761904Y-125762914D02*
X106809523Y-125953390D01*
X106809523Y-125953390D02*
X106809523Y-126096247D01*
X106809523Y-126096247D02*
X106761904Y-126286723D01*
X106761904Y-126286723D02*
X106714285Y-126381961D01*
X106714285Y-126381961D02*
X106619047Y-126477200D01*
X106619047Y-126477200D02*
X106476190Y-126524819D01*
X106476190Y-126524819D02*
X106238095Y-126524819D01*
X108523809Y-126524819D02*
X107952381Y-126524819D01*
X108238095Y-126524819D02*
X108238095Y-125524819D01*
X108238095Y-125524819D02*
X108142857Y-125667676D01*
X108142857Y-125667676D02*
X108047619Y-125762914D01*
X108047619Y-125762914D02*
X107952381Y-125810533D01*
D13*
X170927381Y-120590752D02*
X170927381Y-121257419D01*
X170927381Y-120685990D02*
X170975000Y-120638371D01*
X170975000Y-120638371D02*
X171070238Y-120590752D01*
X171070238Y-120590752D02*
X171213095Y-120590752D01*
X171213095Y-120590752D02*
X171308333Y-120638371D01*
X171308333Y-120638371D02*
X171355952Y-120733609D01*
X171355952Y-120733609D02*
X171355952Y-121257419D01*
X172403571Y-121257419D02*
X172070238Y-120781228D01*
X171832143Y-121257419D02*
X171832143Y-120257419D01*
X171832143Y-120257419D02*
X172213095Y-120257419D01*
X172213095Y-120257419D02*
X172308333Y-120305038D01*
X172308333Y-120305038D02*
X172355952Y-120352657D01*
X172355952Y-120352657D02*
X172403571Y-120447895D01*
X172403571Y-120447895D02*
X172403571Y-120590752D01*
X172403571Y-120590752D02*
X172355952Y-120685990D01*
X172355952Y-120685990D02*
X172308333Y-120733609D01*
X172308333Y-120733609D02*
X172213095Y-120781228D01*
X172213095Y-120781228D02*
X171832143Y-120781228D01*
X172784524Y-121209800D02*
X172927381Y-121257419D01*
X172927381Y-121257419D02*
X173165476Y-121257419D01*
X173165476Y-121257419D02*
X173260714Y-121209800D01*
X173260714Y-121209800D02*
X173308333Y-121162180D01*
X173308333Y-121162180D02*
X173355952Y-121066942D01*
X173355952Y-121066942D02*
X173355952Y-120971704D01*
X173355952Y-120971704D02*
X173308333Y-120876466D01*
X173308333Y-120876466D02*
X173260714Y-120828847D01*
X173260714Y-120828847D02*
X173165476Y-120781228D01*
X173165476Y-120781228D02*
X172975000Y-120733609D01*
X172975000Y-120733609D02*
X172879762Y-120685990D01*
X172879762Y-120685990D02*
X172832143Y-120638371D01*
X172832143Y-120638371D02*
X172784524Y-120543133D01*
X172784524Y-120543133D02*
X172784524Y-120447895D01*
X172784524Y-120447895D02*
X172832143Y-120352657D01*
X172832143Y-120352657D02*
X172879762Y-120305038D01*
X172879762Y-120305038D02*
X172975000Y-120257419D01*
X172975000Y-120257419D02*
X173213095Y-120257419D01*
X173213095Y-120257419D02*
X173355952Y-120305038D01*
X173641667Y-120257419D02*
X174213095Y-120257419D01*
X173927381Y-121257419D02*
X173927381Y-120257419D01*
X175070238Y-121257419D02*
X174498810Y-121257419D01*
X174784524Y-121257419D02*
X174784524Y-120257419D01*
X174784524Y-120257419D02*
X174689286Y-120400276D01*
X174689286Y-120400276D02*
X174594048Y-120495514D01*
X174594048Y-120495514D02*
X174498810Y-120543133D01*
D11*
X140499819Y-128466666D02*
X141214104Y-128466666D01*
X141214104Y-128466666D02*
X141356961Y-128514285D01*
X141356961Y-128514285D02*
X141452200Y-128609523D01*
X141452200Y-128609523D02*
X141499819Y-128752380D01*
X141499819Y-128752380D02*
X141499819Y-128847618D01*
X140499819Y-128133332D02*
X140499819Y-127561904D01*
X141499819Y-127847618D02*
X140499819Y-127847618D01*
X141214104Y-127276189D02*
X141214104Y-126799999D01*
X141499819Y-127371427D02*
X140499819Y-127038094D01*
X140499819Y-127038094D02*
X141499819Y-126704761D01*
X140547438Y-125847618D02*
X140499819Y-125942856D01*
X140499819Y-125942856D02*
X140499819Y-126085713D01*
X140499819Y-126085713D02*
X140547438Y-126228570D01*
X140547438Y-126228570D02*
X140642676Y-126323808D01*
X140642676Y-126323808D02*
X140737914Y-126371427D01*
X140737914Y-126371427D02*
X140928390Y-126419046D01*
X140928390Y-126419046D02*
X141071247Y-126419046D01*
X141071247Y-126419046D02*
X141261723Y-126371427D01*
X141261723Y-126371427D02*
X141356961Y-126323808D01*
X141356961Y-126323808D02*
X141452200Y-126228570D01*
X141452200Y-126228570D02*
X141499819Y-126085713D01*
X141499819Y-126085713D02*
X141499819Y-125990475D01*
X141499819Y-125990475D02*
X141452200Y-125847618D01*
X141452200Y-125847618D02*
X141404580Y-125799999D01*
X141404580Y-125799999D02*
X141071247Y-125799999D01*
X141071247Y-125799999D02*
X141071247Y-125990475D01*
X129302438Y-107094166D02*
X129254819Y-107189404D01*
X129254819Y-107189404D02*
X129254819Y-107332261D01*
X129254819Y-107332261D02*
X129302438Y-107475118D01*
X129302438Y-107475118D02*
X129397676Y-107570356D01*
X129397676Y-107570356D02*
X129492914Y-107617975D01*
X129492914Y-107617975D02*
X129683390Y-107665594D01*
X129683390Y-107665594D02*
X129826247Y-107665594D01*
X129826247Y-107665594D02*
X130016723Y-107617975D01*
X130016723Y-107617975D02*
X130111961Y-107570356D01*
X130111961Y-107570356D02*
X130207200Y-107475118D01*
X130207200Y-107475118D02*
X130254819Y-107332261D01*
X130254819Y-107332261D02*
X130254819Y-107237023D01*
X130254819Y-107237023D02*
X130207200Y-107094166D01*
X130207200Y-107094166D02*
X130159580Y-107046547D01*
X130159580Y-107046547D02*
X129826247Y-107046547D01*
X129826247Y-107046547D02*
X129826247Y-107237023D01*
X129969104Y-106665594D02*
X129969104Y-106189404D01*
X130254819Y-106760832D02*
X129254819Y-106427499D01*
X129254819Y-106427499D02*
X130254819Y-106094166D01*
X129254819Y-105903689D02*
X129254819Y-105332261D01*
X130254819Y-105617975D02*
X129254819Y-105617975D01*
X129731009Y-104998927D02*
X129731009Y-104665594D01*
X130254819Y-104522737D02*
X130254819Y-104998927D01*
X130254819Y-104998927D02*
X129254819Y-104998927D01*
X129254819Y-104998927D02*
X129254819Y-104522737D01*
X130254819Y-103332260D02*
X129254819Y-103332260D01*
X129731009Y-103332260D02*
X129731009Y-102760832D01*
X130254819Y-102760832D02*
X129254819Y-102760832D01*
X130254819Y-102284641D02*
X129254819Y-102284641D01*
X129302438Y-101284642D02*
X129254819Y-101379880D01*
X129254819Y-101379880D02*
X129254819Y-101522737D01*
X129254819Y-101522737D02*
X129302438Y-101665594D01*
X129302438Y-101665594D02*
X129397676Y-101760832D01*
X129397676Y-101760832D02*
X129492914Y-101808451D01*
X129492914Y-101808451D02*
X129683390Y-101856070D01*
X129683390Y-101856070D02*
X129826247Y-101856070D01*
X129826247Y-101856070D02*
X130016723Y-101808451D01*
X130016723Y-101808451D02*
X130111961Y-101760832D01*
X130111961Y-101760832D02*
X130207200Y-101665594D01*
X130207200Y-101665594D02*
X130254819Y-101522737D01*
X130254819Y-101522737D02*
X130254819Y-101427499D01*
X130254819Y-101427499D02*
X130207200Y-101284642D01*
X130207200Y-101284642D02*
X130159580Y-101237023D01*
X130159580Y-101237023D02*
X129826247Y-101237023D01*
X129826247Y-101237023D02*
X129826247Y-101427499D01*
X130254819Y-100808451D02*
X129254819Y-100808451D01*
X129731009Y-100808451D02*
X129731009Y-100237023D01*
X130254819Y-100237023D02*
X129254819Y-100237023D01*
X174985714Y-93254819D02*
X174509524Y-93254819D01*
X174509524Y-93254819D02*
X174509524Y-92254819D01*
X175271429Y-93207200D02*
X175414286Y-93254819D01*
X175414286Y-93254819D02*
X175652381Y-93254819D01*
X175652381Y-93254819D02*
X175747619Y-93207200D01*
X175747619Y-93207200D02*
X175795238Y-93159580D01*
X175795238Y-93159580D02*
X175842857Y-93064342D01*
X175842857Y-93064342D02*
X175842857Y-92969104D01*
X175842857Y-92969104D02*
X175795238Y-92873866D01*
X175795238Y-92873866D02*
X175747619Y-92826247D01*
X175747619Y-92826247D02*
X175652381Y-92778628D01*
X175652381Y-92778628D02*
X175461905Y-92731009D01*
X175461905Y-92731009D02*
X175366667Y-92683390D01*
X175366667Y-92683390D02*
X175319048Y-92635771D01*
X175319048Y-92635771D02*
X175271429Y-92540533D01*
X175271429Y-92540533D02*
X175271429Y-92445295D01*
X175271429Y-92445295D02*
X175319048Y-92350057D01*
X175319048Y-92350057D02*
X175366667Y-92302438D01*
X175366667Y-92302438D02*
X175461905Y-92254819D01*
X175461905Y-92254819D02*
X175700000Y-92254819D01*
X175700000Y-92254819D02*
X175842857Y-92302438D01*
X176176191Y-92254819D02*
X176414286Y-93254819D01*
X176414286Y-93254819D02*
X176604762Y-92540533D01*
X176604762Y-92540533D02*
X176795238Y-93254819D01*
X176795238Y-93254819D02*
X177033334Y-92254819D01*
X177938095Y-93254819D02*
X177366667Y-93254819D01*
X177652381Y-93254819D02*
X177652381Y-92254819D01*
X177652381Y-92254819D02*
X177557143Y-92397676D01*
X177557143Y-92397676D02*
X177461905Y-92492914D01*
X177461905Y-92492914D02*
X177366667Y-92540533D01*
X174985714Y-94754819D02*
X174509524Y-94754819D01*
X174509524Y-94754819D02*
X174509524Y-93754819D01*
X175271429Y-94707200D02*
X175414286Y-94754819D01*
X175414286Y-94754819D02*
X175652381Y-94754819D01*
X175652381Y-94754819D02*
X175747619Y-94707200D01*
X175747619Y-94707200D02*
X175795238Y-94659580D01*
X175795238Y-94659580D02*
X175842857Y-94564342D01*
X175842857Y-94564342D02*
X175842857Y-94469104D01*
X175842857Y-94469104D02*
X175795238Y-94373866D01*
X175795238Y-94373866D02*
X175747619Y-94326247D01*
X175747619Y-94326247D02*
X175652381Y-94278628D01*
X175652381Y-94278628D02*
X175461905Y-94231009D01*
X175461905Y-94231009D02*
X175366667Y-94183390D01*
X175366667Y-94183390D02*
X175319048Y-94135771D01*
X175319048Y-94135771D02*
X175271429Y-94040533D01*
X175271429Y-94040533D02*
X175271429Y-93945295D01*
X175271429Y-93945295D02*
X175319048Y-93850057D01*
X175319048Y-93850057D02*
X175366667Y-93802438D01*
X175366667Y-93802438D02*
X175461905Y-93754819D01*
X175461905Y-93754819D02*
X175700000Y-93754819D01*
X175700000Y-93754819D02*
X175842857Y-93802438D01*
X176176191Y-93754819D02*
X176414286Y-94754819D01*
X176414286Y-94754819D02*
X176604762Y-94040533D01*
X176604762Y-94040533D02*
X176795238Y-94754819D01*
X176795238Y-94754819D02*
X177033334Y-93754819D01*
X177366667Y-93850057D02*
X177414286Y-93802438D01*
X177414286Y-93802438D02*
X177509524Y-93754819D01*
X177509524Y-93754819D02*
X177747619Y-93754819D01*
X177747619Y-93754819D02*
X177842857Y-93802438D01*
X177842857Y-93802438D02*
X177890476Y-93850057D01*
X177890476Y-93850057D02*
X177938095Y-93945295D01*
X177938095Y-93945295D02*
X177938095Y-94040533D01*
X177938095Y-94040533D02*
X177890476Y-94183390D01*
X177890476Y-94183390D02*
X177319048Y-94754819D01*
X177319048Y-94754819D02*
X177938095Y-94754819D01*
X124431009Y-104957142D02*
X124478628Y-104814285D01*
X124478628Y-104814285D02*
X124526247Y-104766666D01*
X124526247Y-104766666D02*
X124621485Y-104719047D01*
X124621485Y-104719047D02*
X124764342Y-104719047D01*
X124764342Y-104719047D02*
X124859580Y-104766666D01*
X124859580Y-104766666D02*
X124907200Y-104814285D01*
X124907200Y-104814285D02*
X124954819Y-104909523D01*
X124954819Y-104909523D02*
X124954819Y-105290475D01*
X124954819Y-105290475D02*
X123954819Y-105290475D01*
X123954819Y-105290475D02*
X123954819Y-104957142D01*
X123954819Y-104957142D02*
X124002438Y-104861904D01*
X124002438Y-104861904D02*
X124050057Y-104814285D01*
X124050057Y-104814285D02*
X124145295Y-104766666D01*
X124145295Y-104766666D02*
X124240533Y-104766666D01*
X124240533Y-104766666D02*
X124335771Y-104814285D01*
X124335771Y-104814285D02*
X124383390Y-104861904D01*
X124383390Y-104861904D02*
X124431009Y-104957142D01*
X124431009Y-104957142D02*
X124431009Y-105290475D01*
X123954819Y-104099999D02*
X123954819Y-103909523D01*
X123954819Y-103909523D02*
X124002438Y-103814285D01*
X124002438Y-103814285D02*
X124097676Y-103719047D01*
X124097676Y-103719047D02*
X124288152Y-103671428D01*
X124288152Y-103671428D02*
X124621485Y-103671428D01*
X124621485Y-103671428D02*
X124811961Y-103719047D01*
X124811961Y-103719047D02*
X124907200Y-103814285D01*
X124907200Y-103814285D02*
X124954819Y-103909523D01*
X124954819Y-103909523D02*
X124954819Y-104099999D01*
X124954819Y-104099999D02*
X124907200Y-104195237D01*
X124907200Y-104195237D02*
X124811961Y-104290475D01*
X124811961Y-104290475D02*
X124621485Y-104338094D01*
X124621485Y-104338094D02*
X124288152Y-104338094D01*
X124288152Y-104338094D02*
X124097676Y-104290475D01*
X124097676Y-104290475D02*
X124002438Y-104195237D01*
X124002438Y-104195237D02*
X123954819Y-104099999D01*
X123954819Y-103052380D02*
X123954819Y-102861904D01*
X123954819Y-102861904D02*
X124002438Y-102766666D01*
X124002438Y-102766666D02*
X124097676Y-102671428D01*
X124097676Y-102671428D02*
X124288152Y-102623809D01*
X124288152Y-102623809D02*
X124621485Y-102623809D01*
X124621485Y-102623809D02*
X124811961Y-102671428D01*
X124811961Y-102671428D02*
X124907200Y-102766666D01*
X124907200Y-102766666D02*
X124954819Y-102861904D01*
X124954819Y-102861904D02*
X124954819Y-103052380D01*
X124954819Y-103052380D02*
X124907200Y-103147618D01*
X124907200Y-103147618D02*
X124811961Y-103242856D01*
X124811961Y-103242856D02*
X124621485Y-103290475D01*
X124621485Y-103290475D02*
X124288152Y-103290475D01*
X124288152Y-103290475D02*
X124097676Y-103242856D01*
X124097676Y-103242856D02*
X124002438Y-103147618D01*
X124002438Y-103147618D02*
X123954819Y-103052380D01*
X123954819Y-102338094D02*
X123954819Y-101766666D01*
X124954819Y-102052380D02*
X123954819Y-102052380D01*
X158169104Y-116238095D02*
X158169104Y-115761905D01*
X158454819Y-116333333D02*
X157454819Y-116000000D01*
X157454819Y-116000000D02*
X158454819Y-115666667D01*
X158454819Y-114904762D02*
X157454819Y-114904762D01*
X158407200Y-114904762D02*
X158454819Y-115000000D01*
X158454819Y-115000000D02*
X158454819Y-115190476D01*
X158454819Y-115190476D02*
X158407200Y-115285714D01*
X158407200Y-115285714D02*
X158359580Y-115333333D01*
X158359580Y-115333333D02*
X158264342Y-115380952D01*
X158264342Y-115380952D02*
X157978628Y-115380952D01*
X157978628Y-115380952D02*
X157883390Y-115333333D01*
X157883390Y-115333333D02*
X157835771Y-115285714D01*
X157835771Y-115285714D02*
X157788152Y-115190476D01*
X157788152Y-115190476D02*
X157788152Y-115000000D01*
X157788152Y-115000000D02*
X157835771Y-114904762D01*
X158454819Y-114428571D02*
X157788152Y-114428571D01*
X157978628Y-114428571D02*
X157883390Y-114380952D01*
X157883390Y-114380952D02*
X157835771Y-114333333D01*
X157835771Y-114333333D02*
X157788152Y-114238095D01*
X157788152Y-114238095D02*
X157788152Y-114142857D01*
X158407200Y-113428571D02*
X158454819Y-113523809D01*
X158454819Y-113523809D02*
X158454819Y-113714285D01*
X158454819Y-113714285D02*
X158407200Y-113809523D01*
X158407200Y-113809523D02*
X158311961Y-113857142D01*
X158311961Y-113857142D02*
X157931009Y-113857142D01*
X157931009Y-113857142D02*
X157835771Y-113809523D01*
X157835771Y-113809523D02*
X157788152Y-113714285D01*
X157788152Y-113714285D02*
X157788152Y-113523809D01*
X157788152Y-113523809D02*
X157835771Y-113428571D01*
X157835771Y-113428571D02*
X157931009Y-113380952D01*
X157931009Y-113380952D02*
X158026247Y-113380952D01*
X158026247Y-113380952D02*
X158121485Y-113857142D01*
X158407200Y-112999999D02*
X158454819Y-112904761D01*
X158454819Y-112904761D02*
X158454819Y-112714285D01*
X158454819Y-112714285D02*
X158407200Y-112619047D01*
X158407200Y-112619047D02*
X158311961Y-112571428D01*
X158311961Y-112571428D02*
X158264342Y-112571428D01*
X158264342Y-112571428D02*
X158169104Y-112619047D01*
X158169104Y-112619047D02*
X158121485Y-112714285D01*
X158121485Y-112714285D02*
X158121485Y-112857142D01*
X158121485Y-112857142D02*
X158073866Y-112952380D01*
X158073866Y-112952380D02*
X157978628Y-112999999D01*
X157978628Y-112999999D02*
X157931009Y-112999999D01*
X157931009Y-112999999D02*
X157835771Y-112952380D01*
X157835771Y-112952380D02*
X157788152Y-112857142D01*
X157788152Y-112857142D02*
X157788152Y-112714285D01*
X157788152Y-112714285D02*
X157835771Y-112619047D01*
X158407200Y-112190475D02*
X158454819Y-112095237D01*
X158454819Y-112095237D02*
X158454819Y-111904761D01*
X158454819Y-111904761D02*
X158407200Y-111809523D01*
X158407200Y-111809523D02*
X158311961Y-111761904D01*
X158311961Y-111761904D02*
X158264342Y-111761904D01*
X158264342Y-111761904D02*
X158169104Y-111809523D01*
X158169104Y-111809523D02*
X158121485Y-111904761D01*
X158121485Y-111904761D02*
X158121485Y-112047618D01*
X158121485Y-112047618D02*
X158073866Y-112142856D01*
X158073866Y-112142856D02*
X157978628Y-112190475D01*
X157978628Y-112190475D02*
X157931009Y-112190475D01*
X157931009Y-112190475D02*
X157835771Y-112142856D01*
X157835771Y-112142856D02*
X157788152Y-112047618D01*
X157788152Y-112047618D02*
X157788152Y-111904761D01*
X157788152Y-111904761D02*
X157835771Y-111809523D01*
D14*
%TO.C,R36*%
X119137258Y-118567500D02*
X118662742Y-118567500D01*
X119137258Y-119612500D02*
X118662742Y-119612500D01*
%TO.C,R43*%
X170620000Y-64253641D02*
X170620000Y-63946359D01*
X171380000Y-64253641D02*
X171380000Y-63946359D01*
%TO.C,C6*%
X157011252Y-78689996D02*
X155588748Y-78689996D01*
X157011252Y-81409996D02*
X155588748Y-81409996D01*
%TO.C,5V*%
X139340000Y-134235000D02*
X141625000Y-134235000D01*
X141625000Y-132765000D02*
X139340000Y-132765000D01*
X141625000Y-134235000D02*
X141625000Y-132765000D01*
D13*
%TO.C,J2*%
X125940000Y-63100000D02*
X125940000Y-61100000D01*
X128440000Y-58600000D02*
X130440000Y-58600000D01*
X128440000Y-65600000D02*
X130440000Y-65600000D01*
X132940000Y-63100000D02*
X132940000Y-61100000D01*
D14*
%TO.C,R24*%
X152177500Y-90662742D02*
X152177500Y-91137258D01*
X153222500Y-90662742D02*
X153222500Y-91137258D01*
%TO.C,C3*%
X127461252Y-102365000D02*
X126938748Y-102365000D01*
X127461252Y-103835000D02*
X126938748Y-103835000D01*
%TO.C,R5*%
X125402499Y-96212258D02*
X125402499Y-95737742D01*
X126447499Y-96212258D02*
X126447499Y-95737742D01*
%TO.C,R2*%
X139277500Y-114362742D02*
X139277500Y-114837258D01*
X140322500Y-114362742D02*
X140322500Y-114837258D01*
%TO.C,R46*%
X163420000Y-106853641D02*
X163420000Y-106546359D01*
X164180000Y-106853641D02*
X164180000Y-106546359D01*
%TO.C,C32*%
X134111252Y-78689999D02*
X132688748Y-78689999D01*
X134111252Y-81409999D02*
X132688748Y-81409999D01*
%TO.C,NTC1*%
X164837258Y-72277500D02*
X164362742Y-72277500D01*
X164837258Y-73322500D02*
X164362742Y-73322500D01*
%TO.C,R17*%
X129177500Y-93637742D02*
X129177500Y-94112258D01*
X130222500Y-93637742D02*
X130222500Y-94112258D01*
%TO.C,C24*%
X156490000Y-73740581D02*
X156490000Y-73459419D01*
X157510000Y-73740581D02*
X157510000Y-73459419D01*
%TO.C,C29*%
X170165000Y-95484419D02*
X170165000Y-95765581D01*
X171185000Y-95484419D02*
X171185000Y-95765581D01*
%TO.C,R50*%
X170162258Y-87377500D02*
X169687742Y-87377500D01*
X170162258Y-88422500D02*
X169687742Y-88422500D01*
%TO.C,R47*%
X161020000Y-106853641D02*
X161020000Y-106546359D01*
X161780000Y-106853641D02*
X161780000Y-106546359D01*
%TO.C,C11*%
X151706512Y-109757701D02*
X151507701Y-109956512D01*
X152427761Y-110478950D02*
X152228950Y-110677761D01*
%TO.C,R7*%
X123927498Y-96212258D02*
X123927498Y-95737742D01*
X124972498Y-96212258D02*
X124972498Y-95737742D01*
%TO.C,Encoder*%
X172220000Y-64253641D02*
X172220000Y-63946359D01*
X172980000Y-64253641D02*
X172980000Y-63946359D01*
%TO.C,PwrJumper1*%
X122850000Y-122600000D02*
X122850000Y-122000000D01*
X123500000Y-121300000D02*
X126300000Y-121300000D01*
X126300000Y-123300000D02*
X123500000Y-123300000D01*
X126950000Y-122000000D02*
X126950000Y-122600000D01*
X122850000Y-122000000D02*
G75*
G02*
X123550000Y-121300000I700000J0D01*
G01*
X123550000Y-123300000D02*
G75*
G02*
X122850000Y-122600000I0J700000D01*
G01*
X126250000Y-121300000D02*
G75*
G02*
X126950000Y-122000000I1J-699999D01*
G01*
X126950000Y-122600000D02*
G75*
G02*
X126250000Y-123300000I-699999J-1D01*
G01*
%TO.C,R45*%
X164146359Y-73820000D02*
X164453641Y-73820000D01*
X164146359Y-74580000D02*
X164453641Y-74580000D01*
%TO.C,C12*%
X150638781Y-108689970D02*
X150439970Y-108888781D01*
X151360030Y-109411219D02*
X151161219Y-109610030D01*
%TO.C,R11*%
X109049758Y-126977500D02*
X108575242Y-126977500D01*
X109049758Y-128022500D02*
X108575242Y-128022500D01*
%TO.C,R10*%
X137777500Y-114837258D02*
X137777500Y-114362742D01*
X138822500Y-114837258D02*
X138822500Y-114362742D01*
%TO.C,C9*%
X166115581Y-100390000D02*
X165834419Y-100390000D01*
X166115581Y-101410000D02*
X165834419Y-101410000D01*
%TO.C,R22*%
X140027500Y-93637742D02*
X140027500Y-94112258D01*
X141072500Y-93637742D02*
X141072500Y-94112258D01*
%TO.C,C10*%
X134650000Y-96359419D02*
X134650000Y-96640581D01*
X135670000Y-96359419D02*
X135670000Y-96640581D01*
%TO.C,R28*%
X153366034Y-100069499D02*
X153030501Y-99733966D01*
X154104961Y-99330572D02*
X153769428Y-98995039D01*
%TO.C,C14*%
X136150000Y-96359419D02*
X136150000Y-96640581D01*
X137170000Y-96359419D02*
X137170000Y-96640581D01*
%TO.C,3v3*%
X151475000Y-132765000D02*
X151475000Y-134235000D01*
X151475000Y-134235000D02*
X153760000Y-134235000D01*
X153760000Y-132765000D02*
X151475000Y-132765000D01*
D12*
%TO.C,J11*%
X99607500Y-112150000D02*
X99607500Y-114350000D01*
X99607500Y-114350000D02*
X101557500Y-114350000D01*
X99607500Y-121050000D02*
X101557500Y-121050000D01*
X99607500Y-123250000D02*
X99607500Y-121050000D01*
X101557500Y-111200000D02*
X101557500Y-112150000D01*
X101557500Y-112150000D02*
X99607500Y-112150000D01*
X101557500Y-114350000D02*
X101557500Y-121050000D01*
X101557500Y-123250000D02*
X99607500Y-123250000D01*
X101557500Y-124200000D02*
X101557500Y-123250000D01*
X103707500Y-111200000D02*
X109057500Y-111200000D01*
X109057500Y-111200000D02*
X109057500Y-115550000D01*
X109057500Y-124200000D02*
X103707500Y-124200000D01*
X109057500Y-124200000D02*
X109057500Y-119850000D01*
X109967500Y-119200000D02*
G75*
G02*
X109767500Y-119200000I-100000J0D01*
G01*
X109767500Y-119200000D02*
G75*
G02*
X109967500Y-119200000I100000J0D01*
G01*
D14*
%TO.C,C31*%
X144861252Y-78689996D02*
X143438748Y-78689996D01*
X144861252Y-81409996D02*
X143438748Y-81409996D01*
%TO.C,D2*%
X112077500Y-116140000D02*
X113597500Y-116140000D01*
X112077500Y-116190000D02*
X112077500Y-116140000D01*
X112077500Y-118090000D02*
X112077500Y-117310000D01*
X112077500Y-119260000D02*
X112077500Y-119210000D01*
X113597500Y-116140000D02*
X113597500Y-117140000D01*
X113597500Y-118260000D02*
X113597500Y-119260000D01*
X113597500Y-119260000D02*
X112077500Y-119260000D01*
X111777500Y-117650000D02*
X111297500Y-117650000D01*
X111537500Y-117320000D01*
X111777500Y-117650000D01*
G36*
X111777500Y-117650000D02*
G01*
X111297500Y-117650000D01*
X111537500Y-117320000D01*
X111777500Y-117650000D01*
G37*
%TO.C,C18*%
X164259420Y-77790000D02*
X164540580Y-77790000D01*
X164259420Y-78810000D02*
X164540580Y-78810000D01*
%TO.C,R18*%
X130777500Y-90662742D02*
X130777500Y-91137258D01*
X131822500Y-90662742D02*
X131822500Y-91137258D01*
%TO.C,R38*%
X143488858Y-133120000D02*
X143796140Y-133120000D01*
X143488858Y-133880000D02*
X143796140Y-133880000D01*
%TO.C,R30*%
X164637258Y-79277500D02*
X164162742Y-79277500D01*
X164637258Y-80322500D02*
X164162742Y-80322500D01*
%TO.C,LED 2*%
X104127500Y-130955000D02*
X104127500Y-132425000D01*
X104127500Y-132425000D02*
X106412500Y-132425000D01*
X106412500Y-130955000D02*
X104127500Y-130955000D01*
%TO.C,C28*%
X170165000Y-85534419D02*
X170165000Y-85815581D01*
X171185000Y-85534419D02*
X171185000Y-85815581D01*
%TO.C,R1*%
X132537258Y-103927500D02*
X132062742Y-103927500D01*
X132537258Y-104972500D02*
X132062742Y-104972500D01*
%TO.C,R8*%
X165737742Y-101877500D02*
X166212258Y-101877500D01*
X165737742Y-102922500D02*
X166212258Y-102922500D01*
%TO.C,U1*%
X122240000Y-115140000D02*
X126360000Y-115140000D01*
X122240000Y-115235000D02*
X122240000Y-115140000D01*
X122240000Y-120260000D02*
X122240000Y-120165000D01*
X126360000Y-115140000D02*
X126360000Y-115235000D01*
X126360000Y-120165000D02*
X126360000Y-120260000D01*
X126360000Y-120260000D02*
X122240000Y-120260000D01*
X127140000Y-120500000D02*
X126660000Y-120500000D01*
X126900000Y-120170000D01*
X127140000Y-120500000D01*
G36*
X127140000Y-120500000D02*
G01*
X126660000Y-120500000D01*
X126900000Y-120170000D01*
X127140000Y-120500000D01*
G37*
%TO.C,R40*%
X119161358Y-109330001D02*
X119468640Y-109330001D01*
X119161358Y-110090001D02*
X119468640Y-110090001D01*
%TO.C,R51*%
X168602500Y-95862258D02*
X168602500Y-95387742D01*
X169647500Y-95862258D02*
X169647500Y-95387742D01*
%TO.C,C20*%
X124265000Y-127138748D02*
X124265000Y-127661252D01*
X125735000Y-127138748D02*
X125735000Y-127661252D01*
D13*
%TO.C,V*%
X136500000Y-63100000D02*
X136500000Y-61100000D01*
X139000000Y-58600000D02*
X141000000Y-58600000D01*
X139000000Y-65600000D02*
X141000000Y-65600000D01*
X143500000Y-63100000D02*
X143500000Y-61100000D01*
D14*
%TO.C,DC IN*%
X99690000Y-91340000D02*
X114000000Y-91340000D01*
X99690000Y-107060000D02*
X99690000Y-91340000D01*
X99690000Y-107060000D02*
X114000000Y-107060000D01*
X118110000Y-100490000D02*
X118110000Y-96750000D01*
X114000000Y-91340000D02*
G75*
G02*
X117930413Y-94248352I0J-4110000D01*
G01*
X117522958Y-105066806D02*
G75*
G02*
X114000000Y-107060000I-3522957J2116805D01*
G01*
%TO.C,R41*%
X167420000Y-64253641D02*
X167420000Y-63946359D01*
X168180000Y-64253641D02*
X168180000Y-63946359D01*
%TO.C,C2*%
X102373885Y-71340000D02*
X109023885Y-71340000D01*
X102373885Y-86100000D02*
X102373885Y-71340000D01*
X104933885Y-88660000D02*
X102373885Y-86100000D01*
X104933885Y-88660000D02*
X109023885Y-88660000D01*
X108433885Y-89275000D02*
X108433885Y-89775000D01*
X108683885Y-89525000D02*
X108183885Y-89525000D01*
X113043885Y-71340000D02*
X119693885Y-71340000D01*
X117133885Y-88660000D02*
X113043885Y-88660000D01*
X117133885Y-88660000D02*
X119693885Y-86100000D01*
X119693885Y-86100000D02*
X119693885Y-71340000D01*
%TO.C,C19*%
X134265000Y-127138748D02*
X134265000Y-127661252D01*
X135735000Y-127138748D02*
X135735000Y-127661252D01*
%TO.C,R34*%
X133062742Y-118077500D02*
X133537258Y-118077500D01*
X133062742Y-119122500D02*
X133537258Y-119122500D01*
%TO.C,C21*%
X134111252Y-81890000D02*
X132688748Y-81890000D01*
X134111252Y-84610000D02*
X132688748Y-84610000D01*
%TO.C,J12*%
X164715000Y-59960000D02*
X164715000Y-61410000D01*
X164715000Y-61410000D02*
X166515000Y-61410000D01*
X173885000Y-61410000D02*
X173885000Y-62400000D01*
X174415000Y-57140001D02*
X165985000Y-57140001D01*
X175685000Y-59960000D02*
X175685000Y-61410000D01*
X175685000Y-61410000D02*
X173885000Y-61410000D01*
%TO.C,R4*%
X132537258Y-106127500D02*
X132062742Y-106127500D01*
X132537258Y-107172500D02*
X132062742Y-107172500D01*
%TO.C,R32*%
X136390000Y-84677064D02*
X136390000Y-80322936D01*
X139810000Y-84677064D02*
X139810000Y-80322936D01*
%TO.C,R48*%
X109049758Y-131177500D02*
X108575242Y-131177500D01*
X109049758Y-132222500D02*
X108575242Y-132222500D01*
%TO.C,R29*%
X151962770Y-100801697D02*
X152298303Y-101137230D01*
X152701697Y-100062770D02*
X153037230Y-100398303D01*
%TO.C,C13*%
X152390000Y-114633474D02*
X152390000Y-114352312D01*
X153410000Y-114633474D02*
X153410000Y-114352312D01*
D15*
%TO.C,IC1*%
X146250000Y-108600000D02*
G75*
G02*
X146000000Y-108600000I-125000J0D01*
G01*
X146000000Y-108600000D02*
G75*
G02*
X146250000Y-108600000I125000J0D01*
G01*
D14*
%TO.C,C5*%
X127461252Y-100015000D02*
X126938748Y-100015000D01*
X127461252Y-101485000D02*
X126938748Y-101485000D01*
%TO.C,R14*%
X132277500Y-91962258D02*
X132277500Y-91487742D01*
X133322500Y-91962258D02*
X133322500Y-91487742D01*
%TO.C,1  2*%
X152390000Y-117352312D02*
X152390000Y-117633474D01*
X153410000Y-117352312D02*
X153410000Y-117633474D01*
%TO.C,D5*%
X115012499Y-110435000D02*
X117297499Y-110435000D01*
X117297499Y-108965000D02*
X115012499Y-108965000D01*
X117297499Y-110435000D02*
X117297499Y-108965000D01*
%TO.C,C17*%
X150979310Y-101921879D02*
X151178121Y-102120690D01*
X151700559Y-101200630D02*
X151899370Y-101399441D01*
%TO.C,C8*%
X141965000Y-113738747D02*
X141965000Y-114261253D01*
X143435000Y-113738747D02*
X143435000Y-114261253D01*
%TO.C,USER*%
D13*
X166975000Y-81000000D02*
X178975000Y-81000000D01*
X178975000Y-69000000D01*
X166975000Y-69000000D01*
X166975000Y-81000000D01*
X176475000Y-75000000D02*
G75*
G02*
X169475000Y-75000000I-3500000J0D01*
G01*
X169475000Y-75000000D02*
G75*
G02*
X176475000Y-75000000I3500000J0D01*
G01*
D14*
%TO.C,R3*%
X126877500Y-96212258D02*
X126877500Y-95737742D01*
X127922500Y-96212258D02*
X127922500Y-95737742D01*
%TO.C,R16*%
X129177500Y-90662742D02*
X129177500Y-91137258D01*
X130222500Y-90662742D02*
X130222500Y-91137258D01*
%TO.C,R33*%
X146990000Y-84677064D02*
X146990000Y-80322936D01*
X150410000Y-84677064D02*
X150410000Y-80322936D01*
%TO.C,J10*%
X126690000Y-127650000D02*
X126690000Y-131410000D01*
X126690000Y-131410000D02*
X127950000Y-131410000D01*
X133510000Y-127650000D02*
X133510000Y-131410000D01*
X133510000Y-131410000D02*
X132250000Y-131410000D01*
X133740000Y-126610000D02*
X133410000Y-126370000D01*
X133740000Y-126130000D01*
X133740000Y-126610000D01*
G36*
X133740000Y-126610000D02*
G01*
X133410000Y-126370000D01*
X133740000Y-126130000D01*
X133740000Y-126610000D01*
G37*
%TO.C,R20*%
X143177500Y-91937258D02*
X143177500Y-91462742D01*
X144222500Y-91937258D02*
X144222500Y-91462742D01*
%TO.C,LED 1*%
X104127500Y-126765000D02*
X104127500Y-128235000D01*
X104127500Y-128235000D02*
X106412500Y-128235000D01*
X106412500Y-126765000D02*
X104127500Y-126765000D01*
%TO.C,C27*%
X134111252Y-85089999D02*
X132688748Y-85089999D01*
X134111252Y-87809999D02*
X132688748Y-87809999D01*
%TO.C,R19*%
X141627500Y-90662742D02*
X141627500Y-91137258D01*
X142672500Y-90662742D02*
X142672500Y-91137258D01*
%TO.C,C30*%
X131584419Y-122990000D02*
X131865581Y-122990000D01*
X131584419Y-124010000D02*
X131865581Y-124010000D01*
D13*
%TO.C,J4*%
X147090000Y-63100000D02*
X147090000Y-61100000D01*
X149590000Y-58600000D02*
X151590000Y-58600000D01*
X149590000Y-65600000D02*
X151590000Y-65600000D01*
X154090000Y-63100000D02*
X154090000Y-61100000D01*
%TO.C,nRST1*%
X166975000Y-118000000D02*
X178975000Y-118000000D01*
X178975000Y-106000000D01*
X166975000Y-106000000D01*
X166975000Y-118000000D01*
X176475000Y-112000000D02*
G75*
G02*
X169475000Y-112000000I-3500000J0D01*
G01*
X169475000Y-112000000D02*
G75*
G02*
X176475000Y-112000000I3500000J0D01*
G01*
D14*
%TO.C,R31*%
X125690000Y-84577064D02*
X125690000Y-80222936D01*
X129110000Y-84577064D02*
X129110000Y-80222936D01*
%TO.C,R21*%
X141627500Y-94137258D02*
X141627500Y-93662742D01*
X142672500Y-94137258D02*
X142672500Y-93662742D01*
%TO.C,C26*%
X157011252Y-81889998D02*
X155588748Y-81889998D01*
X157011252Y-84609998D02*
X155588748Y-84609998D01*
%TO.C,JTAG*%
X142045000Y-125485000D02*
X142110000Y-125485000D01*
X142045000Y-129115000D02*
X142045000Y-125485000D01*
X142045000Y-129115000D02*
X142110000Y-129115000D01*
X142110000Y-130390000D02*
X142110000Y-129115000D01*
X151090000Y-125485000D02*
X151155000Y-125485000D01*
X151090000Y-129115000D02*
X151155000Y-129115000D01*
X151155000Y-129115000D02*
X151155000Y-125485000D01*
%TO.C,L1*%
X145985786Y-119060000D02*
X151385786Y-119060000D01*
X148685786Y-112940000D02*
X151385786Y-112940000D01*
%TO.C,R35*%
X130262742Y-116577500D02*
X130737258Y-116577500D01*
X130262742Y-117622500D02*
X130737258Y-117622500D01*
%TO.C,R49*%
X168602500Y-85912258D02*
X168602500Y-85437742D01*
X169647500Y-85912258D02*
X169647500Y-85437742D01*
%TO.C,R12*%
X164540581Y-76290000D02*
X164259419Y-76290000D01*
X164540581Y-77310000D02*
X164259419Y-77310000D01*
%TO.C,R42*%
X169120000Y-64253641D02*
X169120000Y-63946359D01*
X169880000Y-64253641D02*
X169880000Y-63946359D01*
%TO.C,GATE HIGH*%
X132537258Y-101577500D02*
X132062742Y-101577500D01*
X132537258Y-102622500D02*
X132062742Y-102622500D01*
%TO.C,R9*%
X166115581Y-103390000D02*
X165834419Y-103390000D01*
X166115581Y-104410000D02*
X165834419Y-104410000D01*
%TO.C,R53*%
X115377500Y-117462742D02*
X115377500Y-117937258D01*
X116422500Y-117462742D02*
X116422500Y-117937258D01*
%TO.C,R39*%
X149611141Y-133130001D02*
X149303859Y-133130001D01*
X149611141Y-133890001D02*
X149303859Y-133890001D01*
%TO.C,LSW1*%
X174290000Y-85515000D02*
X174290000Y-87315000D01*
X174290000Y-89685000D02*
X173300000Y-89685000D01*
X174290000Y-91485000D02*
X174290000Y-89685000D01*
X175740000Y-85515000D02*
X174290000Y-85515000D01*
X175740000Y-91485000D02*
X174290000Y-91485000D01*
X178560000Y-90215000D02*
X178560000Y-86785000D01*
%TO.C,C15*%
X149619453Y-107666658D02*
X149420642Y-107865469D01*
X150340702Y-108387907D02*
X150141891Y-108586718D01*
%TO.C,LSW2*%
X174290000Y-95515000D02*
X174290000Y-97315000D01*
X174290000Y-99685000D02*
X173300000Y-99685000D01*
X174290000Y-101485000D02*
X174290000Y-99685000D01*
X175740000Y-95515000D02*
X174290000Y-95515000D01*
X175740000Y-101485000D02*
X174290000Y-101485000D01*
X178559999Y-100215000D02*
X178559999Y-96785000D01*
%TO.C,R25*%
X153677500Y-91937258D02*
X153677500Y-91462742D01*
X154722500Y-91937258D02*
X154722500Y-91462742D01*
%TO.C,R27*%
X150577500Y-93637742D02*
X150577500Y-94112258D01*
X151622500Y-93637742D02*
X151622500Y-94112258D01*
%TO.C,R15*%
X130777500Y-94137258D02*
X130777500Y-93662742D01*
X131822500Y-94137258D02*
X131822500Y-93662742D01*
%TO.C,C4*%
X157011252Y-85089998D02*
X155588748Y-85089998D01*
X157011252Y-87809998D02*
X155588748Y-87809998D01*
%TO.C,R23*%
X150577500Y-90662742D02*
X150577500Y-91137258D01*
X151622500Y-90662742D02*
X151622500Y-91137258D01*
%TO.C,R13*%
X140027500Y-90662742D02*
X140027500Y-91137258D01*
X141072500Y-90662742D02*
X141072500Y-91137258D01*
%TO.C,C33*%
X144861252Y-81889998D02*
X143438748Y-81889998D01*
X144861252Y-84609998D02*
X143438748Y-84609998D01*
%TO.C,C22*%
X144861252Y-85089998D02*
X143438748Y-85089998D01*
X144861252Y-87809998D02*
X143438748Y-87809998D01*
%TO.C,R52*%
X170162258Y-97327500D02*
X169687742Y-97327500D01*
X170162258Y-98372500D02*
X169687742Y-98372500D01*
%TO.C,R37*%
X119137258Y-115867500D02*
X118662742Y-115867500D01*
X119137258Y-116912500D02*
X118662742Y-116912500D01*
%TO.C,BOOT*%
X127461252Y-104615000D02*
X126938748Y-104615000D01*
X127461252Y-106085000D02*
X126938748Y-106085000D01*
%TO.C,Adress*%
X158980000Y-117550000D02*
X158980000Y-116167001D01*
X158980000Y-117550000D02*
X160363000Y-117550000D01*
X159220000Y-110490000D02*
X160530000Y-110490000D01*
X159220000Y-117310000D02*
X159220000Y-110490000D01*
X159220000Y-117310000D02*
X160530000Y-117310000D01*
X160695000Y-114503332D02*
X161965000Y-114503333D01*
X162130000Y-110490000D02*
X163070000Y-110490000D01*
X162130000Y-117310000D02*
X163070000Y-117310000D01*
X163235000Y-114503333D02*
X164505000Y-114503332D01*
X164670000Y-110490000D02*
X165980000Y-110490000D01*
X164670000Y-117310000D02*
X165980000Y-117310000D01*
X165980000Y-117310000D02*
X165980000Y-110490000D01*
X161965000Y-115710000D02*
X160695000Y-115710000D01*
X160695000Y-112090000D01*
X161965000Y-112090000D01*
X161965000Y-115710000D01*
X161965000Y-114503333D02*
X161965000Y-115710000D01*
X160695000Y-115710000D01*
X160695000Y-114503332D01*
X161965000Y-114503333D01*
G36*
X161965000Y-114503333D02*
G01*
X161965000Y-115710000D01*
X160695000Y-115710000D01*
X160695000Y-114503332D01*
X161965000Y-114503333D01*
G37*
X164505000Y-115710000D02*
X163235000Y-115710000D01*
X163235000Y-112090000D01*
X164505000Y-112090000D01*
X164505000Y-115710000D01*
X164505000Y-115710000D02*
X163235000Y-115710000D01*
X163235000Y-114503333D01*
X164505000Y-114503332D01*
X164505000Y-115710000D01*
G36*
X164505000Y-115710000D02*
G01*
X163235000Y-115710000D01*
X163235000Y-114503333D01*
X164505000Y-114503332D01*
X164505000Y-115710000D01*
G37*
%TO.C,R26*%
X152177500Y-94137258D02*
X152177500Y-93662742D01*
X153222500Y-94137258D02*
X153222500Y-93662742D01*
%TO.C,D4*%
X145940000Y-119292893D02*
X145940000Y-121292893D01*
X145940000Y-119292893D02*
X149950000Y-119292893D01*
X145940000Y-121292893D02*
X149950000Y-121292893D01*
%TD*%
M02*
