%TF.GenerationSoftware,KiCad,Pcbnew,9.0.6-9.0.6~ubuntu24.04.1*%
%TF.CreationDate,2025-11-23T01:43:00+01:00*%
%TF.ProjectId,COM_BOARD,434f4d5f-424f-4415-9244-2e6b69636164,rev?*%
%TF.SameCoordinates,Original*%
%TF.FileFunction,Legend,Bot*%
%TF.FilePolarity,Positive*%
%FSLAX46Y46*%
G04 Gerber Fmt 4.6, Leading zero omitted, Abs format (unit mm)*
G04 Created by KiCad (PCBNEW 9.0.6-9.0.6~ubuntu24.04.1) date 2025-11-23 01:43:00*
%MOMM*%
%LPD*%
G01*
G04 APERTURE LIST*
%ADD10C,0.150000*%
%ADD11C,0.120000*%
%ADD12C,0.200000*%
G04 APERTURE END LIST*
D10*
X189363333Y-44894818D02*
X189030000Y-45894818D01*
X189030000Y-45894818D02*
X188696667Y-44894818D01*
X188030000Y-45371008D02*
X187887143Y-45418627D01*
X187887143Y-45418627D02*
X187839524Y-45466246D01*
X187839524Y-45466246D02*
X187791905Y-45561484D01*
X187791905Y-45561484D02*
X187791905Y-45704341D01*
X187791905Y-45704341D02*
X187839524Y-45799579D01*
X187839524Y-45799579D02*
X187887143Y-45847199D01*
X187887143Y-45847199D02*
X187982381Y-45894818D01*
X187982381Y-45894818D02*
X188363333Y-45894818D01*
X188363333Y-45894818D02*
X188363333Y-44894818D01*
X188363333Y-44894818D02*
X188030000Y-44894818D01*
X188030000Y-44894818D02*
X187934762Y-44942437D01*
X187934762Y-44942437D02*
X187887143Y-44990056D01*
X187887143Y-44990056D02*
X187839524Y-45085294D01*
X187839524Y-45085294D02*
X187839524Y-45180532D01*
X187839524Y-45180532D02*
X187887143Y-45275770D01*
X187887143Y-45275770D02*
X187934762Y-45323389D01*
X187934762Y-45323389D02*
X188030000Y-45371008D01*
X188030000Y-45371008D02*
X188363333Y-45371008D01*
X187363333Y-44894818D02*
X187363333Y-45704341D01*
X187363333Y-45704341D02*
X187315714Y-45799579D01*
X187315714Y-45799579D02*
X187268095Y-45847199D01*
X187268095Y-45847199D02*
X187172857Y-45894818D01*
X187172857Y-45894818D02*
X186982381Y-45894818D01*
X186982381Y-45894818D02*
X186887143Y-45847199D01*
X186887143Y-45847199D02*
X186839524Y-45799579D01*
X186839524Y-45799579D02*
X186791905Y-45704341D01*
X186791905Y-45704341D02*
X186791905Y-44894818D01*
X186363333Y-45847199D02*
X186220476Y-45894818D01*
X186220476Y-45894818D02*
X185982381Y-45894818D01*
X185982381Y-45894818D02*
X185887143Y-45847199D01*
X185887143Y-45847199D02*
X185839524Y-45799579D01*
X185839524Y-45799579D02*
X185791905Y-45704341D01*
X185791905Y-45704341D02*
X185791905Y-45609103D01*
X185791905Y-45609103D02*
X185839524Y-45513865D01*
X185839524Y-45513865D02*
X185887143Y-45466246D01*
X185887143Y-45466246D02*
X185982381Y-45418627D01*
X185982381Y-45418627D02*
X186172857Y-45371008D01*
X186172857Y-45371008D02*
X186268095Y-45323389D01*
X186268095Y-45323389D02*
X186315714Y-45275770D01*
X186315714Y-45275770D02*
X186363333Y-45180532D01*
X186363333Y-45180532D02*
X186363333Y-45085294D01*
X186363333Y-45085294D02*
X186315714Y-44990056D01*
X186315714Y-44990056D02*
X186268095Y-44942437D01*
X186268095Y-44942437D02*
X186172857Y-44894818D01*
X186172857Y-44894818D02*
X185934762Y-44894818D01*
X185934762Y-44894818D02*
X185791905Y-44942437D01*
X190984820Y-49649523D02*
X190984820Y-49173333D01*
X190984820Y-49173333D02*
X191461010Y-49125714D01*
X191461010Y-49125714D02*
X191413391Y-49173333D01*
X191413391Y-49173333D02*
X191365772Y-49268571D01*
X191365772Y-49268571D02*
X191365772Y-49506666D01*
X191365772Y-49506666D02*
X191413391Y-49601904D01*
X191413391Y-49601904D02*
X191461010Y-49649523D01*
X191461010Y-49649523D02*
X191556248Y-49697142D01*
X191556248Y-49697142D02*
X191794343Y-49697142D01*
X191794343Y-49697142D02*
X191889581Y-49649523D01*
X191889581Y-49649523D02*
X191937201Y-49601904D01*
X191937201Y-49601904D02*
X191984820Y-49506666D01*
X191984820Y-49506666D02*
X191984820Y-49268571D01*
X191984820Y-49268571D02*
X191937201Y-49173333D01*
X191937201Y-49173333D02*
X191889581Y-49125714D01*
X190984820Y-49982857D02*
X191984820Y-50316190D01*
X191984820Y-50316190D02*
X190984820Y-50649523D01*
X183484819Y-48844761D02*
X184484819Y-49178094D01*
X184484819Y-49178094D02*
X183484819Y-49511427D01*
X184484819Y-49844761D02*
X183484819Y-49844761D01*
X184484819Y-50320951D02*
X183484819Y-50320951D01*
X183484819Y-50320951D02*
X184484819Y-50892379D01*
X184484819Y-50892379D02*
X183484819Y-50892379D01*
X188244285Y-54494819D02*
X188720475Y-54494819D01*
X188720475Y-54494819D02*
X188720475Y-53494819D01*
X187910951Y-54494819D02*
X187910951Y-53494819D01*
X187910951Y-53494819D02*
X187672856Y-53494819D01*
X187672856Y-53494819D02*
X187529999Y-53542438D01*
X187529999Y-53542438D02*
X187434761Y-53637676D01*
X187434761Y-53637676D02*
X187387142Y-53732914D01*
X187387142Y-53732914D02*
X187339523Y-53923390D01*
X187339523Y-53923390D02*
X187339523Y-54066247D01*
X187339523Y-54066247D02*
X187387142Y-54256723D01*
X187387142Y-54256723D02*
X187434761Y-54351961D01*
X187434761Y-54351961D02*
X187529999Y-54447200D01*
X187529999Y-54447200D02*
X187672856Y-54494819D01*
X187672856Y-54494819D02*
X187910951Y-54494819D01*
X186720475Y-53494819D02*
X186529999Y-53494819D01*
X186529999Y-53494819D02*
X186434761Y-53542438D01*
X186434761Y-53542438D02*
X186339523Y-53637676D01*
X186339523Y-53637676D02*
X186291904Y-53828152D01*
X186291904Y-53828152D02*
X186291904Y-54161485D01*
X186291904Y-54161485D02*
X186339523Y-54351961D01*
X186339523Y-54351961D02*
X186434761Y-54447200D01*
X186434761Y-54447200D02*
X186529999Y-54494819D01*
X186529999Y-54494819D02*
X186720475Y-54494819D01*
X186720475Y-54494819D02*
X186815713Y-54447200D01*
X186815713Y-54447200D02*
X186910951Y-54351961D01*
X186910951Y-54351961D02*
X186958570Y-54161485D01*
X186958570Y-54161485D02*
X186958570Y-53828152D01*
X186958570Y-53828152D02*
X186910951Y-53637676D01*
X186910951Y-53637676D02*
X186815713Y-53542438D01*
X186815713Y-53542438D02*
X186720475Y-53494819D01*
X196684819Y-48225714D02*
X196684819Y-48797142D01*
X197684819Y-48511428D02*
X196684819Y-48511428D01*
X197684819Y-49130476D02*
X197018152Y-49130476D01*
X197208628Y-49130476D02*
X197113390Y-49178095D01*
X197113390Y-49178095D02*
X197065771Y-49225714D01*
X197065771Y-49225714D02*
X197018152Y-49320952D01*
X197018152Y-49320952D02*
X197018152Y-49416190D01*
X197684819Y-50178095D02*
X197161009Y-50178095D01*
X197161009Y-50178095D02*
X197065771Y-50130476D01*
X197065771Y-50130476D02*
X197018152Y-50035238D01*
X197018152Y-50035238D02*
X197018152Y-49844762D01*
X197018152Y-49844762D02*
X197065771Y-49749524D01*
X197637200Y-50178095D02*
X197684819Y-50082857D01*
X197684819Y-50082857D02*
X197684819Y-49844762D01*
X197684819Y-49844762D02*
X197637200Y-49749524D01*
X197637200Y-49749524D02*
X197541961Y-49701905D01*
X197541961Y-49701905D02*
X197446723Y-49701905D01*
X197446723Y-49701905D02*
X197351485Y-49749524D01*
X197351485Y-49749524D02*
X197303866Y-49844762D01*
X197303866Y-49844762D02*
X197303866Y-50082857D01*
X197303866Y-50082857D02*
X197256247Y-50178095D01*
X197018152Y-50654286D02*
X197684819Y-50654286D01*
X197113390Y-50654286D02*
X197065771Y-50701905D01*
X197065771Y-50701905D02*
X197018152Y-50797143D01*
X197018152Y-50797143D02*
X197018152Y-50940000D01*
X197018152Y-50940000D02*
X197065771Y-51035238D01*
X197065771Y-51035238D02*
X197161009Y-51082857D01*
X197161009Y-51082857D02*
X197684819Y-51082857D01*
X197637200Y-51987619D02*
X197684819Y-51892381D01*
X197684819Y-51892381D02*
X197684819Y-51701905D01*
X197684819Y-51701905D02*
X197637200Y-51606667D01*
X197637200Y-51606667D02*
X197589580Y-51559048D01*
X197589580Y-51559048D02*
X197494342Y-51511429D01*
X197494342Y-51511429D02*
X197208628Y-51511429D01*
X197208628Y-51511429D02*
X197113390Y-51559048D01*
X197113390Y-51559048D02*
X197065771Y-51606667D01*
X197065771Y-51606667D02*
X197018152Y-51701905D01*
X197018152Y-51701905D02*
X197018152Y-51892381D01*
X197018152Y-51892381D02*
X197065771Y-51987619D01*
X197684819Y-52416191D02*
X197018152Y-52416191D01*
X196684819Y-52416191D02*
X196732438Y-52368572D01*
X196732438Y-52368572D02*
X196780057Y-52416191D01*
X196780057Y-52416191D02*
X196732438Y-52463810D01*
X196732438Y-52463810D02*
X196684819Y-52416191D01*
X196684819Y-52416191D02*
X196780057Y-52416191D01*
X197637200Y-53273333D02*
X197684819Y-53178095D01*
X197684819Y-53178095D02*
X197684819Y-52987619D01*
X197684819Y-52987619D02*
X197637200Y-52892381D01*
X197637200Y-52892381D02*
X197541961Y-52844762D01*
X197541961Y-52844762D02*
X197161009Y-52844762D01*
X197161009Y-52844762D02*
X197065771Y-52892381D01*
X197065771Y-52892381D02*
X197018152Y-52987619D01*
X197018152Y-52987619D02*
X197018152Y-53178095D01*
X197018152Y-53178095D02*
X197065771Y-53273333D01*
X197065771Y-53273333D02*
X197161009Y-53320952D01*
X197161009Y-53320952D02*
X197256247Y-53320952D01*
X197256247Y-53320952D02*
X197351485Y-52844762D01*
X197018152Y-53654286D02*
X197684819Y-53892381D01*
X197684819Y-53892381D02*
X197018152Y-54130476D01*
X197637200Y-54892381D02*
X197684819Y-54797143D01*
X197684819Y-54797143D02*
X197684819Y-54606667D01*
X197684819Y-54606667D02*
X197637200Y-54511429D01*
X197637200Y-54511429D02*
X197541961Y-54463810D01*
X197541961Y-54463810D02*
X197161009Y-54463810D01*
X197161009Y-54463810D02*
X197065771Y-54511429D01*
X197065771Y-54511429D02*
X197018152Y-54606667D01*
X197018152Y-54606667D02*
X197018152Y-54797143D01*
X197018152Y-54797143D02*
X197065771Y-54892381D01*
X197065771Y-54892381D02*
X197161009Y-54940000D01*
X197161009Y-54940000D02*
X197256247Y-54940000D01*
X197256247Y-54940000D02*
X197351485Y-54463810D01*
X197684819Y-55368572D02*
X197018152Y-55368572D01*
X197208628Y-55368572D02*
X197113390Y-55416191D01*
X197113390Y-55416191D02*
X197065771Y-55463810D01*
X197065771Y-55463810D02*
X197018152Y-55559048D01*
X197018152Y-55559048D02*
X197018152Y-55654286D01*
X192184819Y-126078094D02*
X192994342Y-126078094D01*
X192994342Y-126078094D02*
X193089580Y-126125713D01*
X193089580Y-126125713D02*
X193137200Y-126173332D01*
X193137200Y-126173332D02*
X193184819Y-126268570D01*
X193184819Y-126268570D02*
X193184819Y-126459046D01*
X193184819Y-126459046D02*
X193137200Y-126554284D01*
X193137200Y-126554284D02*
X193089580Y-126601903D01*
X193089580Y-126601903D02*
X192994342Y-126649522D01*
X192994342Y-126649522D02*
X192184819Y-126649522D01*
X193184819Y-127649522D02*
X193184819Y-127078094D01*
X193184819Y-127363808D02*
X192184819Y-127363808D01*
X192184819Y-127363808D02*
X192327676Y-127268570D01*
X192327676Y-127268570D02*
X192422914Y-127173332D01*
X192422914Y-127173332D02*
X192470533Y-127078094D01*
D11*
%TO.C,PwrJumper1*%
X189580000Y-52039999D02*
G75*
G02*
X188880000Y-52739999I-700000J0D01*
G01*
X188880000Y-50739999D02*
G75*
G02*
X189580000Y-51439999I0J-700000D01*
G01*
X186180000Y-52739999D02*
G75*
G02*
X185480000Y-52039999I-1J699999D01*
G01*
X185480000Y-51439999D02*
G75*
G02*
X186180000Y-50739999I699999J1D01*
G01*
X189580000Y-52039999D02*
X189580000Y-51439999D01*
X188930000Y-50739999D02*
X186130000Y-50739999D01*
X186130000Y-52739999D02*
X188930000Y-52739999D01*
X185480000Y-51439999D02*
X185480000Y-52039999D01*
%TO.C,PwrJumper2*%
X195630000Y-53189999D02*
G75*
G02*
X194930000Y-53889999I-700000J0D01*
G01*
X194930000Y-49789999D02*
G75*
G02*
X195630000Y-50489999I1J-699999D01*
G01*
X194330000Y-53889999D02*
G75*
G02*
X193630000Y-53189999I0J700000D01*
G01*
X193630000Y-50489999D02*
G75*
G02*
X194330000Y-49789999I699999J1D01*
G01*
X195630000Y-53239999D02*
X195630000Y-50439999D01*
X194930000Y-49789999D02*
X194330000Y-49789999D01*
X194330000Y-53889999D02*
X194930000Y-53889999D01*
X193630000Y-50439999D02*
X193630000Y-53239999D01*
D12*
%TO.C,J4*%
X166630000Y-144788332D02*
G75*
G02*
X166430000Y-144788332I-100000J0D01*
G01*
X166430000Y-144788332D02*
G75*
G02*
X166630000Y-144788332I100000J0D01*
G01*
X174530001Y-145598332D02*
X170180000Y-145598332D01*
X174530000Y-153098331D02*
X173580000Y-153098332D01*
X174530000Y-150948332D02*
X174530001Y-145598332D01*
X173580000Y-155048332D02*
X171380000Y-155048332D01*
X173580000Y-153098332D02*
X173580000Y-155048332D01*
X171380000Y-155048332D02*
X171380000Y-153098332D01*
X171380000Y-153098332D02*
X164680000Y-153098332D01*
X164680000Y-155048332D02*
X164680000Y-153098332D01*
X162480000Y-155048332D02*
X164680000Y-155048332D01*
X162480000Y-153098332D02*
X162480000Y-155048332D01*
X161530000Y-153098331D02*
X162480000Y-153098332D01*
X161529999Y-145598332D02*
X165880000Y-145598332D01*
X161529999Y-145598332D02*
X161530000Y-150948332D01*
D11*
%TO.C,R37*%
X194952500Y-133802741D02*
X194952500Y-134277257D01*
X193907500Y-133802741D02*
X193907500Y-134277257D01*
%TO.C,C20*%
X195365000Y-59178746D02*
X195365000Y-59701252D01*
X193895000Y-59178746D02*
X193895000Y-59701252D01*
%TO.C,R35*%
X194362742Y-120222500D02*
X194837258Y-120222500D01*
X194362742Y-119177500D02*
X194837258Y-119177500D01*
%TO.C,C30*%
X188170581Y-130349999D02*
X187889419Y-130349999D01*
X188170581Y-129329999D02*
X187889419Y-129329999D01*
D12*
%TO.C,J1*%
X216705000Y-144788332D02*
G75*
G02*
X216505000Y-144788332I-100000J0D01*
G01*
X216505000Y-144788332D02*
G75*
G02*
X216705000Y-144788332I100000J0D01*
G01*
X224605001Y-145598332D02*
X220255000Y-145598332D01*
X224605000Y-153098331D02*
X223655000Y-153098332D01*
X224605000Y-150948332D02*
X224605001Y-145598332D01*
X223655000Y-155048332D02*
X221455000Y-155048332D01*
X223655000Y-153098332D02*
X223655000Y-155048332D01*
X221455000Y-155048332D02*
X221455000Y-153098332D01*
X221455000Y-153098332D02*
X214755000Y-153098332D01*
X214755000Y-155048332D02*
X214755000Y-153098332D01*
X212555000Y-155048332D02*
X214755000Y-155048332D01*
X212555000Y-153098332D02*
X212555000Y-155048332D01*
X211605000Y-153098331D02*
X212555000Y-153098332D01*
X211604999Y-145598332D02*
X215955000Y-145598332D01*
X211604999Y-145598332D02*
X211605000Y-150948332D01*
D11*
%TO.C,D2*%
X193410000Y-139040000D02*
X193080000Y-139280000D01*
X193080000Y-138800000D01*
X193410000Y-139040000D01*
G36*
X193410000Y-139040000D02*
G01*
X193080000Y-139280000D01*
X193080000Y-138800000D01*
X193410000Y-139040000D01*
G37*
X194590000Y-138500000D02*
X194590000Y-136980000D01*
X194590000Y-136980000D02*
X193590000Y-136980000D01*
X194540000Y-138500000D02*
X194590000Y-138500000D01*
X192640000Y-138500000D02*
X193420000Y-138500000D01*
X192470000Y-136980000D02*
X191470000Y-136980000D01*
X191470000Y-138500000D02*
X191520000Y-138500000D01*
X191470000Y-136980000D02*
X191470000Y-138500000D01*
D12*
%TO.C,J2*%
X200013333Y-144788333D02*
G75*
G02*
X199813333Y-144788333I-100000J0D01*
G01*
X199813333Y-144788333D02*
G75*
G02*
X200013333Y-144788333I100000J0D01*
G01*
X207913334Y-145598333D02*
X203563333Y-145598333D01*
X207913333Y-153098332D02*
X206963333Y-153098333D01*
X207913333Y-150948333D02*
X207913334Y-145598333D01*
X206963333Y-155048333D02*
X204763333Y-155048333D01*
X206963333Y-153098333D02*
X206963333Y-155048333D01*
X204763333Y-155048333D02*
X204763333Y-153098333D01*
X204763333Y-153098333D02*
X198063333Y-153098333D01*
X198063333Y-155048333D02*
X198063333Y-153098333D01*
X195863333Y-155048333D02*
X198063333Y-155048333D01*
X195863333Y-153098333D02*
X195863333Y-155048333D01*
X194913333Y-153098332D02*
X195863333Y-153098333D01*
X194913332Y-145598333D02*
X199263333Y-145598333D01*
X194913332Y-145598333D02*
X194913333Y-150948333D01*
%TO.C,J3*%
X183321667Y-144788332D02*
G75*
G02*
X183121667Y-144788332I-100000J0D01*
G01*
X183121667Y-144788332D02*
G75*
G02*
X183321667Y-144788332I100000J0D01*
G01*
X191221668Y-145598332D02*
X186871667Y-145598332D01*
X191221667Y-153098331D02*
X190271667Y-153098332D01*
X191221667Y-150948332D02*
X191221668Y-145598332D01*
X190271667Y-155048332D02*
X188071667Y-155048332D01*
X190271667Y-153098332D02*
X190271667Y-155048332D01*
X188071667Y-155048332D02*
X188071667Y-153098332D01*
X188071667Y-153098332D02*
X181371667Y-153098332D01*
X181371667Y-155048332D02*
X181371667Y-153098332D01*
X179171667Y-155048332D02*
X181371667Y-155048332D01*
X179171667Y-153098332D02*
X179171667Y-155048332D01*
X178221667Y-153098331D02*
X179171667Y-153098332D01*
X178221666Y-145598332D02*
X182571667Y-145598332D01*
X178221666Y-145598332D02*
X178221667Y-150948332D01*
D11*
%TO.C,PwrJumper3*%
X189580000Y-47739999D02*
G75*
G02*
X188880000Y-48439999I-700000J0D01*
G01*
X188880000Y-46439999D02*
G75*
G02*
X189580000Y-47139999I0J-700000D01*
G01*
X186180000Y-48439999D02*
G75*
G02*
X185480000Y-47739999I-1J699999D01*
G01*
X185480000Y-47139999D02*
G75*
G02*
X186180000Y-46439999I699999J1D01*
G01*
X189580000Y-47739999D02*
X189580000Y-47139999D01*
X188930000Y-46439999D02*
X186130000Y-46439999D01*
X186130000Y-48439999D02*
X188930000Y-48439999D01*
X185480000Y-47139999D02*
X185480000Y-47739999D01*
%TO.C,R34*%
X191737258Y-119177500D02*
X191262742Y-119177500D01*
X191737258Y-120222500D02*
X191262742Y-120222500D01*
%TO.C,R1_Term1*%
X168267258Y-142862500D02*
X167792742Y-142862500D01*
X168267258Y-141817500D02*
X167792742Y-141817500D01*
%TO.C,U1*%
X190560000Y-124239999D02*
X190230000Y-124479999D01*
X190230000Y-123999999D01*
X190560000Y-124239999D01*
G36*
X190560000Y-124239999D02*
G01*
X190230000Y-124479999D01*
X190230000Y-123999999D01*
X190560000Y-124239999D01*
G37*
X195589999Y-128899999D02*
X195589999Y-124779999D01*
X195589999Y-124779999D02*
X195495000Y-124779999D01*
X195495000Y-128899999D02*
X195589999Y-128899999D01*
X190565000Y-124779999D02*
X190470001Y-124779999D01*
X190470001Y-128899999D02*
X190565000Y-128899999D01*
X190470001Y-124779999D02*
X190470001Y-128899999D01*
%TO.C,C19*%
X185765001Y-59178746D02*
X185765001Y-59701252D01*
X184295001Y-59178746D02*
X184295001Y-59701252D01*
%TO.C,R2_Term1*%
X217892742Y-140162500D02*
X218367258Y-140162500D01*
X217892742Y-139117500D02*
X218367258Y-139117500D01*
%TO.C,J10*%
X186520000Y-58409999D02*
X186190000Y-58649999D01*
X186190000Y-58169999D01*
X186520000Y-58409999D01*
G36*
X186520000Y-58409999D02*
G01*
X186190000Y-58649999D01*
X186190000Y-58169999D01*
X186520000Y-58409999D01*
G37*
X193240001Y-59689999D02*
X193240000Y-63449999D01*
X193240000Y-63449999D02*
X191980001Y-63449999D01*
X186420000Y-63449999D02*
X187679999Y-63449999D01*
X186419999Y-59689999D02*
X186420000Y-63449999D01*
%TO.C,R36*%
X192152500Y-133702742D02*
X192152500Y-134177258D01*
X191107500Y-133702742D02*
X191107500Y-134177258D01*
%TD*%
M02*
