%TF.GenerationSoftware,KiCad,Pcbnew,9.0.6-9.0.6~ubuntu24.04.1*%
%TF.CreationDate,2025-11-23T01:43:00+01:00*%
%TF.ProjectId,COM_BOARD,434f4d5f-424f-4415-9244-2e6b69636164,rev?*%
%TF.SameCoordinates,Original*%
%TF.FileFunction,Soldermask,Top*%
%TF.FilePolarity,Negative*%
%FSLAX46Y46*%
G04 Gerber Fmt 4.6, Leading zero omitted, Abs format (unit mm)*
G04 Created by KiCad (PCBNEW 9.0.6-9.0.6~ubuntu24.04.1) date 2025-11-23 01:43:00*
%MOMM*%
%LPD*%
G01*
G04 APERTURE LIST*
%ADD10O,1.600000X1.600000*%
%ADD11C,0.800000*%
%ADD12C,6.400000*%
%ADD13C,1.294000*%
%ADD14C,0.890000*%
G04 APERTURE END LIST*
D10*
%TO.C,A1*%
X193940000Y-41740000D03*
X191400000Y-41740000D03*
X188860000Y-41740000D03*
X186320000Y-41740000D03*
X183780000Y-41740000D03*
X166000000Y-90000000D03*
X168540000Y-90000000D03*
X178700000Y-90000000D03*
X181240000Y-90000000D03*
%TD*%
D11*
%TO.C,H16*%
X175600000Y-99000000D03*
X176302944Y-97302944D03*
X176302944Y-100697056D03*
X178000000Y-96600000D03*
D12*
X178000000Y-99000000D03*
D11*
X178000000Y-101400000D03*
X179697056Y-97302944D03*
X179697056Y-100697056D03*
X180400000Y-99000000D03*
%TD*%
%TO.C,H15*%
X226630000Y-150739999D03*
X227332944Y-149042943D03*
X227332944Y-152437055D03*
X229030000Y-148339999D03*
D12*
X229030000Y-150739999D03*
D11*
X229030000Y-153139999D03*
X230727056Y-149042943D03*
X230727056Y-152437055D03*
X231430000Y-150739999D03*
%TD*%
%TO.C,H14*%
X205600000Y-99000000D03*
X206302944Y-97302944D03*
X206302944Y-100697056D03*
X208000000Y-96600000D03*
D12*
X208000000Y-99000000D03*
D11*
X208000000Y-101400000D03*
X209697056Y-97302944D03*
X209697056Y-100697056D03*
X210400000Y-99000000D03*
%TD*%
%TO.C,H13*%
X154630000Y-150739999D03*
X155332944Y-149042943D03*
X155332944Y-152437055D03*
X157030000Y-148339999D03*
D12*
X157030000Y-150739999D03*
D11*
X157030000Y-153139999D03*
X158727056Y-149042943D03*
X158727056Y-152437055D03*
X159430000Y-150739999D03*
%TD*%
%TO.C,H12*%
X205600000Y-129000000D03*
X206302944Y-127302944D03*
X206302944Y-130697056D03*
X208000000Y-126600000D03*
D12*
X208000000Y-129000000D03*
D11*
X208000000Y-131400000D03*
X209697056Y-127302944D03*
X209697056Y-130697056D03*
X210400000Y-129000000D03*
%TD*%
%TO.C,H11*%
X226630000Y-28740000D03*
X227332944Y-27042944D03*
X227332944Y-30437056D03*
X229030000Y-26340000D03*
D12*
X229030000Y-28740000D03*
D11*
X229030000Y-31140000D03*
X230727056Y-27042944D03*
X230727056Y-30437056D03*
X231430000Y-28740000D03*
%TD*%
%TO.C,H10*%
X175600000Y-129000000D03*
X176302944Y-127302944D03*
X176302944Y-130697056D03*
X178000000Y-126600000D03*
D12*
X178000000Y-129000000D03*
D11*
X178000000Y-131400000D03*
X179697056Y-127302944D03*
X179697056Y-130697056D03*
X180400000Y-129000000D03*
%TD*%
%TO.C,H9*%
X154630000Y-28740000D03*
X155332944Y-27042944D03*
X155332944Y-30437056D03*
X157030000Y-26340000D03*
D12*
X157030000Y-28740000D03*
D11*
X157030000Y-31140000D03*
X158727056Y-27042944D03*
X158727056Y-30437056D03*
X159430000Y-28740000D03*
%TD*%
D13*
%TO.C,J4*%
X162105000Y-152048332D03*
X173955000Y-152048332D03*
D14*
X165530000Y-149598332D03*
X170530000Y-149598332D03*
%TD*%
D13*
%TO.C,J1*%
X212180000Y-152048332D03*
X224030000Y-152048332D03*
D14*
X215605000Y-149598332D03*
X220605000Y-149598332D03*
%TD*%
D13*
%TO.C,J2*%
X195488333Y-152048333D03*
X207338333Y-152048333D03*
D14*
X198913333Y-149598333D03*
X203913333Y-149598333D03*
%TD*%
D13*
%TO.C,J3*%
X178796667Y-152048332D03*
X190646667Y-152048332D03*
D14*
X182221667Y-149598332D03*
X187221667Y-149598332D03*
%TD*%
M02*
