M48
; DRILL file {KiCad 9.0.6-9.0.6~ubuntu24.04.1} date 2025-11-24T18:38:13+0100
; FORMAT={-:-/ absolute / metric / decimal}
; #@! TF.CreationDate,2025-11-24T18:38:13+01:00
; #@! TF.GenerationSoftware,Kicad,Pcbnew,9.0.6-9.0.6~ubuntu24.04.1
; #@! TF.FileFunction,Plated,1,2,PTH
FMAT,2
METRIC
; #@! TA.AperFunction,Plated,PTH,ViaDrill
T1C0.300
; #@! TA.AperFunction,Plated,PTH,ComponentDrill
T2C0.500
; #@! TA.AperFunction,Plated,PTH,ComponentDrill
T3C0.740
; #@! TA.AperFunction,Plated,PTH,ComponentDrill
T4C1.000
; #@! TA.AperFunction,Plated,PTH,ComponentDrill
T5C3.200
%
G90
G05
T1
X156.13Y-36.62
X156.13Y-41.62
X161.1Y-41.6
X161.13Y-41.62
X161.13Y-26.62
X161.13Y-31.62
X161.13Y-36.62
X166.1Y-41.6
X166.13Y-36.62
X166.13Y-26.62
X166.53Y-146.073
X166.53Y-147.623
X167.53Y-146.073
X167.53Y-147.7
X168.53Y-146.073
X168.53Y-147.623
X169.53Y-146.073
X169.53Y-147.623
X171.1Y-41.6
X171.13Y-26.62
X171.13Y-36.62
X176.1Y-41.6
X176.13Y-26.62
X176.13Y-36.62
X181.1Y-41.6
X181.13Y-26.62
X181.13Y-36.62
X183.222Y-146.073
X183.222Y-147.623
X184.222Y-146.073
X184.222Y-147.623
X185.222Y-147.623
X185.222Y-146.073
X186.13Y-26.62
X186.13Y-36.62
X186.222Y-146.073
X186.222Y-147.623
X187.53Y-47.44
X187.63Y-49.44
X188.805Y-129.84
X191.125Y-129.315
X191.13Y-26.62
X191.13Y-36.62
X192.08Y-138.677
X192.08Y-143.65
X193.98Y-138.677
X193.98Y-142.44
X194.63Y-51.84
X196.13Y-26.62
X196.13Y-36.62
X196.13Y-51.84
X197.33Y-51.84
X199.913Y-146.073
X199.913Y-147.623
X200.913Y-146.065
X200.913Y-147.623
X201.1Y-86.6
X201.1Y-36.6
X201.1Y-41.6
X201.13Y-26.62
X201.13Y-31.62
X201.13Y-46.62
X201.13Y-51.62
X201.13Y-56.62
X201.13Y-61.62
X201.13Y-66.62
X201.13Y-71.62
X201.13Y-76.62
X201.13Y-81.62
X201.13Y-91.62
X201.13Y-96.62
X201.13Y-101.62
X201.13Y-106.62
X201.13Y-111.62
X201.13Y-116.62
X201.13Y-121.62
X201.13Y-126.62
X201.913Y-146.0
X201.913Y-147.623
X202.913Y-146.073
X202.913Y-147.623
X206.1Y-86.6
X206.13Y-46.62
X206.13Y-51.62
X206.13Y-56.62
X206.13Y-61.62
X206.13Y-106.62
X206.13Y-111.62
X206.13Y-26.62
X206.13Y-31.62
X206.13Y-66.62
X206.13Y-71.62
X206.13Y-76.62
X206.13Y-81.62
X206.13Y-91.62
X206.13Y-116.62
X206.13Y-121.62
X211.1Y-86.6
X211.13Y-46.62
X211.13Y-106.62
X211.13Y-111.62
X211.13Y-116.62
X211.13Y-26.62
X211.13Y-31.62
X211.13Y-76.62
X211.13Y-81.62
X211.13Y-91.62
X211.13Y-121.62
X215.68Y-140.99
X216.13Y-46.62
X216.13Y-91.62
X216.13Y-96.62
X216.13Y-101.62
X216.13Y-106.62
X216.13Y-111.62
X216.13Y-116.62
X216.13Y-121.62
X216.13Y-26.62
X216.13Y-31.62
X216.13Y-76.62
X216.13Y-81.62
X216.13Y-86.62
X216.13Y-126.62
X216.605Y-146.073
X216.605Y-147.623
X217.605Y-146.073
X217.63Y-147.6
X218.605Y-146.073
X218.63Y-147.6
X219.605Y-146.073
X219.605Y-147.623
X220.63Y-140.94
X221.13Y-31.62
X221.13Y-46.62
X221.13Y-76.62
X221.13Y-86.62
X221.13Y-91.62
X221.13Y-96.62
X221.13Y-101.62
X221.13Y-106.62
X221.13Y-111.62
X221.13Y-116.62
X221.13Y-121.62
X221.13Y-126.62
X221.13Y-26.62
X221.13Y-81.62
X226.13Y-31.62
X226.13Y-46.62
X226.13Y-76.62
X226.13Y-81.62
X226.13Y-86.62
X226.13Y-91.62
X226.13Y-96.62
X226.13Y-101.62
X226.13Y-106.62
X226.13Y-111.62
X226.13Y-116.62
X226.13Y-121.62
X226.13Y-126.62
X231.13Y-46.62
X231.13Y-51.62
X231.13Y-56.62
X231.13Y-61.62
X231.13Y-66.62
X231.13Y-71.62
X231.13Y-76.62
X231.13Y-81.62
X231.13Y-86.62
X231.13Y-91.62
X231.13Y-96.62
X231.13Y-101.62
X231.13Y-106.62
X231.13Y-111.62
X231.13Y-116.62
X231.13Y-121.62
X231.13Y-126.62
T2
X154.63Y-28.74
X154.63Y-150.74
X155.333Y-27.043
X155.333Y-30.437
X155.333Y-149.043
X155.333Y-152.437
X157.03Y-26.34
X157.03Y-31.14
X157.03Y-148.34
X157.03Y-153.14
X158.727Y-27.043
X158.727Y-30.437
X158.727Y-149.043
X158.727Y-152.437
X159.43Y-28.74
X159.43Y-150.74
X175.6Y-99.0
X175.6Y-129.0
X176.303Y-97.303
X176.303Y-100.697
X176.303Y-127.303
X176.303Y-130.697
X178.0Y-96.6
X178.0Y-101.4
X178.0Y-126.6
X178.0Y-131.4
X179.697Y-97.303
X179.697Y-100.697
X179.697Y-127.303
X179.697Y-130.697
X180.4Y-99.0
X180.4Y-129.0
X205.6Y-99.0
X205.6Y-129.0
X206.303Y-97.303
X206.303Y-100.697
X206.303Y-127.303
X206.303Y-130.697
X208.0Y-96.6
X208.0Y-101.4
X208.0Y-126.6
X208.0Y-131.4
X209.697Y-97.303
X209.697Y-100.697
X209.697Y-127.303
X209.697Y-130.697
X210.4Y-99.0
X210.4Y-129.0
X226.63Y-28.74
X226.63Y-150.74
X227.333Y-27.043
X227.333Y-30.437
X227.333Y-149.043
X227.333Y-152.437
X229.03Y-26.34
X229.03Y-31.14
X229.03Y-148.34
X229.03Y-153.14
X230.727Y-27.043
X230.727Y-30.437
X230.727Y-149.043
X230.727Y-152.437
X231.43Y-28.74
X231.43Y-150.74
T3
X162.105Y-152.048
X173.955Y-152.048
X178.797Y-152.048
X190.647Y-152.048
X195.488Y-152.048
X207.338Y-152.048
X212.18Y-152.048
X224.03Y-152.048
T4
X166.0Y-90.0
X168.54Y-90.0
X178.7Y-90.0
X181.24Y-90.0
X183.78Y-41.74
X186.32Y-41.74
X188.86Y-41.74
X191.4Y-41.74
X193.94Y-41.74
T5
X157.03Y-28.74
X157.03Y-150.74
X178.0Y-99.0
X178.0Y-129.0
X208.0Y-99.0
X208.0Y-129.0
X229.03Y-28.74
X229.03Y-150.74
M30
