%TF.GenerationSoftware,KiCad,Pcbnew,9.0.6-9.0.6~ubuntu24.04.1*%
%TF.CreationDate,2025-11-20T19:16:13+01:00*%
%TF.ProjectId,FOC_CONTROLLER_V2,464f435f-434f-44e5-9452-4f4c4c45525f,rev?*%
%TF.SameCoordinates,Original*%
%TF.FileFunction,Paste,Bot*%
%TF.FilePolarity,Positive*%
%FSLAX46Y46*%
G04 Gerber Fmt 4.6, Leading zero omitted, Abs format (unit mm)*
G04 Created by KiCad (PCBNEW 9.0.6-9.0.6~ubuntu24.04.1) date 2025-11-20 19:16:13*
%MOMM*%
%LPD*%
G01*
G04 APERTURE LIST*
%ADD10R,0.710000X1.372000*%
%ADD11R,0.710000X0.590000*%
%ADD12R,4.520000X3.850000*%
G04 APERTURE END LIST*
D10*
%TO.C,Q4*%
X139305000Y-75807000D03*
X138035000Y-75807000D03*
X136765000Y-75807000D03*
X135495000Y-75807000D03*
D11*
X139305000Y-69993000D03*
X138035000Y-69993000D03*
X136765000Y-69993000D03*
X135495000Y-69993000D03*
D12*
X137400000Y-72213000D03*
%TD*%
D10*
%TO.C,Q1*%
X128690000Y-75807000D03*
X127420000Y-75807000D03*
X126150000Y-75807000D03*
X124880000Y-75807000D03*
D11*
X128690000Y-69993000D03*
X127420000Y-69993000D03*
X126150000Y-69993000D03*
X124880000Y-69993000D03*
D12*
X126785000Y-72213000D03*
%TD*%
D10*
%TO.C,Q3*%
X130180000Y-70393000D03*
X131450000Y-70393000D03*
X132720000Y-70393000D03*
X133990000Y-70393000D03*
D11*
X130180000Y-76207000D03*
X131450000Y-76207000D03*
X132720000Y-76207000D03*
X133990000Y-76207000D03*
D12*
X132085000Y-73987000D03*
%TD*%
D10*
%TO.C,Q5*%
X151390000Y-70393000D03*
X152660000Y-70393000D03*
X153930000Y-70393000D03*
X155200000Y-70393000D03*
D11*
X151390000Y-76207000D03*
X152660000Y-76207000D03*
X153930000Y-76207000D03*
X155200000Y-76207000D03*
D12*
X153295000Y-73987000D03*
%TD*%
D10*
%TO.C,Q6*%
X149905000Y-75807000D03*
X148635000Y-75807000D03*
X147365000Y-75807000D03*
X146095000Y-75807000D03*
D11*
X149905000Y-69993000D03*
X148635000Y-69993000D03*
X147365000Y-69993000D03*
X146095000Y-69993000D03*
D12*
X148000000Y-72213000D03*
%TD*%
D10*
%TO.C,Q2*%
X140795000Y-70393000D03*
X142065000Y-70393000D03*
X143335000Y-70393000D03*
X144605000Y-70393000D03*
D11*
X140795000Y-76207000D03*
X142065000Y-76207000D03*
X143335000Y-76207000D03*
X144605000Y-76207000D03*
D12*
X142700000Y-73987000D03*
%TD*%
M02*
