%TF.GenerationSoftware,KiCad,Pcbnew,9.0.6-9.0.6~ubuntu24.04.1*%
%TF.CreationDate,2025-11-20T19:16:14+01:00*%
%TF.ProjectId,FOC_CONTROLLER_V2,464f435f-434f-44e5-9452-4f4c4c45525f,rev?*%
%TF.SameCoordinates,Original*%
%TF.FileFunction,Soldermask,Bot*%
%TF.FilePolarity,Negative*%
%FSLAX46Y46*%
G04 Gerber Fmt 4.6, Leading zero omitted, Abs format (unit mm)*
G04 Created by KiCad (PCBNEW 9.0.6-9.0.6~ubuntu24.04.1) date 2025-11-20 19:16:14*
%MOMM*%
%LPD*%
G01*
G04 APERTURE LIST*
G04 Aperture macros list*
%AMRoundRect*
0 Rectangle with rounded corners*
0 $1 Rounding radius*
0 $2 $3 $4 $5 $6 $7 $8 $9 X,Y pos of 4 corners*
0 Add a 4 corners polygon primitive as box body*
4,1,4,$2,$3,$4,$5,$6,$7,$8,$9,$2,$3,0*
0 Add four circle primitives for the rounded corners*
1,1,$1+$1,$2,$3*
1,1,$1+$1,$4,$5*
1,1,$1+$1,$6,$7*
1,1,$1+$1,$8,$9*
0 Add four rect primitives between the rounded corners*
20,1,$1+$1,$2,$3,$4,$5,0*
20,1,$1+$1,$4,$5,$6,$7,0*
20,1,$1+$1,$6,$7,$8,$9,0*
20,1,$1+$1,$8,$9,$2,$3,0*%
G04 Aperture macros list end*
%ADD10C,3.200000*%
%ADD11C,0.800000*%
%ADD12C,6.400000*%
%ADD13C,0.890000*%
%ADD14C,1.294000*%
%ADD15R,2.000000X0.900000*%
%ADD16RoundRect,1.025000X1.025000X-1.025000X1.025000X1.025000X-1.025000X1.025000X-1.025000X-1.025000X0*%
%ADD17C,4.100000*%
%ADD18R,0.710000X1.372000*%
%ADD19R,0.710000X0.590000*%
%ADD20R,4.520000X3.850000*%
G04 APERTURE END LIST*
D10*
%TO.C,J2*%
X126505000Y-65035000D03*
X132375000Y-65035000D03*
X126505000Y-59165000D03*
X132375000Y-59165000D03*
%TD*%
D11*
%TO.C,H4*%
X115100000Y-67000000D03*
X115802944Y-65302944D03*
X115802944Y-68697056D03*
X117500000Y-64600000D03*
D12*
X117500000Y-67000000D03*
D11*
X117500000Y-69400000D03*
X119197056Y-65302944D03*
X119197056Y-68697056D03*
X119900000Y-67000000D03*
%TD*%
D13*
%TO.C,J11*%
X105057500Y-115200000D03*
X105057500Y-120200000D03*
D14*
X102607500Y-111775000D03*
X102607500Y-123625000D03*
%TD*%
D10*
%TO.C,V*%
X137065000Y-65035000D03*
X142935000Y-65035000D03*
X137065000Y-59165000D03*
X142935000Y-59165000D03*
%TD*%
D15*
%TO.C,DC IN*%
X110150000Y-105950000D03*
X110150000Y-92450000D03*
D16*
X116150000Y-102800000D03*
D17*
X116150000Y-95600000D03*
%TD*%
D11*
%TO.C,RS485*%
X115100000Y-125000000D03*
X115802944Y-123302944D03*
X115802944Y-126697056D03*
X117500000Y-122600000D03*
D12*
X117500000Y-125000000D03*
D11*
X117500000Y-127400000D03*
X119197056Y-123302944D03*
X119197056Y-126697056D03*
X119900000Y-125000000D03*
%TD*%
D10*
%TO.C,J4*%
X147655000Y-65035000D03*
X153525000Y-65035000D03*
X147655000Y-59165000D03*
X153525000Y-59165000D03*
%TD*%
D11*
%TO.C,H3*%
X160100000Y-67000000D03*
X160802944Y-65302944D03*
X160802944Y-68697056D03*
X162500000Y-64600000D03*
D12*
X162500000Y-67000000D03*
D11*
X162500000Y-69400000D03*
X164197056Y-65302944D03*
X164197056Y-68697056D03*
X164900000Y-67000000D03*
%TD*%
%TO.C,H2*%
X160100000Y-125000000D03*
X160802944Y-123302944D03*
X160802944Y-126697056D03*
X162500000Y-122600000D03*
D12*
X162500000Y-125000000D03*
D11*
X162500000Y-127400000D03*
X164197056Y-123302944D03*
X164197056Y-126697056D03*
X164900000Y-125000000D03*
%TD*%
D18*
%TO.C,Q4*%
X139305000Y-75807000D03*
X138035000Y-75807000D03*
X136765000Y-75807000D03*
X135495000Y-75807000D03*
D19*
X139305000Y-69993000D03*
X138035000Y-69993000D03*
X136765000Y-69993000D03*
X135495000Y-69993000D03*
D20*
X137400000Y-72213000D03*
%TD*%
D18*
%TO.C,Q1*%
X128690000Y-75807000D03*
X127420000Y-75807000D03*
X126150000Y-75807000D03*
X124880000Y-75807000D03*
D19*
X128690000Y-69993000D03*
X127420000Y-69993000D03*
X126150000Y-69993000D03*
X124880000Y-69993000D03*
D20*
X126785000Y-72213000D03*
%TD*%
D18*
%TO.C,Q3*%
X130180000Y-70393000D03*
X131450000Y-70393000D03*
X132720000Y-70393000D03*
X133990000Y-70393000D03*
D19*
X130180000Y-76207000D03*
X131450000Y-76207000D03*
X132720000Y-76207000D03*
X133990000Y-76207000D03*
D20*
X132085000Y-73987000D03*
%TD*%
D18*
%TO.C,Q5*%
X151390000Y-70393000D03*
X152660000Y-70393000D03*
X153930000Y-70393000D03*
X155200000Y-70393000D03*
D19*
X151390000Y-76207000D03*
X152660000Y-76207000D03*
X153930000Y-76207000D03*
X155200000Y-76207000D03*
D20*
X153295000Y-73987000D03*
%TD*%
D18*
%TO.C,Q6*%
X149905000Y-75807000D03*
X148635000Y-75807000D03*
X147365000Y-75807000D03*
X146095000Y-75807000D03*
D19*
X149905000Y-69993000D03*
X148635000Y-69993000D03*
X147365000Y-69993000D03*
X146095000Y-69993000D03*
D20*
X148000000Y-72213000D03*
%TD*%
D18*
%TO.C,Q2*%
X140795000Y-70393000D03*
X142065000Y-70393000D03*
X143335000Y-70393000D03*
X144605000Y-70393000D03*
D19*
X140795000Y-76207000D03*
X142065000Y-76207000D03*
X143335000Y-76207000D03*
X144605000Y-76207000D03*
D20*
X142700000Y-73987000D03*
%TD*%
M02*
