%TF.GenerationSoftware,KiCad,Pcbnew,9.0.6-9.0.6~ubuntu24.04.1*%
%TF.CreationDate,2025-12-18T12:30:08+01:00*%
%TF.ProjectId,PCB_ENCODER,5043425f-454e-4434-9f44-45522e6b6963,rev?*%
%TF.SameCoordinates,Original*%
%TF.FileFunction,Copper,L1,Top*%
%TF.FilePolarity,Positive*%
%FSLAX46Y46*%
G04 Gerber Fmt 4.6, Leading zero omitted, Abs format (unit mm)*
G04 Created by KiCad (PCBNEW 9.0.6-9.0.6~ubuntu24.04.1) date 2025-12-18 12:30:08*
%MOMM*%
%LPD*%
G01*
G04 APERTURE LIST*
G04 Aperture macros list*
%AMRoundRect*
0 Rectangle with rounded corners*
0 $1 Rounding radius*
0 $2 $3 $4 $5 $6 $7 $8 $9 X,Y pos of 4 corners*
0 Add a 4 corners polygon primitive as box body*
4,1,4,$2,$3,$4,$5,$6,$7,$8,$9,$2,$3,0*
0 Add four circle primitives for the rounded corners*
1,1,$1+$1,$2,$3*
1,1,$1+$1,$4,$5*
1,1,$1+$1,$6,$7*
1,1,$1+$1,$8,$9*
0 Add four rect primitives between the rounded corners*
20,1,$1+$1,$2,$3,$4,$5,0*
20,1,$1+$1,$4,$5,$6,$7,0*
20,1,$1+$1,$6,$7,$8,$9,0*
20,1,$1+$1,$8,$9,$2,$3,0*%
%AMRotRect*
0 Rectangle, with rotation*
0 The origin of the aperture is its center*
0 $1 length*
0 $2 width*
0 $3 Rotation angle, in degrees counterclockwise*
0 Add horizontal line*
21,1,$1,$2,0,0,$3*%
G04 Aperture macros list end*
%TA.AperFunction,SMDPad,CuDef*%
%ADD10RoundRect,0.225000X0.017678X-0.335876X0.335876X-0.017678X-0.017678X0.335876X-0.335876X0.017678X0*%
%TD*%
%TA.AperFunction,ComponentPad*%
%ADD11C,0.800000*%
%TD*%
%TA.AperFunction,ComponentPad*%
%ADD12C,6.400000*%
%TD*%
%TA.AperFunction,SMDPad,CuDef*%
%ADD13RoundRect,0.200000X-0.335876X-0.053033X-0.053033X-0.335876X0.335876X0.053033X0.053033X0.335876X0*%
%TD*%
%TA.AperFunction,SMDPad,CuDef*%
%ADD14RoundRect,0.150000X-0.388909X0.601041X-0.601041X0.388909X0.388909X-0.601041X0.601041X-0.388909X0*%
%TD*%
%TA.AperFunction,SMDPad,CuDef*%
%ADD15RoundRect,0.250000X-0.601041X0.954594X-0.954594X0.601041X0.601041X-0.954594X0.954594X-0.601041X0*%
%TD*%
%TA.AperFunction,SMDPad,CuDef*%
%ADD16RoundRect,0.062500X0.203293X0.291682X-0.291682X-0.203293X-0.203293X-0.291682X0.291682X0.203293X0*%
%TD*%
%TA.AperFunction,SMDPad,CuDef*%
%ADD17RoundRect,0.062500X-0.203293X0.291682X-0.291682X0.203293X0.203293X-0.291682X0.291682X-0.203293X0*%
%TD*%
%TA.AperFunction,HeatsinkPad*%
%ADD18RotRect,1.700000X1.700000X225.000000*%
%TD*%
%TA.AperFunction,SMDPad,CuDef*%
%ADD19RoundRect,0.150000X0.601041X0.388909X0.388909X0.601041X-0.601041X-0.388909X-0.388909X-0.601041X0*%
%TD*%
%TA.AperFunction,SMDPad,CuDef*%
%ADD20RoundRect,0.250000X0.954594X0.601041X0.601041X0.954594X-0.954594X-0.601041X-0.601041X-0.954594X0*%
%TD*%
%TA.AperFunction,ViaPad*%
%ADD21C,0.400000*%
%TD*%
%TA.AperFunction,Conductor*%
%ADD22C,0.200000*%
%TD*%
G04 APERTURE END LIST*
D10*
%TO.P,C22,1*%
%TO.N,+3.3V*%
X102201992Y-52448008D03*
%TO.P,C22,2*%
%TO.N,GND*%
X103298008Y-51351992D03*
%TD*%
D11*
%TO.P,H2,1,1*%
%TO.N,GND*%
X97850000Y-62250000D03*
X98552944Y-60552944D03*
X98552944Y-63947056D03*
X100250000Y-59850000D03*
D12*
X100250000Y-62250000D03*
D11*
X100250000Y-64650000D03*
X101947056Y-60552944D03*
X101947056Y-63947056D03*
X102650000Y-62250000D03*
%TD*%
%TO.P,H3,1,1*%
%TO.N,GND*%
X85100000Y-49500000D03*
X85802944Y-47802944D03*
X85802944Y-51197056D03*
X87500000Y-47100000D03*
D12*
X87500000Y-49500000D03*
D11*
X87500000Y-51900000D03*
X89197056Y-47802944D03*
X89197056Y-51197056D03*
X89900000Y-49500000D03*
%TD*%
%TO.P,H4,1,1*%
%TO.N,GND*%
X97850000Y-36750000D03*
X98552944Y-35052944D03*
X98552944Y-38447056D03*
X100250000Y-34350000D03*
D12*
X100250000Y-36750000D03*
D11*
X100250000Y-39150000D03*
X101947056Y-35052944D03*
X101947056Y-38447056D03*
X102650000Y-36750000D03*
%TD*%
D13*
%TO.P,R1,1*%
%TO.N,/SPI_CS*%
X97716637Y-43966637D03*
%TO.P,R1,2*%
%TO.N,+3.3V*%
X98883363Y-45133363D03*
%TD*%
D14*
%TO.P,J2,1,Pin_1*%
%TO.N,+3.3V*%
X94442120Y-39272703D03*
%TO.P,J2,2,Pin_2*%
%TO.N,/SPI_CS*%
X93558237Y-40156586D03*
%TO.P,J2,3,Pin_3*%
%TO.N,/SPI_SCLK*%
X92674353Y-41040470D03*
%TO.P,J2,4,Pin_4*%
%TO.N,/SPI_MISO*%
X91790470Y-41924353D03*
%TO.P,J2,5,Pin_5*%
%TO.N,/SPI_MOSI*%
X90906586Y-42808237D03*
%TO.P,J2,6,Pin_6*%
%TO.N,GND*%
X90022703Y-43692120D03*
D15*
%TO.P,J2,MP*%
%TO.N,N/C*%
X93487526Y-35701814D03*
X86451814Y-42737526D03*
%TD*%
D11*
%TO.P,H1,1,1*%
%TO.N,GND*%
X110600000Y-49500000D03*
X111302944Y-47802944D03*
X111302944Y-51197056D03*
X113000000Y-47100000D03*
D12*
X113000000Y-49500000D03*
D11*
X113000000Y-51900000D03*
X114697056Y-47802944D03*
X114697056Y-51197056D03*
X115400000Y-49500000D03*
%TD*%
D13*
%TO.P,R37,1*%
%TO.N,/SPI_SCLK*%
X95166637Y-43616637D03*
%TO.P,R37,2*%
%TO.N,Net-(IC1-SCLK)*%
X96333363Y-44783363D03*
%TD*%
D16*
%TO.P,IC1,1,V*%
%TO.N,unconnected-(IC1-V-Pad1)*%
X101814474Y-48996186D03*
%TO.P,IC1,2,A*%
%TO.N,/A*%
X101460920Y-48642633D03*
%TO.P,IC1,3,Z*%
%TO.N,/Z*%
X101107367Y-48289080D03*
%TO.P,IC1,4,MOSI*%
%TO.N,/SPI_MOSI*%
X100753814Y-47935526D03*
D17*
%TO.P,IC1,5,CS*%
%TO.N,/SPI_CS*%
X99746186Y-47935526D03*
%TO.P,IC1,6,B*%
%TO.N,/B*%
X99392633Y-48289080D03*
%TO.P,IC1,7,MISO*%
%TO.N,/SPI_MISO*%
X99039080Y-48642633D03*
%TO.P,IC1,8,GND*%
%TO.N,GND*%
X98685526Y-48996186D03*
D16*
%TO.P,IC1,9,W*%
%TO.N,unconnected-(IC1-W-Pad9)*%
X98685526Y-50003814D03*
%TO.P,IC1,10,TEST*%
%TO.N,GND*%
X99039080Y-50357367D03*
%TO.P,IC1,11,MGL*%
%TO.N,unconnected-(IC1-MGL-Pad11)*%
X99392633Y-50710920D03*
%TO.P,IC1,12,SCLK*%
%TO.N,Net-(IC1-SCLK)*%
X99746186Y-51064474D03*
D17*
%TO.P,IC1,13,VDD*%
%TO.N,+3.3V*%
X100753814Y-51064474D03*
%TO.P,IC1,14,N/C*%
%TO.N,unconnected-(IC1-N{slash}C-Pad14)*%
X101107367Y-50710920D03*
%TO.P,IC1,15,U*%
%TO.N,unconnected-(IC1-U-Pad15)*%
X101460920Y-50357367D03*
%TO.P,IC1,16,MGH*%
%TO.N,unconnected-(IC1-MGH-Pad16)*%
X101814474Y-50003814D03*
D18*
%TO.P,IC1,17,EP*%
%TO.N,GND*%
X100250000Y-49500000D03*
%TD*%
D19*
%TO.P,J1,1,Pin_1*%
%TO.N,+3.3V*%
X110477297Y-43692120D03*
%TO.P,J1,2,Pin_2*%
%TO.N,/Z*%
X109593414Y-42808237D03*
%TO.P,J1,3,Pin_3*%
%TO.N,unconnected-(J1-Pin_3-Pad3)*%
X108709530Y-41924353D03*
%TO.P,J1,4,Pin_4*%
%TO.N,/B*%
X107825647Y-41040470D03*
%TO.P,J1,5,Pin_5*%
%TO.N,/A*%
X106941763Y-40156586D03*
%TO.P,J1,6,Pin_6*%
%TO.N,GND*%
X106057880Y-39272703D03*
D20*
%TO.P,J1,MP*%
%TO.N,N/C*%
X114048186Y-42737526D03*
X107012474Y-35701814D03*
%TD*%
D21*
%TO.N,GND*%
X100250000Y-49500000D03*
%TO.N,+3.3V*%
X101450000Y-51750000D03*
X110477297Y-43692120D03*
X100150000Y-46400000D03*
%TO.N,/B*%
X107825647Y-41040470D03*
X97050000Y-45950000D03*
%TD*%
D22*
%TO.N,GND*%
X99039080Y-50357367D02*
X99039080Y-50360920D01*
X98685526Y-48996186D02*
X99189340Y-49500000D01*
X99039080Y-50357367D02*
X99896447Y-49500000D01*
X99896447Y-49500000D02*
X100250000Y-49500000D01*
X99189340Y-49500000D02*
X100250000Y-49500000D01*
%TO.N,+3.3V*%
X100764474Y-51064474D02*
X101450000Y-51750000D01*
X100150000Y-46400000D02*
X98883363Y-45133363D01*
X102148008Y-52448008D02*
X102201992Y-52448008D01*
X100753814Y-51064474D02*
X100764474Y-51064474D01*
X101450000Y-51750000D02*
X102148008Y-52448008D01*
%TO.N,/B*%
X97503553Y-46400000D02*
X99392633Y-48289080D01*
X97050000Y-45950000D02*
X97500000Y-46400000D01*
X97500000Y-46400000D02*
X97503553Y-46400000D01*
%TO.N,/A*%
X109250000Y-39400000D02*
X107700000Y-39400000D01*
X107700000Y-39400000D02*
X106943414Y-40156586D01*
X101460920Y-48642633D02*
X104053553Y-46050000D01*
X112050000Y-44200000D02*
X112050000Y-42200000D01*
X110200000Y-46050000D02*
X112050000Y-44200000D01*
X112050000Y-42200000D02*
X109250000Y-39400000D01*
X104053553Y-46050000D02*
X110200000Y-46050000D01*
X106943414Y-40156586D02*
X106941763Y-40156586D01*
%TO.N,/Z*%
X109541763Y-42808237D02*
X109593414Y-42808237D01*
X106950000Y-45400000D02*
X109541763Y-42808237D01*
X103996447Y-45400000D02*
X106950000Y-45400000D01*
X101107367Y-48289080D02*
X103996447Y-45400000D01*
%TO.N,/SPI_CS*%
X97700000Y-45889340D02*
X97700000Y-44298349D01*
X99746186Y-47935526D02*
X97700000Y-45889340D01*
X97700000Y-44298349D02*
X93558237Y-40156586D01*
%TO.N,/SPI_MISO*%
X99039080Y-48642633D02*
X97696447Y-47300000D01*
X97166117Y-47300000D02*
X91790470Y-41924353D01*
X97696447Y-47300000D02*
X97166117Y-47300000D01*
%TO.N,/SPI_SCLK*%
X92674353Y-41040470D02*
X92690470Y-41040470D01*
X95166637Y-43516637D02*
X95166637Y-43616637D01*
X92690470Y-41040470D02*
X95166637Y-43516637D01*
%TO.N,/SPI_MOSI*%
X101500000Y-47189340D02*
X101500000Y-44550000D01*
X100753814Y-47935526D02*
X101500000Y-47189340D01*
X93400000Y-37750000D02*
X90000000Y-41150000D01*
X90000000Y-41150000D02*
X90000000Y-41901651D01*
X94700000Y-37750000D02*
X93400000Y-37750000D01*
X101500000Y-44550000D02*
X94700000Y-37750000D01*
X90000000Y-41901651D02*
X90906586Y-42808237D01*
%TD*%
%TA.AperFunction,Conductor*%
%TO.N,GND*%
G36*
X105808363Y-32770185D02*
G01*
X105829005Y-32786819D01*
X107295227Y-34253041D01*
X107328712Y-34314364D01*
X107323728Y-34384056D01*
X107295227Y-34428403D01*
X105700960Y-36022670D01*
X105681454Y-36046212D01*
X105622532Y-36168567D01*
X105602291Y-36302854D01*
X105622532Y-36437141D01*
X105622532Y-36437144D01*
X105681452Y-36559493D01*
X105681455Y-36559498D01*
X105694024Y-36574668D01*
X105700956Y-36583035D01*
X105700965Y-36583044D01*
X105700973Y-36583053D01*
X106131234Y-37013314D01*
X106131243Y-37013322D01*
X106131253Y-37013332D01*
X106142758Y-37022864D01*
X106154789Y-37032832D01*
X106154794Y-37032835D01*
X106269529Y-37088088D01*
X106277146Y-37091756D01*
X106411433Y-37111997D01*
X106545721Y-37091756D01*
X106668076Y-37032833D01*
X106691613Y-37013332D01*
X108285886Y-35419058D01*
X108347207Y-35385575D01*
X108416899Y-35390559D01*
X108461246Y-35419060D01*
X114330939Y-41288753D01*
X114364424Y-41350076D01*
X114359440Y-41419768D01*
X114330939Y-41464115D01*
X112736672Y-43058382D01*
X112717166Y-43081924D01*
X112658244Y-43204279D01*
X112638941Y-43332347D01*
X112638003Y-43338567D01*
X112658167Y-43472339D01*
X112658244Y-43472853D01*
X112658244Y-43472856D01*
X112717164Y-43595205D01*
X112717167Y-43595210D01*
X112729736Y-43610380D01*
X112736668Y-43618747D01*
X112736677Y-43618756D01*
X112736685Y-43618765D01*
X113166946Y-44049026D01*
X113166955Y-44049034D01*
X113166965Y-44049044D01*
X113178470Y-44058576D01*
X113190501Y-44068544D01*
X113190506Y-44068547D01*
X113305241Y-44123800D01*
X113312858Y-44127468D01*
X113447145Y-44147709D01*
X113581433Y-44127468D01*
X113703788Y-44068545D01*
X113727325Y-44049044D01*
X115321598Y-42454770D01*
X115382919Y-42421287D01*
X115452611Y-42426271D01*
X115496958Y-42454772D01*
X116963181Y-43920995D01*
X116996666Y-43982318D01*
X116999500Y-44008676D01*
X116999500Y-54991324D01*
X116979815Y-55058363D01*
X116963181Y-55079005D01*
X105829005Y-66213181D01*
X105767682Y-66246666D01*
X105741324Y-66249500D01*
X94758676Y-66249500D01*
X94691637Y-66229815D01*
X94670995Y-66213181D01*
X83536819Y-55079005D01*
X83503334Y-55017682D01*
X83500500Y-54991324D01*
X83500500Y-50207104D01*
X98125693Y-50207104D01*
X98125693Y-50207109D01*
X98146104Y-50309724D01*
X98146104Y-50309725D01*
X98189559Y-50374760D01*
X98314579Y-50499779D01*
X98379615Y-50543235D01*
X98379616Y-50543236D01*
X98482231Y-50563647D01*
X98482233Y-50563647D01*
X98482235Y-50563647D01*
X98584845Y-50543236D01*
X98584845Y-50543235D01*
X98584850Y-50543235D01*
X98649887Y-50499779D01*
X99181490Y-49968175D01*
X99224947Y-49903138D01*
X99224948Y-49903136D01*
X99245359Y-49800523D01*
X99245359Y-49800518D01*
X99224947Y-49697903D01*
X99224947Y-49697902D01*
X99181492Y-49632867D01*
X99056472Y-49507848D01*
X98991436Y-49464392D01*
X98991435Y-49464391D01*
X98888821Y-49443981D01*
X98888817Y-49443981D01*
X98786206Y-49464391D01*
X98786203Y-49464392D01*
X98721162Y-49507850D01*
X98721161Y-49507851D01*
X98189568Y-50039445D01*
X98189562Y-50039453D01*
X98146104Y-50104489D01*
X98146103Y-50104491D01*
X98125693Y-50207104D01*
X83500500Y-50207104D01*
X83500500Y-44434581D01*
X89633794Y-44434581D01*
X89633794Y-44434583D01*
X89998392Y-44799181D01*
X89998409Y-44799197D01*
X90026517Y-44823203D01*
X90170425Y-44902317D01*
X90170435Y-44902320D01*
X90329494Y-44943160D01*
X90329502Y-44943161D01*
X90493722Y-44943161D01*
X90493729Y-44943160D01*
X90652788Y-44902320D01*
X90652798Y-44902317D01*
X90796703Y-44823205D01*
X90796704Y-44823204D01*
X90798607Y-44821579D01*
X90798607Y-44821577D01*
X90022702Y-44045673D01*
X90022701Y-44045673D01*
X89633794Y-44434581D01*
X83500500Y-44434581D01*
X83500500Y-44008675D01*
X83520185Y-43941636D01*
X83536814Y-43920999D01*
X85003041Y-42454771D01*
X85064364Y-42421287D01*
X85134056Y-42426271D01*
X85178403Y-42454772D01*
X86772675Y-44049044D01*
X86796212Y-44068545D01*
X86918567Y-44127468D01*
X87052855Y-44147709D01*
X87187142Y-44127468D01*
X87248968Y-44097694D01*
X87309493Y-44068547D01*
X87309493Y-44068546D01*
X87309497Y-44068545D01*
X87333035Y-44049044D01*
X87763332Y-43618747D01*
X87782833Y-43595209D01*
X87841756Y-43472854D01*
X87861997Y-43338567D01*
X87861997Y-43338566D01*
X87845901Y-43231777D01*
X87844291Y-43221093D01*
X88771662Y-43221093D01*
X88771662Y-43385328D01*
X88812502Y-43544387D01*
X88812505Y-43544397D01*
X88891619Y-43688305D01*
X88915625Y-43716413D01*
X88915641Y-43716430D01*
X89280239Y-44081028D01*
X89280240Y-44081028D01*
X89669149Y-43692120D01*
X89669149Y-43692119D01*
X88893243Y-42916213D01*
X88891622Y-42918113D01*
X88891618Y-42918119D01*
X88812505Y-43062024D01*
X88812502Y-43062034D01*
X88771662Y-43221093D01*
X87844291Y-43221093D01*
X87841756Y-43204279D01*
X87782833Y-43081924D01*
X87780313Y-43078883D01*
X87763332Y-43058387D01*
X87267605Y-42562660D01*
X89246796Y-42562660D01*
X90199480Y-43515343D01*
X91152160Y-44468024D01*
X91152162Y-44468024D01*
X91153787Y-44466121D01*
X91153788Y-44466120D01*
X91232900Y-44322215D01*
X91232903Y-44322205D01*
X91273743Y-44163146D01*
X91273744Y-44163139D01*
X91273744Y-43998919D01*
X91273743Y-43998913D01*
X91251772Y-43913343D01*
X91254166Y-43843515D01*
X91293932Y-43786065D01*
X91344360Y-43763394D01*
X91344264Y-43763114D01*
X91347306Y-43762069D01*
X91351476Y-43760195D01*
X91353980Y-43759777D01*
X91353983Y-43759777D01*
X91464621Y-43721795D01*
X91519817Y-43680637D01*
X91519819Y-43680634D01*
X91519823Y-43680632D01*
X91778981Y-43421474D01*
X91778983Y-43421470D01*
X91778986Y-43421468D01*
X91820144Y-43366272D01*
X91853377Y-43269468D01*
X91858126Y-43255635D01*
X91858126Y-43138655D01*
X91831821Y-43062034D01*
X91820144Y-43028020D01*
X91795449Y-42994901D01*
X91778988Y-42972825D01*
X90741997Y-41935834D01*
X90708881Y-41911142D01*
X90686803Y-41894679D01*
X90629174Y-41874894D01*
X90576167Y-41856697D01*
X90576166Y-41856697D01*
X90459189Y-41856697D01*
X90459187Y-41856697D01*
X90454290Y-41857514D01*
X90448343Y-41856795D01*
X90442732Y-41858888D01*
X90414061Y-41852651D01*
X90384925Y-41849129D01*
X90378806Y-41844981D01*
X90374459Y-41844036D01*
X90346205Y-41822885D01*
X90336819Y-41813499D01*
X90303334Y-41752176D01*
X90300500Y-41725818D01*
X90300500Y-41325833D01*
X90320185Y-41258794D01*
X90336819Y-41238152D01*
X92749667Y-38825304D01*
X93490580Y-38825304D01*
X93490580Y-38825306D01*
X93490580Y-38942283D01*
X93528562Y-39052920D01*
X93545025Y-39074998D01*
X93569717Y-39108114D01*
X94606708Y-40145105D01*
X94628784Y-40161566D01*
X94661903Y-40186261D01*
X94744880Y-40214747D01*
X94772539Y-40224243D01*
X94772540Y-40224243D01*
X94889517Y-40224243D01*
X95000155Y-40186261D01*
X95055351Y-40145103D01*
X95055353Y-40145100D01*
X95055357Y-40145098D01*
X95314515Y-39885940D01*
X95314517Y-39885936D01*
X95314520Y-39885934D01*
X95355678Y-39830738D01*
X95393660Y-39720100D01*
X95393660Y-39603123D01*
X95393660Y-39603121D01*
X95373141Y-39543355D01*
X95355678Y-39492486D01*
X95330983Y-39459367D01*
X95314522Y-39437291D01*
X94277531Y-38400300D01*
X94244415Y-38375608D01*
X94222337Y-38359145D01*
X94164708Y-38339360D01*
X94111701Y-38321163D01*
X94111700Y-38321163D01*
X93994723Y-38321163D01*
X93994722Y-38321163D01*
X93884085Y-38359145D01*
X93884082Y-38359146D01*
X93828889Y-38400302D01*
X93569719Y-38659472D01*
X93528563Y-38714665D01*
X93528562Y-38714668D01*
X93490580Y-38825304D01*
X92749667Y-38825304D01*
X93488152Y-38086819D01*
X93549475Y-38053334D01*
X93575833Y-38050500D01*
X94524167Y-38050500D01*
X94591206Y-38070185D01*
X94611848Y-38086819D01*
X101163181Y-44638152D01*
X101196666Y-44699475D01*
X101199500Y-44725833D01*
X101199500Y-47013506D01*
X101179815Y-47080545D01*
X101163181Y-47101187D01*
X100895443Y-47368924D01*
X100855221Y-47395802D01*
X100854486Y-47396106D01*
X100789457Y-47439557D01*
X100789449Y-47439563D01*
X100337681Y-47891332D01*
X100276358Y-47924817D01*
X100206666Y-47919833D01*
X100162319Y-47891332D01*
X99710554Y-47439568D01*
X99710547Y-47439562D01*
X99645510Y-47396105D01*
X99644774Y-47395800D01*
X99604554Y-47368923D01*
X98036819Y-45801188D01*
X98003334Y-45739865D01*
X98000500Y-45713507D01*
X98000500Y-45496536D01*
X98020185Y-45429497D01*
X98072989Y-45383742D01*
X98142147Y-45373798D01*
X98205703Y-45402823D01*
X98224815Y-45423646D01*
X98229066Y-45429497D01*
X98242005Y-45447306D01*
X98242006Y-45447307D01*
X98569421Y-45774721D01*
X98569423Y-45774723D01*
X98643381Y-45828458D01*
X98646240Y-45830535D01*
X98739074Y-45860698D01*
X98766893Y-45869737D01*
X98766894Y-45869737D01*
X98766897Y-45869738D01*
X98766900Y-45869738D01*
X98893760Y-45869738D01*
X98893763Y-45869738D01*
X99014420Y-45830535D01*
X99014426Y-45830529D01*
X99023120Y-45826102D01*
X99024320Y-45828458D01*
X99076276Y-45809911D01*
X99144332Y-45825726D01*
X99171056Y-45846027D01*
X99715663Y-46390634D01*
X99747757Y-46446221D01*
X99776793Y-46554588D01*
X99776794Y-46554589D01*
X99829520Y-46645913D01*
X99904087Y-46720480D01*
X99995413Y-46773207D01*
X100097273Y-46800500D01*
X100097275Y-46800500D01*
X100202725Y-46800500D01*
X100202727Y-46800500D01*
X100304587Y-46773207D01*
X100395913Y-46720480D01*
X100470480Y-46645913D01*
X100523207Y-46554587D01*
X100550500Y-46452727D01*
X100550500Y-46347273D01*
X100523207Y-46245413D01*
X100470480Y-46154087D01*
X100395913Y-46079520D01*
X100304589Y-46026794D01*
X100304588Y-46026793D01*
X100214770Y-46002727D01*
X100202727Y-45999500D01*
X100202726Y-45999500D01*
X100196221Y-45997757D01*
X100140634Y-45965663D01*
X99596027Y-45421056D01*
X99562542Y-45359733D01*
X99567526Y-45290041D01*
X99576502Y-45273323D01*
X99576102Y-45273120D01*
X99580529Y-45264426D01*
X99580535Y-45264420D01*
X99619738Y-45143763D01*
X99619738Y-45016897D01*
X99580535Y-44896240D01*
X99524722Y-44819421D01*
X99197305Y-44492005D01*
X99197304Y-44492004D01*
X99197302Y-44492002D01*
X99120488Y-44436192D01*
X99120486Y-44436191D01*
X99086397Y-44425115D01*
X98999832Y-44396988D01*
X98999829Y-44396988D01*
X98872963Y-44396988D01*
X98872959Y-44396988D01*
X98752306Y-44436191D01*
X98752300Y-44436194D01*
X98675493Y-44491999D01*
X98675484Y-44492006D01*
X98242004Y-44925487D01*
X98242002Y-44925489D01*
X98224817Y-44949143D01*
X98169486Y-44991808D01*
X98099873Y-44997786D01*
X98038078Y-44965179D01*
X98003722Y-44904340D01*
X98000500Y-44876256D01*
X98000500Y-44583370D01*
X98020185Y-44516331D01*
X98036819Y-44495689D01*
X98357995Y-44174513D01*
X98377470Y-44147709D01*
X98413809Y-44097694D01*
X98453012Y-43977037D01*
X98453012Y-43850171D01*
X98450849Y-43843515D01*
X98430562Y-43781076D01*
X98413809Y-43729514D01*
X98408199Y-43721793D01*
X98385902Y-43691104D01*
X98357996Y-43652695D01*
X98030579Y-43325279D01*
X98030578Y-43325278D01*
X98030576Y-43325276D01*
X97953762Y-43269466D01*
X97953760Y-43269465D01*
X97911192Y-43255634D01*
X97833106Y-43230262D01*
X97833103Y-43230262D01*
X97706237Y-43230262D01*
X97706233Y-43230262D01*
X97585580Y-43269465D01*
X97585574Y-43269468D01*
X97508767Y-43325273D01*
X97508764Y-43325275D01*
X97508761Y-43325278D01*
X97418009Y-43416028D01*
X97356687Y-43449512D01*
X97286996Y-43444528D01*
X97242649Y-43416027D01*
X94543588Y-40716966D01*
X94510103Y-40655643D01*
X94508961Y-40608872D01*
X94509777Y-40603982D01*
X94509777Y-40487004D01*
X94489257Y-40427233D01*
X94471795Y-40376369D01*
X94447100Y-40343250D01*
X94430639Y-40321174D01*
X93393648Y-39284183D01*
X93360532Y-39259491D01*
X93338454Y-39243028D01*
X93280825Y-39223243D01*
X93227818Y-39205046D01*
X93227817Y-39205046D01*
X93110840Y-39205046D01*
X93110839Y-39205046D01*
X93000202Y-39243028D01*
X93000199Y-39243029D01*
X92945006Y-39284185D01*
X92685836Y-39543355D01*
X92644680Y-39598548D01*
X92644679Y-39598551D01*
X92606697Y-39709187D01*
X92606697Y-39826167D01*
X92608267Y-39830740D01*
X92644679Y-39936803D01*
X92661142Y-39958881D01*
X92685834Y-39991997D01*
X93722825Y-41028988D01*
X93729559Y-41034009D01*
X93778020Y-41070144D01*
X93860997Y-41098630D01*
X93888656Y-41108126D01*
X93888657Y-41108126D01*
X94005634Y-41108126D01*
X94010523Y-41107310D01*
X94079888Y-41115690D01*
X94118617Y-41141937D01*
X96943943Y-43967263D01*
X96977233Y-44027704D01*
X96980262Y-44041155D01*
X96980262Y-44083103D01*
X97011033Y-44177811D01*
X97012298Y-44183425D01*
X97010413Y-44212782D01*
X97011253Y-44242189D01*
X97008199Y-44247252D01*
X97007821Y-44253151D01*
X96990365Y-44276827D01*
X96975172Y-44302022D01*
X96969866Y-44304630D01*
X96966359Y-44309388D01*
X96938873Y-44319868D01*
X96912471Y-44332849D01*
X96906597Y-44332175D01*
X96901074Y-44334281D01*
X96872287Y-44328238D01*
X96843056Y-44324884D01*
X96837053Y-44320841D01*
X96832695Y-44319927D01*
X96826224Y-44313549D01*
X96803646Y-44298346D01*
X96647302Y-44142002D01*
X96570488Y-44086192D01*
X96570486Y-44086191D01*
X96537671Y-44075529D01*
X96449832Y-44046988D01*
X96449829Y-44046988D01*
X96322963Y-44046988D01*
X96322959Y-44046988D01*
X96202306Y-44086191D01*
X96202300Y-44086194D01*
X96125493Y-44141999D01*
X96125484Y-44142006D01*
X95692004Y-44575487D01*
X95692002Y-44575489D01*
X95636192Y-44652303D01*
X95636191Y-44652306D01*
X95596988Y-44772959D01*
X95596988Y-44899832D01*
X95632825Y-45010126D01*
X95634820Y-45079968D01*
X95598739Y-45139800D01*
X95536038Y-45170628D01*
X95466624Y-45162663D01*
X95427213Y-45136125D01*
X94813874Y-44522786D01*
X94780389Y-44461463D01*
X94785373Y-44391771D01*
X94827245Y-44335838D01*
X94892709Y-44311421D01*
X94939869Y-44317173D01*
X95003694Y-44337911D01*
X95050167Y-44353011D01*
X95050168Y-44353011D01*
X95050171Y-44353012D01*
X95050174Y-44353012D01*
X95177034Y-44353012D01*
X95177037Y-44353012D01*
X95297694Y-44313809D01*
X95374513Y-44257996D01*
X95807995Y-43824513D01*
X95863809Y-43747694D01*
X95903012Y-43627037D01*
X95903012Y-43500171D01*
X95863809Y-43379514D01*
X95854189Y-43366274D01*
X95824402Y-43325276D01*
X95807996Y-43302695D01*
X95480579Y-42975279D01*
X95480578Y-42975278D01*
X95480576Y-42975276D01*
X95403762Y-42919466D01*
X95403760Y-42919465D01*
X95362546Y-42906074D01*
X95283106Y-42880262D01*
X95283103Y-42880262D01*
X95156237Y-42880262D01*
X95156234Y-42880262D01*
X95076791Y-42906074D01*
X95006950Y-42908068D01*
X94950794Y-42875823D01*
X93662009Y-41587038D01*
X93628524Y-41525715D01*
X93627853Y-41498142D01*
X93625893Y-41498142D01*
X93625893Y-41370888D01*
X93597695Y-41288753D01*
X93587911Y-41260253D01*
X93563216Y-41227134D01*
X93546755Y-41205058D01*
X92509764Y-40168067D01*
X92476648Y-40143375D01*
X92454570Y-40126912D01*
X92396941Y-40107127D01*
X92343934Y-40088930D01*
X92343933Y-40088930D01*
X92226956Y-40088930D01*
X92226955Y-40088930D01*
X92116318Y-40126912D01*
X92116315Y-40126913D01*
X92061122Y-40168069D01*
X91801952Y-40427239D01*
X91760796Y-40482432D01*
X91760795Y-40482435D01*
X91722813Y-40593071D01*
X91722813Y-40593073D01*
X91722813Y-40710050D01*
X91760795Y-40820687D01*
X91777258Y-40842765D01*
X91801950Y-40875881D01*
X92838941Y-41912872D01*
X92861017Y-41929333D01*
X92894136Y-41954028D01*
X92977113Y-41982514D01*
X93004772Y-41992010D01*
X93004773Y-41992010D01*
X93121750Y-41992010D01*
X93131882Y-41990319D01*
X93132198Y-41992217D01*
X93189262Y-41989637D01*
X93247419Y-42022390D01*
X94496053Y-43271024D01*
X94529538Y-43332347D01*
X94524554Y-43402039D01*
X94508690Y-43431590D01*
X94469468Y-43485574D01*
X94469465Y-43485580D01*
X94430262Y-43606233D01*
X94430262Y-43733106D01*
X94466099Y-43843400D01*
X94468094Y-43913242D01*
X94432013Y-43973074D01*
X94369312Y-44003902D01*
X94299898Y-43995937D01*
X94260487Y-43969399D01*
X92775821Y-42484733D01*
X92742336Y-42423410D01*
X92741194Y-42376639D01*
X92742010Y-42371749D01*
X92742010Y-42254771D01*
X92721490Y-42195000D01*
X92704028Y-42144136D01*
X92679333Y-42111017D01*
X92662872Y-42088941D01*
X91625881Y-41051950D01*
X91592765Y-41027258D01*
X91570687Y-41010795D01*
X91513058Y-40991010D01*
X91460051Y-40972813D01*
X91460050Y-40972813D01*
X91343073Y-40972813D01*
X91343072Y-40972813D01*
X91232435Y-41010795D01*
X91232432Y-41010796D01*
X91177239Y-41051952D01*
X90918069Y-41311122D01*
X90876913Y-41366315D01*
X90876912Y-41366318D01*
X90838930Y-41476954D01*
X90838930Y-41593934D01*
X90840500Y-41598507D01*
X90876912Y-41704570D01*
X90892756Y-41725818D01*
X90918067Y-41759764D01*
X91955058Y-42796755D01*
X91977134Y-42813216D01*
X92010253Y-42837911D01*
X92093230Y-42866397D01*
X92120889Y-42875893D01*
X92120890Y-42875893D01*
X92237867Y-42875893D01*
X92242756Y-42875077D01*
X92312121Y-42883457D01*
X92350850Y-42909704D01*
X96925657Y-47484511D01*
X96981606Y-47540460D01*
X96981608Y-47540461D01*
X96981612Y-47540464D01*
X97050121Y-47580017D01*
X97050128Y-47580021D01*
X97126555Y-47600500D01*
X97520614Y-47600500D01*
X97587653Y-47620185D01*
X97608295Y-47636819D01*
X98472477Y-48501001D01*
X98499355Y-48541225D01*
X98499658Y-48541958D01*
X98543111Y-48606989D01*
X98543117Y-48606997D01*
X99074711Y-49138590D01*
X99074714Y-49138592D01*
X99074719Y-49138597D01*
X99113704Y-49164647D01*
X99139755Y-49182054D01*
X99139757Y-49182055D01*
X99242371Y-49202466D01*
X99242373Y-49202466D01*
X99242375Y-49202466D01*
X99326133Y-49185805D01*
X99344991Y-49182054D01*
X99410028Y-49138598D01*
X99535044Y-49013581D01*
X99578501Y-48948544D01*
X99582252Y-48929681D01*
X99614635Y-48867771D01*
X99675349Y-48833194D01*
X99679650Y-48832258D01*
X99698544Y-48828501D01*
X99763581Y-48785045D01*
X99888597Y-48660028D01*
X99932054Y-48594991D01*
X99935806Y-48576124D01*
X99968191Y-48514214D01*
X99989409Y-48496634D01*
X100009575Y-48483404D01*
X100052097Y-48474947D01*
X100117134Y-48431491D01*
X100171329Y-48377294D01*
X100181985Y-48370305D01*
X100203712Y-48363703D01*
X100223641Y-48352821D01*
X100236499Y-48353740D01*
X100248837Y-48349992D01*
X100270685Y-48356185D01*
X100293332Y-48357805D01*
X100306695Y-48366392D01*
X100316058Y-48369047D01*
X100322924Y-48376822D01*
X100337681Y-48386306D01*
X100382862Y-48431487D01*
X100382866Y-48431490D01*
X100447902Y-48474946D01*
X100447901Y-48474946D01*
X100447903Y-48474947D01*
X100466765Y-48478699D01*
X100528675Y-48511082D01*
X100563251Y-48571797D01*
X100564192Y-48576123D01*
X100567944Y-48594987D01*
X100567945Y-48594989D01*
X100611402Y-48660028D01*
X100736420Y-48785045D01*
X100801455Y-48828500D01*
X100801454Y-48828500D01*
X100801456Y-48828501D01*
X100820318Y-48832253D01*
X100882228Y-48864636D01*
X100916804Y-48925351D01*
X100917745Y-48929676D01*
X100921497Y-48948540D01*
X100921498Y-48948542D01*
X100921498Y-48948543D01*
X100921499Y-48948544D01*
X100964955Y-49013581D01*
X101089972Y-49138597D01*
X101155009Y-49182054D01*
X101173871Y-49185805D01*
X101235782Y-49218188D01*
X101253364Y-49239408D01*
X101266595Y-49259577D01*
X101275053Y-49302097D01*
X101318509Y-49367134D01*
X101372702Y-49421326D01*
X101379694Y-49431985D01*
X101386296Y-49453713D01*
X101397178Y-49473642D01*
X101396258Y-49486500D01*
X101400007Y-49498837D01*
X101393813Y-49520685D01*
X101392194Y-49543334D01*
X101383605Y-49556698D01*
X101380952Y-49566058D01*
X101373178Y-49572922D01*
X101363694Y-49587680D01*
X101318513Y-49632861D01*
X101318509Y-49632866D01*
X101275052Y-49697902D01*
X101271299Y-49716771D01*
X101238911Y-49778680D01*
X101178194Y-49813252D01*
X101173877Y-49814192D01*
X101155011Y-49817945D01*
X101155010Y-49817945D01*
X101089971Y-49861402D01*
X100964954Y-49986420D01*
X100921498Y-50051455D01*
X100917745Y-50070324D01*
X100885357Y-50132233D01*
X100824640Y-50166805D01*
X100820324Y-50167745D01*
X100801458Y-50171498D01*
X100801457Y-50171498D01*
X100736418Y-50214955D01*
X100611401Y-50339973D01*
X100567945Y-50405009D01*
X100564192Y-50423877D01*
X100531805Y-50485787D01*
X100510590Y-50503364D01*
X100490419Y-50516595D01*
X100447903Y-50525053D01*
X100382866Y-50568509D01*
X100328675Y-50622700D01*
X100318014Y-50629694D01*
X100296284Y-50636296D01*
X100276356Y-50647178D01*
X100263499Y-50646258D01*
X100251163Y-50650007D01*
X100229311Y-50643812D01*
X100206664Y-50642193D01*
X100193301Y-50633605D01*
X100183941Y-50630952D01*
X100177075Y-50623177D01*
X100162318Y-50613693D01*
X100117137Y-50568512D01*
X100117133Y-50568509D01*
X100052096Y-50525052D01*
X100033229Y-50521299D01*
X99971319Y-50488912D01*
X99936746Y-50428196D01*
X99935807Y-50423877D01*
X99932054Y-50405009D01*
X99911842Y-50374760D01*
X99888599Y-50339973D01*
X99763579Y-50214954D01*
X99698543Y-50171498D01*
X99698542Y-50171497D01*
X99595928Y-50151087D01*
X99595924Y-50151087D01*
X99493313Y-50171497D01*
X99493310Y-50171498D01*
X99428269Y-50214956D01*
X99428268Y-50214957D01*
X98896675Y-50746551D01*
X98896669Y-50746559D01*
X98853211Y-50811595D01*
X98853210Y-50811597D01*
X98832800Y-50914210D01*
X98832800Y-50914215D01*
X98853211Y-51016830D01*
X98853211Y-51016831D01*
X98896666Y-51081866D01*
X99021686Y-51206885D01*
X99086721Y-51250340D01*
X99086720Y-51250340D01*
X99086722Y-51250341D01*
X99105584Y-51254093D01*
X99167494Y-51286476D01*
X99202070Y-51347191D01*
X99203011Y-51351517D01*
X99206763Y-51370381D01*
X99206764Y-51370383D01*
X99206764Y-51370384D01*
X99206765Y-51370385D01*
X99239284Y-51419053D01*
X99250221Y-51435422D01*
X99375239Y-51560439D01*
X99440275Y-51603895D01*
X99440276Y-51603896D01*
X99542891Y-51624307D01*
X99542893Y-51624307D01*
X99542895Y-51624307D01*
X99645505Y-51603896D01*
X99645505Y-51603895D01*
X99645510Y-51603895D01*
X99710547Y-51560439D01*
X99937559Y-51333427D01*
X100162319Y-51108667D01*
X100223642Y-51075182D01*
X100293333Y-51080166D01*
X100337681Y-51108667D01*
X100789446Y-51560432D01*
X100789449Y-51560434D01*
X100789453Y-51560438D01*
X100828438Y-51586488D01*
X100854489Y-51603895D01*
X100865775Y-51608570D01*
X100864651Y-51611283D01*
X100864851Y-51611388D01*
X100883335Y-51615409D01*
X100908357Y-51634141D01*
X100910002Y-51635001D01*
X100911589Y-51636560D01*
X101015663Y-51740634D01*
X101047757Y-51796221D01*
X101076793Y-51904588D01*
X101076794Y-51904589D01*
X101129520Y-51995913D01*
X101204087Y-52070480D01*
X101295413Y-52123207D01*
X101374426Y-52144378D01*
X101434084Y-52180742D01*
X101464614Y-52243588D01*
X101460262Y-52302469D01*
X101440617Y-52362931D01*
X101440616Y-52362936D01*
X101440616Y-52362937D01*
X101440616Y-52497723D01*
X101482267Y-52625911D01*
X101541563Y-52707525D01*
X101942475Y-53108437D01*
X102024089Y-53167733D01*
X102152277Y-53209384D01*
X102152278Y-53209384D01*
X102287062Y-53209384D01*
X102287063Y-53209384D01*
X102415250Y-53167733D01*
X102496864Y-53108437D01*
X102862421Y-52742880D01*
X102921717Y-52661266D01*
X102963368Y-52533079D01*
X102963368Y-52506274D01*
X102983053Y-52439235D01*
X103035857Y-52393480D01*
X103105015Y-52383536D01*
X103115965Y-52385617D01*
X103230944Y-52412868D01*
X103400424Y-52412868D01*
X103565342Y-52373781D01*
X103716786Y-52297723D01*
X103716793Y-52297718D01*
X103794168Y-52234689D01*
X103794178Y-52234679D01*
X103810658Y-52218197D01*
X103810658Y-52218196D01*
X102944452Y-51351990D01*
X103651561Y-51351990D01*
X103651561Y-51351991D01*
X104164212Y-51864642D01*
X104180702Y-51848153D01*
X104180707Y-51848148D01*
X104243734Y-51770778D01*
X104243739Y-51770770D01*
X104319797Y-51619326D01*
X104358884Y-51454408D01*
X104358884Y-51284930D01*
X104319797Y-51120012D01*
X104243739Y-50968568D01*
X104243734Y-50968561D01*
X104180707Y-50891189D01*
X104180702Y-50891184D01*
X104146536Y-50857017D01*
X103651561Y-51351990D01*
X102944452Y-51351990D01*
X102431802Y-50839340D01*
X102415316Y-50855827D01*
X102415306Y-50855838D01*
X102352281Y-50933205D01*
X102352276Y-50933213D01*
X102276218Y-51084657D01*
X102237132Y-51249575D01*
X102237132Y-51419053D01*
X102264383Y-51534036D01*
X102260689Y-51603808D01*
X102219860Y-51660507D01*
X102173220Y-51683073D01*
X102158687Y-51686632D01*
X102116921Y-51686632D01*
X101989129Y-51728154D01*
X101984664Y-51729248D01*
X101954166Y-51727861D01*
X101923646Y-51728733D01*
X101919592Y-51726288D01*
X101914866Y-51726074D01*
X101889961Y-51708421D01*
X101863813Y-51692653D01*
X101861325Y-51688122D01*
X101857864Y-51685669D01*
X101852041Y-51671216D01*
X101835395Y-51640901D01*
X101823207Y-51595413D01*
X101770480Y-51504087D01*
X101695913Y-51429520D01*
X101604587Y-51376793D01*
X101578451Y-51369790D01*
X101518793Y-51333427D01*
X101488263Y-51270580D01*
X101496557Y-51201204D01*
X101522865Y-51162335D01*
X101603328Y-51081871D01*
X101603327Y-51081871D01*
X101603331Y-51081868D01*
X101646788Y-51016831D01*
X101650539Y-50997968D01*
X101682922Y-50936058D01*
X101743636Y-50901481D01*
X101747937Y-50900545D01*
X101766831Y-50896788D01*
X101831868Y-50853332D01*
X101956884Y-50728315D01*
X102000341Y-50663278D01*
X102004092Y-50644415D01*
X102036475Y-50582505D01*
X102097190Y-50547929D01*
X102101501Y-50546991D01*
X102120385Y-50543235D01*
X102120386Y-50543234D01*
X102120387Y-50543234D01*
X102153215Y-50521299D01*
X102185422Y-50499779D01*
X102199415Y-50485786D01*
X102785356Y-50485786D01*
X103298008Y-50998438D01*
X103792982Y-50503464D01*
X103758821Y-50469303D01*
X103758805Y-50469289D01*
X103681438Y-50406265D01*
X103681431Y-50406260D01*
X103529987Y-50330202D01*
X103365069Y-50291116D01*
X103195592Y-50291116D01*
X103030673Y-50330202D01*
X102879229Y-50406260D01*
X102879222Y-50406265D01*
X102801850Y-50469292D01*
X102801835Y-50469306D01*
X102785356Y-50485786D01*
X102199415Y-50485786D01*
X102310438Y-50374762D01*
X102353895Y-50309725D01*
X102353895Y-50309723D01*
X102353896Y-50309723D01*
X102374307Y-50207109D01*
X102374307Y-50207104D01*
X102353896Y-50104494D01*
X102353895Y-50104491D01*
X102353895Y-50104490D01*
X102310439Y-50039453D01*
X102310437Y-50039450D01*
X102310436Y-50039449D01*
X101858667Y-49587681D01*
X101825182Y-49526358D01*
X101830166Y-49456667D01*
X101858667Y-49412319D01*
X102310432Y-48960554D01*
X102310433Y-48960551D01*
X102310438Y-48960547D01*
X102353895Y-48895510D01*
X102353896Y-48895508D01*
X102374307Y-48792895D01*
X102374307Y-48792890D01*
X102353895Y-48690275D01*
X102353895Y-48690274D01*
X102310439Y-48625238D01*
X102310436Y-48625234D01*
X102194543Y-48509341D01*
X102161058Y-48448018D01*
X102166042Y-48378326D01*
X102194541Y-48333981D01*
X104141705Y-46386819D01*
X104203028Y-46353334D01*
X104229386Y-46350500D01*
X110239560Y-46350500D01*
X110239562Y-46350500D01*
X110315989Y-46330021D01*
X110384511Y-46290460D01*
X110440460Y-46234511D01*
X112290460Y-44384511D01*
X112317364Y-44337911D01*
X112330021Y-44315989D01*
X112350500Y-44239562D01*
X112350500Y-42160438D01*
X112330021Y-42084011D01*
X112330017Y-42084004D01*
X112290464Y-42015495D01*
X112290458Y-42015487D01*
X109434512Y-39159541D01*
X109434504Y-39159535D01*
X109365995Y-39119982D01*
X109365990Y-39119979D01*
X109321720Y-39108117D01*
X109289562Y-39099500D01*
X107660438Y-39099500D01*
X107628291Y-39108114D01*
X107584009Y-39119979D01*
X107584004Y-39119982D01*
X107515490Y-39159538D01*
X107503555Y-39171473D01*
X107498297Y-39174343D01*
X107494948Y-39179306D01*
X107467992Y-39190890D01*
X107442231Y-39204956D01*
X107434842Y-39205136D01*
X107430755Y-39206893D01*
X107395470Y-39206098D01*
X107386647Y-39204626D01*
X107323761Y-39174178D01*
X107287320Y-39114565D01*
X107286949Y-39051478D01*
X107308920Y-38965907D01*
X107308921Y-38965904D01*
X107308921Y-38801684D01*
X107308920Y-38801676D01*
X107268080Y-38642617D01*
X107268077Y-38642607D01*
X107188962Y-38498698D01*
X107187338Y-38496797D01*
X107187338Y-38496796D01*
X106234657Y-39449480D01*
X105281973Y-40402161D01*
X105283875Y-40403785D01*
X105427784Y-40482900D01*
X105427794Y-40482903D01*
X105586853Y-40523743D01*
X105586861Y-40523744D01*
X105751081Y-40523744D01*
X105751084Y-40523743D01*
X105836655Y-40501772D01*
X105906484Y-40504165D01*
X105963934Y-40543931D01*
X105986607Y-40594359D01*
X105986886Y-40594264D01*
X105987924Y-40597288D01*
X105989803Y-40601467D01*
X105990223Y-40603984D01*
X106028205Y-40714620D01*
X106028206Y-40714623D01*
X106069362Y-40769816D01*
X106069368Y-40769823D01*
X106328526Y-41028981D01*
X106328532Y-41028986D01*
X106335261Y-41034004D01*
X106383728Y-41070144D01*
X106466090Y-41098418D01*
X106494365Y-41108126D01*
X106494366Y-41108126D01*
X106611344Y-41108126D01*
X106633470Y-41100529D01*
X106721980Y-41070144D01*
X106777177Y-41028986D01*
X107814163Y-39992000D01*
X107855321Y-39936803D01*
X107891733Y-39830740D01*
X107893303Y-39826167D01*
X107893303Y-39824500D01*
X107893947Y-39822303D01*
X107894994Y-39816034D01*
X107895751Y-39816160D01*
X107912988Y-39757461D01*
X107965792Y-39711706D01*
X108017303Y-39700500D01*
X109074167Y-39700500D01*
X109141206Y-39720185D01*
X109161848Y-39736819D01*
X111713181Y-42288152D01*
X111746666Y-42349475D01*
X111749500Y-42375833D01*
X111749500Y-44024167D01*
X111729815Y-44091206D01*
X111713181Y-44111848D01*
X110111848Y-45713181D01*
X110050525Y-45746666D01*
X110024167Y-45749500D01*
X107324833Y-45749500D01*
X107257794Y-45729815D01*
X107212039Y-45677011D01*
X107202095Y-45607853D01*
X107231120Y-45544297D01*
X107237152Y-45537819D01*
X107638846Y-45136125D01*
X108752431Y-44022538D01*
X109525757Y-44022538D01*
X109525757Y-44139518D01*
X109526611Y-44142005D01*
X109562742Y-44247252D01*
X109563739Y-44250154D01*
X109563740Y-44250157D01*
X109604896Y-44305350D01*
X109604902Y-44305357D01*
X109864060Y-44564515D01*
X109864066Y-44564520D01*
X109918084Y-44604800D01*
X109919262Y-44605678D01*
X109989539Y-44629804D01*
X110029899Y-44643660D01*
X110029900Y-44643660D01*
X110146878Y-44643660D01*
X110169004Y-44636063D01*
X110257514Y-44605678D01*
X110312711Y-44564520D01*
X111349697Y-43527534D01*
X111390855Y-43472337D01*
X111422721Y-43379514D01*
X111428837Y-43361701D01*
X111428837Y-43244721D01*
X111413374Y-43199682D01*
X111390855Y-43134085D01*
X111349697Y-43078889D01*
X111349692Y-43078883D01*
X111090534Y-42819725D01*
X111090527Y-42819719D01*
X111035334Y-42778563D01*
X111035332Y-42778562D01*
X110980013Y-42759571D01*
X110924695Y-42740580D01*
X110924694Y-42740580D01*
X110807717Y-42740580D01*
X110807716Y-42740580D01*
X110705948Y-42775517D01*
X110697080Y-42778562D01*
X110697077Y-42778563D01*
X110697077Y-42778564D01*
X110641885Y-42819717D01*
X109604894Y-43856708D01*
X109563741Y-43911900D01*
X109563739Y-43911903D01*
X109563738Y-43911906D01*
X109525757Y-44022538D01*
X108752431Y-44022538D01*
X108993895Y-43781074D01*
X109055216Y-43747591D01*
X109121839Y-43751477D01*
X109146014Y-43759777D01*
X109146017Y-43759777D01*
X109262995Y-43759777D01*
X109287171Y-43751477D01*
X109373631Y-43721795D01*
X109428828Y-43680637D01*
X110465814Y-42643651D01*
X110506972Y-42588454D01*
X110544954Y-42477817D01*
X110544954Y-42360840D01*
X110544954Y-42360838D01*
X110520000Y-42288152D01*
X110506972Y-42250202D01*
X110465814Y-42195006D01*
X110465809Y-42195000D01*
X110206651Y-41935842D01*
X110206644Y-41935836D01*
X110151451Y-41894680D01*
X110151449Y-41894679D01*
X110096130Y-41875688D01*
X110040812Y-41856697D01*
X110040811Y-41856697D01*
X109923834Y-41856697D01*
X109923833Y-41856697D01*
X109822065Y-41891634D01*
X109813197Y-41894679D01*
X109813194Y-41894680D01*
X109813194Y-41894681D01*
X109758002Y-41935834D01*
X108721011Y-42972825D01*
X108679858Y-43028017D01*
X108679856Y-43028020D01*
X108679855Y-43028023D01*
X108641874Y-43138655D01*
X108641874Y-43231792D01*
X108622189Y-43298831D01*
X108605555Y-43319473D01*
X106861848Y-45063181D01*
X106800525Y-45096666D01*
X106774167Y-45099500D01*
X103956885Y-45099500D01*
X103915929Y-45110474D01*
X103880460Y-45119978D01*
X103880455Y-45119980D01*
X103875288Y-45122964D01*
X103875285Y-45122966D01*
X103811937Y-45159539D01*
X103811934Y-45159541D01*
X102012181Y-46959295D01*
X101950858Y-46992780D01*
X101881166Y-46987796D01*
X101825233Y-46945924D01*
X101800816Y-46880460D01*
X101800500Y-46871614D01*
X101800500Y-44510439D01*
X101795561Y-44492006D01*
X101780021Y-44434011D01*
X101774885Y-44425115D01*
X101740464Y-44365495D01*
X101740458Y-44365487D01*
X99629742Y-42254771D01*
X107757990Y-42254771D01*
X107757990Y-42371751D01*
X107759668Y-42376639D01*
X107786491Y-42454772D01*
X107795972Y-42482387D01*
X107795973Y-42482390D01*
X107837129Y-42537583D01*
X107837135Y-42537590D01*
X108096293Y-42796748D01*
X108096299Y-42796753D01*
X108151495Y-42837911D01*
X108233857Y-42866185D01*
X108262132Y-42875893D01*
X108262133Y-42875893D01*
X108379111Y-42875893D01*
X108401237Y-42868296D01*
X108489747Y-42837911D01*
X108544944Y-42796753D01*
X109581930Y-41759767D01*
X109623088Y-41704570D01*
X109659500Y-41598507D01*
X109661070Y-41593934D01*
X109661070Y-41476954D01*
X109645607Y-41431915D01*
X109623088Y-41366318D01*
X109581930Y-41311122D01*
X109581925Y-41311116D01*
X109322767Y-41051958D01*
X109322760Y-41051952D01*
X109267567Y-41010796D01*
X109267565Y-41010795D01*
X109212246Y-40991804D01*
X109156928Y-40972813D01*
X109156927Y-40972813D01*
X109039950Y-40972813D01*
X109039949Y-40972813D01*
X108938181Y-41007750D01*
X108929313Y-41010795D01*
X108929310Y-41010796D01*
X108929310Y-41010797D01*
X108874118Y-41051950D01*
X107837127Y-42088941D01*
X107795974Y-42144133D01*
X107795972Y-42144136D01*
X107795971Y-42144139D01*
X107757990Y-42254771D01*
X99629742Y-42254771D01*
X98745859Y-41370888D01*
X106874107Y-41370888D01*
X106874107Y-41370890D01*
X106874107Y-41487867D01*
X106910519Y-41593933D01*
X106912089Y-41598504D01*
X106912090Y-41598507D01*
X106953246Y-41653700D01*
X106953252Y-41653707D01*
X107212410Y-41912865D01*
X107212416Y-41912870D01*
X107267612Y-41954028D01*
X107349974Y-41982302D01*
X107378249Y-41992010D01*
X107378250Y-41992010D01*
X107495228Y-41992010D01*
X107517354Y-41984413D01*
X107605864Y-41954028D01*
X107661061Y-41912870D01*
X108698047Y-40875884D01*
X108739205Y-40820687D01*
X108777187Y-40710050D01*
X108777187Y-40593073D01*
X108777187Y-40593071D01*
X108753386Y-40523743D01*
X108739205Y-40482435D01*
X108698047Y-40427239D01*
X108698042Y-40427233D01*
X108438884Y-40168075D01*
X108438877Y-40168069D01*
X108383684Y-40126913D01*
X108383682Y-40126912D01*
X108328363Y-40107921D01*
X108273045Y-40088930D01*
X108273044Y-40088930D01*
X108156067Y-40088930D01*
X108156066Y-40088930D01*
X108054298Y-40123867D01*
X108045430Y-40126912D01*
X108045427Y-40126913D01*
X108045427Y-40126914D01*
X107990235Y-40168067D01*
X106953244Y-41205058D01*
X106913177Y-41258794D01*
X106912089Y-41260253D01*
X106912088Y-41260256D01*
X106874107Y-41370888D01*
X98745859Y-41370888D01*
X96954465Y-39579494D01*
X104806839Y-39579494D01*
X104806839Y-39743729D01*
X104847679Y-39902788D01*
X104847681Y-39902794D01*
X104926800Y-40046710D01*
X104928419Y-40048607D01*
X104928420Y-40048608D01*
X105704326Y-39272702D01*
X105704326Y-39272701D01*
X105315417Y-38883794D01*
X105315416Y-38883794D01*
X104950804Y-39248407D01*
X104926796Y-39276517D01*
X104847682Y-39420425D01*
X104847679Y-39420435D01*
X104806839Y-39579494D01*
X96954465Y-39579494D01*
X95905210Y-38530239D01*
X105668971Y-38530239D01*
X105668971Y-38530240D01*
X106057878Y-38919149D01*
X106057879Y-38919149D01*
X106833785Y-38143243D01*
X106833784Y-38143242D01*
X106831887Y-38141623D01*
X106687971Y-38062504D01*
X106687965Y-38062502D01*
X106528906Y-38021662D01*
X106364671Y-38021662D01*
X106205612Y-38062502D01*
X106205602Y-38062505D01*
X106061694Y-38141619D01*
X106033584Y-38165627D01*
X105668971Y-38530239D01*
X95905210Y-38530239D01*
X94884512Y-37509541D01*
X94884504Y-37509535D01*
X94815995Y-37469982D01*
X94815990Y-37469979D01*
X94790513Y-37463152D01*
X94739562Y-37449500D01*
X93360438Y-37449500D01*
X93322224Y-37459739D01*
X93284009Y-37469979D01*
X93284004Y-37469982D01*
X93215495Y-37509535D01*
X93215487Y-37509541D01*
X89759541Y-40965487D01*
X89759535Y-40965495D01*
X89719982Y-41034004D01*
X89719979Y-41034009D01*
X89710297Y-41070143D01*
X89699500Y-41110438D01*
X89699500Y-41941213D01*
X89702934Y-41954027D01*
X89719979Y-42017641D01*
X89719980Y-42017642D01*
X89758298Y-42084011D01*
X89759540Y-42086162D01*
X89759543Y-42086165D01*
X89921234Y-42247856D01*
X89924103Y-42253111D01*
X89929069Y-42256463D01*
X89940656Y-42283426D01*
X89954719Y-42309179D01*
X89954899Y-42316567D01*
X89956657Y-42320656D01*
X89955863Y-42355941D01*
X89954627Y-42363350D01*
X89924179Y-42426237D01*
X89864566Y-42462679D01*
X89801480Y-42463050D01*
X89715911Y-42441079D01*
X89551676Y-42441079D01*
X89392617Y-42481919D01*
X89392607Y-42481922D01*
X89248702Y-42561035D01*
X89248696Y-42561039D01*
X89246796Y-42562660D01*
X87267605Y-42562660D01*
X86169060Y-41464115D01*
X86135575Y-41402792D01*
X86140559Y-41333100D01*
X86169060Y-41288753D01*
X92038753Y-35419060D01*
X92100076Y-35385575D01*
X92169768Y-35390559D01*
X92214115Y-35419060D01*
X93808387Y-37013332D01*
X93831924Y-37032833D01*
X93954279Y-37091756D01*
X94088567Y-37111997D01*
X94222854Y-37091756D01*
X94345209Y-37032833D01*
X94368747Y-37013332D01*
X94799044Y-36583035D01*
X94818545Y-36559497D01*
X94877468Y-36437142D01*
X94897709Y-36302855D01*
X94877468Y-36168567D01*
X94818545Y-36046212D01*
X94799044Y-36022675D01*
X93204772Y-34428403D01*
X93171287Y-34367080D01*
X93176271Y-34297388D01*
X93204772Y-34253041D01*
X94670995Y-32786819D01*
X94732318Y-32753334D01*
X94758676Y-32750500D01*
X105741324Y-32750500D01*
X105808363Y-32770185D01*
G37*
%TD.AperFunction*%
%TD*%
M02*
