M48
; DRILL file {KiCad 9.0.6-9.0.6~ubuntu24.04.1} date 2025-12-18T12:30:05+0100
; FORMAT={-:-/ absolute / metric / decimal}
; #@! TF.CreationDate,2025-12-18T12:30:05+01:00
; #@! TF.GenerationSoftware,Kicad,Pcbnew,9.0.6-9.0.6~ubuntu24.04.1
; #@! TF.FileFunction,Plated,1,2,PTH
FMAT,2
METRIC
; #@! TA.AperFunction,Plated,PTH,ViaDrill
T1C0.300
; #@! TA.AperFunction,Plated,PTH,ComponentDrill
T2C0.500
; #@! TA.AperFunction,Plated,PTH,ComponentDrill
T3C3.200
%
G90
G05
T1
X97.05Y-45.95
X100.15Y-46.4
X100.25Y-49.5
X101.45Y-51.75
X107.826Y-41.04
X110.477Y-43.692
T2
X85.1Y-49.5
X85.803Y-47.803
X85.803Y-51.197
X87.5Y-47.1
X87.5Y-51.9
X89.197Y-47.803
X89.197Y-51.197
X89.9Y-49.5
X97.85Y-36.75
X97.85Y-62.25
X98.553Y-35.053
X98.553Y-38.447
X98.553Y-60.553
X98.553Y-63.947
X100.25Y-34.35
X100.25Y-39.15
X100.25Y-59.85
X100.25Y-64.65
X101.947Y-35.053
X101.947Y-38.447
X101.947Y-60.553
X101.947Y-63.947
X102.65Y-36.75
X102.65Y-62.25
X110.6Y-49.5
X111.303Y-47.803
X111.303Y-51.197
X113.0Y-47.1
X113.0Y-51.9
X114.697Y-47.803
X114.697Y-51.197
X115.4Y-49.5
T3
X87.5Y-49.5
X100.25Y-36.75
X100.25Y-62.25
X113.0Y-49.5
M30
