%TF.GenerationSoftware,KiCad,Pcbnew,9.0.6-9.0.6~ubuntu24.04.1*%
%TF.CreationDate,2025-12-18T12:30:08+01:00*%
%TF.ProjectId,PCB_ENCODER,5043425f-454e-4434-9f44-45522e6b6963,rev?*%
%TF.SameCoordinates,Original*%
%TF.FileFunction,Copper,L2,Bot*%
%TF.FilePolarity,Positive*%
%FSLAX46Y46*%
G04 Gerber Fmt 4.6, Leading zero omitted, Abs format (unit mm)*
G04 Created by KiCad (PCBNEW 9.0.6-9.0.6~ubuntu24.04.1) date 2025-12-18 12:30:08*
%MOMM*%
%LPD*%
G01*
G04 APERTURE LIST*
%TA.AperFunction,ComponentPad*%
%ADD10C,0.800000*%
%TD*%
%TA.AperFunction,ComponentPad*%
%ADD11C,6.400000*%
%TD*%
%TA.AperFunction,ViaPad*%
%ADD12C,0.400000*%
%TD*%
%TA.AperFunction,Conductor*%
%ADD13C,0.200000*%
%TD*%
G04 APERTURE END LIST*
D10*
%TO.P,H2,1,1*%
%TO.N,GND*%
X97850000Y-62250000D03*
X98552944Y-60552944D03*
X98552944Y-63947056D03*
X100250000Y-59850000D03*
D11*
X100250000Y-62250000D03*
D10*
X100250000Y-64650000D03*
X101947056Y-60552944D03*
X101947056Y-63947056D03*
X102650000Y-62250000D03*
%TD*%
%TO.P,H3,1,1*%
%TO.N,GND*%
X85100000Y-49500000D03*
X85802944Y-47802944D03*
X85802944Y-51197056D03*
X87500000Y-47100000D03*
D11*
X87500000Y-49500000D03*
D10*
X87500000Y-51900000D03*
X89197056Y-47802944D03*
X89197056Y-51197056D03*
X89900000Y-49500000D03*
%TD*%
%TO.P,H4,1,1*%
%TO.N,GND*%
X97850000Y-36750000D03*
X98552944Y-35052944D03*
X98552944Y-38447056D03*
X100250000Y-34350000D03*
D11*
X100250000Y-36750000D03*
D10*
X100250000Y-39150000D03*
X101947056Y-35052944D03*
X101947056Y-38447056D03*
X102650000Y-36750000D03*
%TD*%
%TO.P,H1,1,1*%
%TO.N,GND*%
X110600000Y-49500000D03*
X111302944Y-47802944D03*
X111302944Y-51197056D03*
X113000000Y-47100000D03*
D11*
X113000000Y-49500000D03*
D10*
X113000000Y-51900000D03*
X114697056Y-47802944D03*
X114697056Y-51197056D03*
X115400000Y-49500000D03*
%TD*%
D12*
%TO.N,GND*%
X100250000Y-49500000D03*
%TO.N,+3.3V*%
X101450000Y-51750000D03*
X110477297Y-43692120D03*
X100150000Y-46400000D03*
%TO.N,/B*%
X107825647Y-41040470D03*
X97050000Y-45950000D03*
%TD*%
D13*
%TO.N,/B*%
X99200000Y-45500000D02*
X99200000Y-43875000D01*
X98750000Y-45950000D02*
X99200000Y-45500000D01*
X106716117Y-42150000D02*
X107825647Y-41040470D01*
X99200000Y-43875000D02*
X100925000Y-42150000D01*
X100925000Y-42150000D02*
X106716117Y-42150000D01*
X97050000Y-45950000D02*
X98750000Y-45950000D01*
%TD*%
%TA.AperFunction,Conductor*%
%TO.N,GND*%
G36*
X105808363Y-32770185D02*
G01*
X105829005Y-32786819D01*
X116963181Y-43920995D01*
X116996666Y-43982318D01*
X116999500Y-44008676D01*
X116999500Y-54991324D01*
X116979815Y-55058363D01*
X116963181Y-55079005D01*
X105829005Y-66213181D01*
X105767682Y-66246666D01*
X105741324Y-66249500D01*
X94758676Y-66249500D01*
X94691637Y-66229815D01*
X94670995Y-66213181D01*
X83536819Y-55079005D01*
X83503334Y-55017682D01*
X83500500Y-54991324D01*
X83500500Y-45897273D01*
X96649500Y-45897273D01*
X96649500Y-46002727D01*
X96676793Y-46104587D01*
X96729520Y-46195913D01*
X96804087Y-46270480D01*
X96895413Y-46323207D01*
X96997273Y-46350500D01*
X96997275Y-46350500D01*
X97102725Y-46350500D01*
X97102727Y-46350500D01*
X97204587Y-46323207D01*
X97295913Y-46270480D01*
X97295914Y-46270478D01*
X97301744Y-46267113D01*
X97363744Y-46250500D01*
X98789560Y-46250500D01*
X98789562Y-46250500D01*
X98865989Y-46230021D01*
X98934511Y-46190460D01*
X98990460Y-46134511D01*
X99182819Y-45942152D01*
X99244142Y-45908667D01*
X99313834Y-45913651D01*
X99369767Y-45955523D01*
X99394184Y-46020987D01*
X99394500Y-46029833D01*
X99394500Y-46348638D01*
X99395678Y-46370618D01*
X99398511Y-46396965D01*
X99398512Y-46396967D01*
X99422470Y-46473478D01*
X99422471Y-46473483D01*
X99436872Y-46499855D01*
X99455956Y-46534805D01*
X99455958Y-46534808D01*
X99455960Y-46534811D01*
X99490998Y-46581615D01*
X99491002Y-46581619D01*
X99491009Y-46581629D01*
X99491016Y-46581636D01*
X101608181Y-48698801D01*
X101641666Y-48760124D01*
X101644500Y-48786482D01*
X101644500Y-49513517D01*
X101624815Y-49580556D01*
X101608181Y-49601198D01*
X100441014Y-50768365D01*
X100441012Y-50768366D01*
X100426325Y-50784716D01*
X100426313Y-50784730D01*
X100409672Y-50805379D01*
X100372509Y-50876424D01*
X100352826Y-50943456D01*
X100344500Y-51001365D01*
X100344500Y-53248638D01*
X100345678Y-53270618D01*
X100348511Y-53296965D01*
X100348512Y-53296967D01*
X100372470Y-53373478D01*
X100372471Y-53373483D01*
X100386872Y-53399855D01*
X100405956Y-53434805D01*
X100405958Y-53434808D01*
X100405960Y-53434811D01*
X100440998Y-53481615D01*
X100441002Y-53481619D01*
X100441009Y-53481629D01*
X100441016Y-53481636D01*
X101068365Y-54108986D01*
X101068366Y-54108987D01*
X101084716Y-54123674D01*
X101084730Y-54123686D01*
X101084738Y-54123693D01*
X101093136Y-54130460D01*
X101105379Y-54140327D01*
X101176424Y-54177490D01*
X101243456Y-54197173D01*
X101243458Y-54197173D01*
X101243464Y-54197175D01*
X101301362Y-54205500D01*
X101301366Y-54205500D01*
X103398639Y-54205500D01*
X103401180Y-54205363D01*
X103420607Y-54204322D01*
X103420614Y-54204321D01*
X103420618Y-54204321D01*
X103446965Y-54201488D01*
X103523482Y-54177529D01*
X103584805Y-54144044D01*
X103631629Y-54108991D01*
X112258991Y-45481629D01*
X112273693Y-45465262D01*
X112290327Y-45444620D01*
X112327490Y-45373575D01*
X112347175Y-45306536D01*
X112355500Y-45248638D01*
X112355500Y-44001362D01*
X112354322Y-43979393D01*
X112351488Y-43953035D01*
X112327529Y-43876518D01*
X112294044Y-43815195D01*
X112258991Y-43768371D01*
X111840120Y-43349500D01*
X110931345Y-42440724D01*
X110931340Y-42440719D01*
X110915434Y-42426389D01*
X110895387Y-42410139D01*
X110895380Y-42410134D01*
X110825017Y-42372940D01*
X110825010Y-42372937D01*
X110758089Y-42352869D01*
X110758091Y-42352869D01*
X110758086Y-42352868D01*
X110758083Y-42352867D01*
X110758073Y-42352865D01*
X110700244Y-42344210D01*
X107265266Y-42324467D01*
X107198341Y-42304397D01*
X107152890Y-42251331D01*
X107143345Y-42182117D01*
X107172734Y-42118729D01*
X107178279Y-42112807D01*
X107816283Y-41474804D01*
X107871869Y-41442712D01*
X107878370Y-41440970D01*
X107878374Y-41440970D01*
X107980234Y-41413677D01*
X108071560Y-41360950D01*
X108146127Y-41286383D01*
X108198854Y-41195057D01*
X108226147Y-41093197D01*
X108226147Y-40987743D01*
X108198854Y-40885883D01*
X108146127Y-40794557D01*
X108071560Y-40719990D01*
X107980234Y-40667263D01*
X107878374Y-40639970D01*
X107772920Y-40639970D01*
X107671060Y-40667263D01*
X107671057Y-40667264D01*
X107579732Y-40719991D01*
X107505168Y-40794555D01*
X107452441Y-40885880D01*
X107452440Y-40885881D01*
X107423404Y-40994248D01*
X107391310Y-41049835D01*
X106627965Y-41813181D01*
X106566642Y-41846666D01*
X106540284Y-41849500D01*
X100885438Y-41849500D01*
X100847224Y-41859739D01*
X100809009Y-41869979D01*
X100809004Y-41869982D01*
X100740495Y-41909535D01*
X100740487Y-41909541D01*
X98959541Y-43690487D01*
X98959535Y-43690495D01*
X98919982Y-43759004D01*
X98919979Y-43759009D01*
X98899500Y-43835439D01*
X98899500Y-45324167D01*
X98879815Y-45391206D01*
X98863181Y-45411848D01*
X98661848Y-45613181D01*
X98600525Y-45646666D01*
X98574167Y-45649500D01*
X97363744Y-45649500D01*
X97301744Y-45632887D01*
X97295914Y-45629521D01*
X97295913Y-45629520D01*
X97204587Y-45576793D01*
X97102727Y-45549500D01*
X96997273Y-45549500D01*
X96895413Y-45576793D01*
X96895410Y-45576794D01*
X96804085Y-45629521D01*
X96729521Y-45704085D01*
X96676794Y-45795410D01*
X96676793Y-45795413D01*
X96649500Y-45897273D01*
X83500500Y-45897273D01*
X83500500Y-44008676D01*
X83520185Y-43941637D01*
X83536819Y-43920995D01*
X94670995Y-32786819D01*
X94732318Y-32753334D01*
X94758676Y-32750500D01*
X105741324Y-32750500D01*
X105808363Y-32770185D01*
G37*
%TD.AperFunction*%
%TD*%
%TA.AperFunction,Conductor*%
%TO.N,+3.3V*%
G36*
X110699056Y-42549707D02*
G01*
X110765981Y-42569777D01*
X110786024Y-42586024D01*
X112113681Y-43913681D01*
X112147166Y-43975004D01*
X112150000Y-44001362D01*
X112150000Y-45248638D01*
X112130315Y-45315677D01*
X112113681Y-45336319D01*
X103486319Y-53963681D01*
X103424996Y-53997166D01*
X103398638Y-54000000D01*
X101301362Y-54000000D01*
X101234323Y-53980315D01*
X101213681Y-53963681D01*
X100586319Y-53336319D01*
X100552834Y-53274996D01*
X100550000Y-53248638D01*
X100550000Y-51001362D01*
X100569685Y-50934323D01*
X100586319Y-50913681D01*
X101850000Y-49650000D01*
X101850000Y-48650000D01*
X99636319Y-46436319D01*
X99602834Y-46374996D01*
X99600000Y-46348638D01*
X99600000Y-44201362D01*
X99619685Y-44134323D01*
X99636319Y-44113681D01*
X99836319Y-43913681D01*
X101217960Y-42532039D01*
X101279281Y-42498556D01*
X101306346Y-42495724D01*
X110699056Y-42549707D01*
G37*
%TD.AperFunction*%
%TD*%
M02*
