%TF.GenerationSoftware,KiCad,Pcbnew,9.0.6-9.0.6~ubuntu24.04.1*%
%TF.CreationDate,2025-12-18T12:30:09+01:00*%
%TF.ProjectId,PCB_ENCODER,5043425f-454e-4434-9f44-45522e6b6963,rev?*%
%TF.SameCoordinates,Original*%
%TF.FileFunction,Legend,Top*%
%TF.FilePolarity,Positive*%
%FSLAX46Y46*%
G04 Gerber Fmt 4.6, Leading zero omitted, Abs format (unit mm)*
G04 Created by KiCad (PCBNEW 9.0.6-9.0.6~ubuntu24.04.1) date 2025-12-18 12:30:09*
%MOMM*%
%LPD*%
G01*
G04 APERTURE LIST*
%ADD10C,0.120000*%
G04 APERTURE END LIST*
D10*
%TO.C,C22*%
X102289970Y-51638781D02*
X102488781Y-51439970D01*
X103011219Y-52360030D02*
X103210030Y-52161219D01*
%TO.C,R1*%
X97762770Y-44751697D02*
X98098303Y-45087230D01*
X98501697Y-44012770D02*
X98837230Y-44348303D01*
%TO.C,J2*%
X87229631Y-44236592D02*
X88254936Y-45261897D01*
X88254936Y-45261897D02*
X89527728Y-43989105D01*
X92094526Y-35383616D02*
X86133616Y-41344526D01*
X94739105Y-38777728D02*
X95439141Y-39477764D01*
X94986592Y-36479631D02*
X96011897Y-37504936D01*
X96011897Y-37504936D02*
X94739105Y-38777728D01*
%TO.C,R37*%
X95212770Y-44401697D02*
X95548303Y-44737230D01*
X95951697Y-43662770D02*
X96287230Y-43998303D01*
%TO.C,IC1*%
X97973116Y-49500000D02*
X98308992Y-49164124D01*
X98308992Y-49835876D02*
X97973116Y-49500000D01*
X99914124Y-47558992D02*
X100250000Y-47223116D01*
X100250000Y-47223116D02*
X100585876Y-47558992D01*
X100250000Y-51776884D02*
X99914124Y-51441008D01*
X100585876Y-51441008D02*
X100250000Y-51776884D01*
X102191008Y-49164124D02*
X102526884Y-49500000D01*
X102526884Y-49500000D02*
X102191008Y-49835876D01*
X102696589Y-48453482D02*
X102293539Y-48517122D01*
X102357178Y-48114071D01*
X102696589Y-48453482D01*
G36*
X102696589Y-48453482D02*
G01*
X102293539Y-48517122D01*
X102357178Y-48114071D01*
X102696589Y-48453482D01*
G37*
%TO.C,J1*%
X104488103Y-37504936D02*
X105760895Y-38777728D01*
X105513408Y-36479631D02*
X104488103Y-37504936D01*
X110972272Y-43989105D02*
X110272236Y-44689141D01*
X112245064Y-45261897D02*
X110972272Y-43989105D01*
X113270369Y-44236592D02*
X112245064Y-45261897D01*
X114366384Y-41344526D02*
X108405474Y-35383616D01*
%TD*%
M02*
